<svg width="170" height="76" viewBox="0 0 170 76" fill="none" xmlns="http://www.w3.org/2000/svg">
<path d="M37.6877 38.0132C37.6877 41.0714 36.6677 42.3859 34.9416 42.3859H33.7385V33.399H34.497C36.5893 33.399 37.6877 34.8208 37.6877 38.0132ZM59.3693 21.8367V54.1628L32.0908 70.3125L4.78619 54.1628V21.8367L32.0647 5.68701L59.3693 21.8367ZM27.1477 29.8042H21.6293L18.517 40.508L15.4047 29.8042H9.86004V46.2221H14.5416V38.9789L16.66 46.2221H20.3739L22.44 39.0862V46.2221H27.1216V29.8042H27.1477ZM42.3954 38.0132C42.3954 32.5405 39.3877 29.7774 35.6739 29.7774H29.0308V46.1953H35.7C39.3616 46.1953 42.3954 43.6199 42.3954 38.0132ZM54.2954 41.8494H48.96V29.8042H44.2785V46.2221H54.2954V41.8494Z" fill="#1A1A1A"/>
<path d="M18.5169 40.5085L15.4046 29.8046H9.85999V46.1957H14.5677V38.9525L16.66 46.1957H20.3738L22.44 39.0867V46.1957H27.1477V29.8046H21.6292L18.5169 40.5085Z" fill="#FFD700"/>
<path d="M54.2954 41.8498H48.96V29.8046H44.2784V46.1957H54.2954V41.8498Z" fill="#FFD700"/>
<path d="M34.4708 1.42181L32.0908 0L29.6846 1.42181L2.40615 17.5715L0 18.9933V21.8369V54.1631V57.0067L2.40615 58.4285L29.6846 74.5782L32.0908 76L34.4969 74.5782L61.7754 58.4285L64.1815 57.0067V54.1631V21.8369V18.9933L61.7754 17.5715L34.4708 1.42181ZM59.3692 54.1631L32.0908 70.3127L4.78615 54.1631V21.8369L32.0646 5.68726L59.3692 21.8369V54.1631Z" fill="#FFD700"/>
<path d="M29.0308 46.1957H35.7C39.3615 46.1957 42.4215 43.6203 42.4215 38.0135C42.4215 32.5409 39.4138 29.7777 35.7 29.7777H29.0308V46.1957ZM33.7123 33.3993H34.4708C36.5892 33.3993 37.6877 34.8211 37.6877 38.0135C37.6877 41.0717 36.6677 42.3863 34.9415 42.3863H33.7385V33.3993H33.7123Z" fill="#FFD700"/>
<path d="M74.1989 18.8594H80.2404C83.3004 18.8594 85.2881 19.7983 85.2881 22.1054C85.2881 23.0175 84.9742 23.715 84.1112 24.1711C85.1835 24.4393 85.9419 25.6197 85.9419 27.0147C85.9419 29.5364 83.9804 30.1534 80.7112 30.1534H74.1989V18.8594ZM78.5142 21.1128V23.3931H79.2727C80.0573 23.3931 81.1558 23.2858 81.1558 22.32C81.1558 21.1396 80.1619 21.2201 79.5342 21.1396H78.5142V21.1128ZM78.5142 25.6465V27.7658H78.9589C79.3773 27.7658 79.7696 27.739 80.5019 27.739C81.025 27.739 81.7573 27.3634 81.7573 26.7464C81.7573 26.0221 81.3127 25.6465 80.685 25.6465H78.5142Z" fill="white"/>
<path d="M95.8538 18.8594H100.169V24.5198C100.169 28.3292 97.6323 30.2875 94.2846 30.2875C90.9369 30.2875 88.4523 28.4097 88.4523 24.5198V18.8594H92.7677V24.5198C92.7677 25.727 92.7938 27.4171 94.2846 27.4171C95.8538 27.4171 95.8538 25.9416 95.8538 24.5198V18.8594Z" fill="white"/>
<path d="M102.68 18.8594H106.995V30.1534H102.68V18.8594Z" fill="white"/>
<path d="M109.506 18.8594H113.822V27.1488H118.712V30.1534H109.506V18.8594Z" fill="white"/>
<path d="M121.223 18.8594H127.343C130.743 18.8594 133.515 20.7372 133.515 24.5198C133.515 28.3828 130.717 30.1534 127.343 30.1534H121.223V18.8594ZM125.538 21.3543V27.5244H126.663C128.258 27.5244 129.2 26.6123 129.2 24.5198C129.2 22.32 128.18 21.3543 126.245 21.3543H125.538Z" fill="white"/>
<path d="M136.026 18.8594H140.341V30.1534H136.026V18.8594Z" fill="white"/>
<path d="M147.142 24.3588V30.1534H142.826V18.8594H147.769L151.248 24.7881V18.8594H155.563V30.1534H150.568L147.142 24.3588Z" fill="white"/>
<path d="M169.111 29.6166C168.195 30.0726 165.397 30.2873 164.246 30.2873C160.872 30.2873 158.074 28.3826 158.074 24.5195C158.074 20.7369 160.82 18.6981 164.246 18.6981C165.266 18.6981 167.855 19.0737 168.692 19.3956V21.7295C168.038 21.5954 165.894 21.3271 165.371 21.3271C163.435 21.3271 162.415 22.3197 162.415 24.4927C162.415 26.5583 163.618 27.4704 165.397 27.4973V24.2781H169.137V29.6166H169.111Z" fill="white"/>
<path d="M84.7123 46.0342C83.7969 46.4903 81.4954 46.7049 80.3446 46.7049C76.9708 46.7049 74.1723 44.8002 74.1723 40.9371C74.1723 37.1546 76.9185 35.1157 80.3446 35.1157C81.3646 35.1157 83.64 35.3035 84.4769 35.6254V37.9594C83.8231 37.8252 81.9662 37.7447 81.4692 37.7447C79.8215 37.7447 78.5139 38.7373 78.5139 40.9103C78.5139 43.0028 79.6385 43.9149 81.2339 43.9149C81.9139 43.9149 83.8231 43.7539 84.7123 43.432V46.0342Z" fill="white"/>
<path d="M92.1138 46.7049C88.74 46.7049 85.9415 44.8002 85.9415 40.9371C85.9415 37.1546 88.6877 35.1157 92.1138 35.1157C95.6185 35.1157 98.3123 37.1546 98.3123 40.9371C98.3123 44.7734 95.4354 46.7049 92.1138 46.7049ZM92.1138 43.8344C93.7877 43.8344 93.9969 42.1443 93.9969 40.9371C93.9969 39.8909 93.7092 37.9862 92.1138 37.9862C90.5446 37.9862 90.2831 39.8909 90.2831 40.9371C90.2569 42.1712 90.5969 43.8344 92.1138 43.8344Z" fill="white"/>
<path d="M111.598 41.6883L109.689 46.5976H106.289L104.354 41.6079V46.5976H100.038V35.3036H105.138L107.989 42.6809L110.84 35.3036H115.914V46.5976H111.598V41.6883Z" fill="white"/>
<path d="M117.614 35.2769H123.655C126.715 35.2769 128.232 36.189 128.232 39.0862C128.232 42.0104 126.506 43.0566 123.237 43.0566H121.903V46.5441H117.588V35.2769H117.614ZM121.929 37.5035V40.7763H122.792C123.211 40.7227 124.1 40.3739 124.1 39.3009C124.1 37.8522 123.577 37.584 122.949 37.5035H121.929Z" fill="white"/>
<path d="M142.408 46.5709H138.092L137.282 44.4248H132.966L132.182 46.5709H127.892L132.077 35.2769H138.223L142.408 46.5709ZM135.137 38.6302L133.934 41.8762H136.34L135.137 38.6302Z" fill="white"/>
<path d="M148.214 40.7763V46.5709H143.898V35.2769H148.842L152.32 41.2056V35.2769H156.635V46.5709H151.64L148.214 40.7763Z" fill="white"/>
<path d="M161.892 41.9567L158.1 35.2769H162.102L164.063 39.0862L165.998 35.2769H170L166.208 41.9567V46.5709H161.892V41.9567Z" fill="white"/>
<path d="M77.6246 54.5658V55.4242C77.6246 55.7998 77.5461 56.1217 77.4154 56.39C77.2846 56.6583 77.0754 56.8997 76.8138 57.0338C76.5523 57.1948 76.2646 57.2753 75.9246 57.2753C75.5846 57.2753 75.2969 57.1948 75.0354 57.0607C74.7738 56.9265 74.5908 56.7119 74.4338 56.4437C74.2769 56.1754 74.2246 55.8803 74.2246 55.5316V54.0829C74.2246 53.7073 74.3031 53.3854 74.4338 53.1172C74.5646 52.8489 74.7738 52.6343 75.0354 52.4733C75.2969 52.3124 75.5846 52.2319 75.9246 52.2319C76.2123 52.2319 76.4477 52.2855 76.6831 52.4197C76.9184 52.5538 77.1015 52.7148 77.2584 52.9294C77.4154 53.144 77.52 53.4122 77.5723 53.7073H76.84C76.7877 53.5464 76.7354 53.4122 76.6308 53.2781C76.5261 53.1708 76.4215 53.0635 76.2908 53.0098C76.16 52.9562 76.0292 52.9294 75.8985 52.9294C75.6892 52.9294 75.5323 52.983 75.3754 53.0635C75.2185 53.144 75.1138 53.3049 75.0354 53.4659C74.9569 53.6537 74.9046 53.8415 74.9046 54.0829V55.5316C74.9046 55.7462 74.9569 55.934 75.0354 56.0949C75.1138 56.2559 75.2446 56.39 75.4015 56.4705C75.5584 56.551 75.7415 56.6046 75.9246 56.6046C76.1338 56.6046 76.2908 56.551 76.4477 56.4705C76.6046 56.39 76.7092 56.2559 76.7877 56.0681C76.8661 55.8803 76.9184 55.6925 76.9184 55.4511V55.2365H75.9508V54.5658H77.6246Z" fill="white"/>
<path d="M79.063 52.2587H79.7431V57.2216H79.063V52.2587ZM79.3507 54.4585H80.9984C81.1292 54.4585 81.2338 54.4317 81.3384 54.3512C81.4431 54.2707 81.5215 54.1902 81.5738 54.0829C81.6261 53.9756 81.6523 53.8415 81.6523 53.6805C81.6523 53.5196 81.6261 53.3854 81.5738 53.2781C81.5215 53.1708 81.4431 53.0635 81.3384 53.0098C81.2338 52.9562 81.1292 52.9025 80.9984 52.9025H79.3507V52.2319H80.9723C81.26 52.2319 81.4954 52.2855 81.7046 52.4197C81.9138 52.527 82.0708 52.7148 82.2015 52.9294C82.3061 53.144 82.3846 53.3854 82.3846 53.6805C82.3846 53.9756 82.3323 54.217 82.2015 54.4317C82.0969 54.6463 81.9138 54.8072 81.7046 54.9414C81.4954 55.0487 81.26 55.1292 80.9723 55.1292H79.3507V54.4585ZM80.6846 54.9682L81.3646 54.8072L82.5938 57.2216H81.7831L80.6846 54.9682Z" fill="white"/>
<path d="M83.8231 52.2582H84.5031V57.2212H83.8231V52.2582ZM84.1631 52.2582H86.9354V52.9289H84.1631V52.2582ZM84.1631 54.4312H86.5692V55.1019H84.1631V54.4312ZM84.1631 56.5505H86.9354V57.2212H84.1631V56.5505Z" fill="white"/>
<path d="M89.5507 52.2582H90.1261L91.9046 57.2212H91.1723L89.8384 53.224L88.5046 57.2212H87.7723L89.5507 52.2582ZM88.583 55.4774H91.12V56.1481H88.583V55.4774Z" fill="white"/>
<path d="M92.1923 52.2582H95.5923V52.9289H92.1923V52.2582ZM93.5523 52.6875H94.2323V57.2212H93.5523V52.6875Z" fill="white"/>
<path d="M97.9723 52.2582H98.6523V57.2212H97.9723V52.2582ZM98.3646 56.5773H99.6723C100.012 56.5773 100.274 56.5237 100.431 56.3896C100.588 56.2554 100.666 56.0676 100.666 55.8262C100.666 55.6652 100.64 55.5043 100.588 55.397C100.535 55.2897 100.431 55.1824 100.326 55.1287C100.195 55.075 100.038 55.0214 99.8554 55.0214H98.3908V54.4044H99.8554C100.117 54.4044 100.3 54.3507 100.431 54.2166C100.562 54.1093 100.614 53.9215 100.614 53.6801C100.614 53.4386 100.535 53.2508 100.405 53.1167C100.274 52.9826 100.038 52.9289 99.7769 52.9289H98.3908V52.2851H99.9077C100.222 52.2851 100.483 52.3387 100.692 52.446C100.902 52.5533 101.058 52.7143 101.163 52.9021C101.268 53.0899 101.32 53.3313 101.32 53.6264C101.32 53.7874 101.294 53.9483 101.215 54.1093C101.163 54.2702 101.058 54.3776 100.928 54.4849C100.797 54.5922 100.64 54.6726 100.431 54.6995C100.614 54.7263 100.797 54.8068 100.928 54.9141C101.058 55.0214 101.189 55.1555 101.242 55.3433C101.294 55.5311 101.346 55.6921 101.346 55.8798C101.346 56.1481 101.294 56.3896 101.163 56.5773C101.032 56.7651 100.875 56.9261 100.666 57.0602C100.457 57.1944 100.195 57.2212 99.9077 57.2212H98.3384V56.5773H98.3646Z" fill="white"/>
<path d="M103.412 57.061C103.151 56.9268 102.968 56.7122 102.837 56.444C102.706 56.1757 102.628 55.8269 102.628 55.4514V52.2858H103.308V55.4782C103.308 55.8269 103.386 56.122 103.569 56.3098C103.752 56.4976 103.988 56.6049 104.328 56.6049C104.642 56.6049 104.903 56.4976 105.086 56.3098C105.269 56.122 105.348 55.8269 105.348 55.4782V52.2858H106.028V55.4514C106.028 55.8269 105.949 56.1757 105.818 56.444C105.688 56.7122 105.505 56.9268 105.243 57.061C104.982 57.1951 104.694 57.2756 104.328 57.2756C103.962 57.2756 103.648 57.1951 103.412 57.061Z" fill="white"/>
<path d="M108.172 57.2212H107.492V52.2582H108.172V57.2212Z" fill="white"/>
<path d="M109.689 52.2582H110.369V57.2212H109.689V52.2582ZM110.029 56.5505H112.802V57.2212H110.029V56.5505Z" fill="white"/>
<path d="M113.952 52.2587H114.632V57.2216H113.952V52.2587ZM114.397 56.551H115.495C115.861 56.551 116.123 56.4437 116.332 56.2559C116.541 56.0681 116.62 55.7998 116.62 55.4511V54.0024C116.62 53.6537 116.515 53.3854 116.332 53.1976C116.149 53.0098 115.861 52.9025 115.495 52.9025H114.397V52.2319H115.469C115.861 52.2319 116.175 52.3124 116.463 52.4465C116.751 52.5806 116.934 52.7952 117.091 53.0635C117.248 53.3318 117.3 53.6537 117.3 54.0293V55.4242C117.3 55.7998 117.221 56.1217 117.091 56.39C116.96 56.6583 116.725 56.8461 116.463 57.007C116.175 57.1411 115.861 57.2216 115.469 57.2216H114.397V56.551Z" fill="white"/>
<path d="M119.418 57.2212H118.738V52.2582H119.418V57.2212Z" fill="white"/>
<path d="M120.962 52.2582H121.563L123.917 56.0945L123.838 56.1749V52.2582H124.518V57.1944H123.891L121.537 53.4118L121.615 53.3313V57.1944H120.935V52.2582H120.962Z" fill="white"/>
<path d="M129.357 54.5658V55.4242C129.357 55.7998 129.278 56.1217 129.148 56.39C129.017 56.6583 128.808 56.8997 128.546 57.0338C128.285 57.1948 127.997 57.2753 127.657 57.2753C127.317 57.2753 127.029 57.1948 126.768 57.0607C126.506 56.9265 126.323 56.7119 126.166 56.4437C126.009 56.1754 125.957 55.8803 125.957 55.5316V54.0829C125.957 53.7073 126.035 53.3854 126.166 53.1172C126.297 52.8489 126.506 52.6343 126.768 52.4733C127.029 52.3124 127.317 52.2319 127.657 52.2319C127.945 52.2319 128.18 52.2855 128.415 52.4197C128.651 52.5538 128.834 52.7148 128.991 52.9294C129.148 53.144 129.252 53.4122 129.305 53.7073H128.572C128.52 53.5464 128.468 53.4122 128.363 53.2781C128.258 53.1708 128.154 53.0635 128.023 53.0098C127.892 52.9562 127.762 52.9294 127.631 52.9294C127.422 52.9294 127.265 52.983 127.108 53.0635C126.951 53.144 126.846 53.3049 126.768 53.4659C126.689 53.6537 126.637 53.8415 126.637 54.0829V55.5316C126.637 55.7462 126.689 55.934 126.768 56.0949C126.846 56.2559 126.977 56.39 127.134 56.4705C127.291 56.551 127.474 56.6046 127.657 56.6046C127.866 56.6046 128.023 56.551 128.18 56.4705C128.337 56.39 128.442 56.2559 128.52 56.0681C128.598 55.8803 128.651 55.6925 128.651 55.4511V55.2365H127.683V54.5658H129.357Z" fill="white"/>
<path d="M133.385 57.2756C133.385 57.2756 133.28 57.2488 133.071 57.1951C132.862 57.1415 132.678 57.0878 132.495 56.9805C132.312 56.9 132.155 56.7659 131.998 56.6318L132.417 56.0952C132.6 56.2562 132.809 56.3903 133.018 56.4708C133.228 56.5513 133.489 56.6049 133.751 56.6049C134.091 56.6049 134.378 56.5513 134.562 56.4171C134.745 56.283 134.849 56.0952 134.849 55.8538C134.849 55.6928 134.797 55.5319 134.718 55.4514C134.64 55.3441 134.509 55.2636 134.378 55.2368C134.248 55.1831 134.065 55.1563 133.829 55.1026H133.803H133.777H133.725C133.411 55.049 133.149 54.9685 132.94 54.9148C132.731 54.8344 132.574 54.7002 132.417 54.5124C132.286 54.3247 132.208 54.0564 132.208 53.7076C132.208 53.4125 132.286 53.1443 132.417 52.9297C132.548 52.7151 132.757 52.5541 132.992 52.4468C133.228 52.3395 133.568 52.2858 133.908 52.2858C134.091 52.2858 134.248 52.3127 134.405 52.3395C134.562 52.3663 134.745 52.4468 134.902 52.5004C135.058 52.5809 135.215 52.6614 135.372 52.7955L134.98 53.3589C134.797 53.2248 134.614 53.1175 134.431 53.037C134.248 52.9565 134.065 52.9297 133.882 52.9297C133.542 52.9297 133.306 53.0102 133.123 53.1443C132.94 53.2784 132.862 53.4662 132.862 53.7076C132.862 53.8686 132.914 54.0027 132.992 54.11C133.097 54.2173 133.202 54.271 133.332 54.3247C133.463 54.3783 133.672 54.432 133.908 54.4588H133.934H133.96H133.986H134.012C134.3 54.5124 134.535 54.5929 134.745 54.6734C134.928 54.7539 135.111 54.888 135.242 55.0758C135.372 55.2636 135.451 55.5319 135.451 55.8538C135.451 56.1489 135.372 56.4171 135.242 56.6318C135.111 56.8464 134.902 57.0073 134.64 57.1146C134.378 57.2219 134.065 57.2756 133.672 57.2756C133.515 57.2756 133.385 57.2756 133.385 57.2756Z" fill="white"/>
<path d="M137.517 57.0607C137.255 56.8997 137.072 56.6851 136.915 56.4168C136.785 56.1486 136.706 55.8266 136.706 55.4511V54.0561C136.706 53.6805 136.785 53.3854 136.915 53.0903C137.046 52.8221 137.255 52.6074 137.517 52.4465C137.778 52.2855 138.066 52.2319 138.406 52.2319C138.746 52.2319 139.034 52.3124 139.295 52.4465C139.557 52.6074 139.74 52.8221 139.897 53.0903C140.028 53.3586 140.106 53.6805 140.106 54.0561V55.4511C140.106 55.8266 140.028 56.1217 139.897 56.4168C139.766 56.6851 139.557 56.8997 139.295 57.0607C139.034 57.2216 138.746 57.2753 138.406 57.2753C138.066 57.2753 137.778 57.1948 137.517 57.0607ZM138.955 56.4437C139.112 56.3632 139.217 56.229 139.295 56.0413C139.374 55.8803 139.426 55.6657 139.426 55.4511V54.0024C139.426 53.7878 139.374 53.5732 139.295 53.4122C139.217 53.2513 139.086 53.1172 138.955 53.0098C138.798 52.9294 138.615 52.8757 138.432 52.8757C138.249 52.8757 138.066 52.9294 137.909 53.0098C137.752 53.0903 137.648 53.2245 137.569 53.4122C137.491 53.5732 137.438 53.7878 137.438 54.0024V55.4511C137.438 55.6657 137.491 55.8803 137.569 56.0413C137.648 56.2022 137.778 56.3363 137.909 56.4437C138.066 56.5241 138.249 56.5778 138.432 56.5778C138.615 56.5778 138.798 56.551 138.955 56.4437Z" fill="white"/>
<path d="M141.545 52.2582H142.225V57.2212H141.545V52.2582ZM141.885 56.5505H144.657V57.2212H141.885V56.5505Z" fill="white"/>
<path d="M146.514 57.061C146.252 56.9268 146.069 56.7122 145.938 56.444C145.808 56.1757 145.729 55.8269 145.729 55.4514V52.2858H146.409V55.4782C146.409 55.8269 146.488 56.122 146.671 56.3098C146.854 56.4976 147.089 56.6049 147.429 56.6049C147.743 56.6049 148.005 56.4976 148.188 56.3098C148.371 56.122 148.449 55.8269 148.449 55.4782V52.2858H149.129V55.4514C149.129 55.8269 149.051 56.1757 148.92 56.444C148.789 56.7122 148.606 56.9268 148.345 57.061C148.083 57.1951 147.795 57.2756 147.429 57.2756C147.063 57.2756 146.749 57.1951 146.514 57.061Z" fill="white"/>
<path d="M149.914 52.2582H153.314V52.9289H149.914V52.2582ZM151.274 52.6875H151.954V57.2212H151.274V52.6875Z" fill="white"/>
<path d="M154.883 57.2212H154.203V52.2582H154.883V57.2212Z" fill="white"/>
<path d="M157.106 57.0607C156.845 56.8997 156.662 56.6851 156.505 56.4168C156.374 56.1486 156.295 55.8266 156.295 55.4511V54.0561C156.295 53.6805 156.374 53.3854 156.505 53.0903C156.635 52.8221 156.845 52.6074 157.106 52.4465C157.368 52.2855 157.655 52.2319 157.995 52.2319C158.335 52.2319 158.623 52.3124 158.885 52.4465C159.146 52.6074 159.329 52.8221 159.486 53.0903C159.617 53.3586 159.695 53.6805 159.695 54.0561V55.4511C159.695 55.8266 159.617 56.1217 159.486 56.4168C159.355 56.6851 159.146 56.8997 158.885 57.0607C158.623 57.2216 158.335 57.2753 157.995 57.2753C157.655 57.2753 157.368 57.1948 157.106 57.0607ZM158.545 56.4437C158.702 56.3632 158.806 56.229 158.885 56.0413C158.963 55.8803 159.015 55.6657 159.015 55.4511V54.0024C159.015 53.7878 158.963 53.5732 158.885 53.4122C158.806 53.2513 158.675 53.1172 158.545 53.0098C158.388 52.9294 158.205 52.8757 158.022 52.8757C157.838 52.8757 157.655 52.9294 157.498 53.0098C157.342 53.0903 157.237 53.2245 157.158 53.4122C157.08 53.5732 157.028 53.7878 157.028 54.0024V55.4511C157.028 55.6657 157.08 55.8803 157.158 56.0413C157.237 56.2022 157.368 56.3363 157.498 56.4437C157.655 56.5241 157.838 56.5778 158.022 56.5778C158.205 56.5778 158.388 56.551 158.545 56.4437Z" fill="white"/>
<path d="M161.134 52.2582H161.735L164.089 56.0945L164.011 56.1749V52.2582H164.691V57.1944H164.063L161.709 53.4118L161.788 53.3313V57.1944H161.108V52.2582H161.134Z" fill="white"/>
<path d="M167.332 57.2756C167.332 57.2756 167.228 57.2488 167.018 57.1951C166.809 57.1415 166.626 57.0878 166.443 56.9805C166.26 56.9 166.103 56.7659 165.946 56.6318L166.365 56.0952C166.548 56.2562 166.757 56.3903 166.966 56.4708C167.175 56.5513 167.437 56.6049 167.698 56.6049C168.038 56.6049 168.326 56.5513 168.509 56.4171C168.692 56.283 168.797 56.0952 168.797 55.8538C168.797 55.6928 168.745 55.5319 168.666 55.4514C168.588 55.3441 168.457 55.2636 168.326 55.2368C168.195 55.1831 168.012 55.1563 167.777 55.1026H167.751H167.725H167.672C167.358 55.049 167.097 54.9685 166.888 54.9148C166.678 54.8344 166.522 54.7002 166.365 54.5124C166.234 54.3247 166.155 54.0564 166.155 53.7076C166.155 53.4125 166.234 53.1443 166.365 52.9297C166.495 52.7151 166.705 52.5541 166.94 52.4468C167.175 52.3395 167.515 52.2858 167.855 52.2858C168.038 52.2858 168.195 52.3127 168.352 52.3395C168.509 52.3663 168.692 52.4468 168.849 52.5004C169.006 52.5809 169.163 52.6614 169.32 52.7955L168.928 53.3589C168.745 53.2248 168.562 53.1175 168.378 53.037C168.195 52.9565 168.012 52.9297 167.829 52.9297C167.489 52.9297 167.254 53.0102 167.071 53.1443C166.888 53.2784 166.809 53.4662 166.809 53.7076C166.809 53.8686 166.862 54.0027 166.94 54.11C167.045 54.2173 167.149 54.271 167.28 54.3247C167.411 54.3783 167.62 54.432 167.855 54.4588H167.882H167.908H167.934H167.96C168.248 54.5124 168.483 54.5929 168.692 54.6734C168.875 54.7539 169.058 54.888 169.189 55.0758C169.32 55.2636 169.398 55.5319 169.398 55.8538C169.398 56.1489 169.32 56.4171 169.189 56.6318C169.058 56.8464 168.849 57.0073 168.588 57.1146C168.326 57.2219 168.012 57.2756 167.62 57.2756C167.463 57.2756 167.332 57.2756 167.332 57.2756Z" fill="white"/>
</svg>
