<svg width="270" height="119" viewBox="0 0 270 119" fill="none" xmlns="http://www.w3.org/2000/svg">
<path d="M59.8569 59.5207C59.8569 64.3093 58.2369 66.3675 55.4954 66.3675H53.5846V52.2959H54.7892C58.1123 52.2959 59.8569 54.5222 59.8569 59.5207ZM94.2923 34.1918V84.8077L50.9677 110.095L7.60156 84.8077V34.1918L50.9262 8.90479L94.2923 34.1918ZM43.1169 46.6672H34.3523L29.4093 63.4272L24.4662 46.6672H15.66V72.3743H23.0954V61.0329L26.46 72.3743H32.3585L35.64 61.2009V72.3743H43.0754V46.6672H43.1169ZM67.3339 59.5207C67.3339 50.9517 62.5569 46.6252 56.6585 46.6252H46.1077V72.3322H56.7C62.5154 72.3322 67.3339 68.2998 67.3339 59.5207ZM86.2339 65.5275H77.76V46.6672H70.3246V72.3743H86.2339V65.5275Z" fill="#1A1A1A"/>
<path d="M29.4094 63.4275L24.4663 46.6675H15.6602V72.3325H23.1371V60.9912L26.4602 72.3325H32.3586L35.6402 61.2012V72.3325H43.1171V46.6675H34.3525L29.4094 63.4275Z" fill="#FFD700"/>
<path d="M86.2339 65.5277H77.7601V46.6675H70.3247V72.3325H86.2339V65.5277Z" fill="#FFD700"/>
<path d="M54.7477 2.22626L50.9677 0L47.1462 2.22626L3.82154 27.5132L0 29.7395V34.192V84.808V89.2605L3.82154 91.4868L47.1462 116.774L50.9677 119L54.7892 116.774L98.1138 91.4868L101.935 89.2605V84.808V34.192V29.7395L98.1138 27.5132L54.7477 2.22626ZM94.2923 84.808L50.9677 110.095L7.60154 84.808V34.192L50.9262 8.90505L94.2923 34.192V84.808Z" fill="#FFD700"/>
<path d="M46.1079 72.3325H56.7002C62.5156 72.3325 67.3756 68.3 67.3756 59.521C67.3756 50.952 62.5987 46.6255 56.7002 46.6255H46.1079V72.3325ZM53.5433 52.2962H54.7479C58.1125 52.2962 59.8571 54.5224 59.8571 59.521C59.8571 64.3096 58.2371 66.3678 55.4956 66.3678H53.5848V52.2962H53.5433Z" fill="#FFD700"/>
<path d="M117.845 29.5293H127.44C132.3 29.5293 135.457 30.9995 135.457 34.6119C135.457 36.0401 134.959 37.1322 133.588 37.8463C135.291 38.2663 136.496 40.1145 136.496 42.2988C136.496 46.2473 133.38 47.2134 128.188 47.2134H117.845V29.5293ZM124.699 33.0577V36.6281H125.903C127.149 36.6281 128.894 36.4601 128.894 34.9479C128.894 33.0997 127.316 33.2257 126.319 33.0997H124.699V33.0577ZM124.699 40.1565V43.4749H125.405C126.069 43.4749 126.692 43.4329 127.855 43.4329C128.686 43.4329 129.849 42.8449 129.849 41.8787C129.849 40.7446 129.143 40.1565 128.146 40.1565H124.699Z" fill="#1A1A1A"/>
<path d="M152.239 29.5293H159.093V38.3923C159.093 44.357 155.063 47.4234 149.746 47.4234C144.43 47.4234 140.483 44.4831 140.483 38.3923V29.5293H147.337V38.3923C147.337 40.2826 147.379 42.9289 149.746 42.9289C152.239 42.9289 152.239 40.6186 152.239 38.3923V29.5293Z" fill="#1A1A1A"/>
<path d="M163.08 29.5293H169.934V47.2134H163.08V29.5293Z" fill="#1A1A1A"/>
<path d="M173.922 29.5293H180.776V42.5088H188.543V47.2134H173.922V29.5293Z" fill="#1A1A1A"/>
<path d="M192.531 29.5293H202.251C207.651 29.5293 212.054 32.4696 212.054 38.3923C212.054 44.441 207.609 47.2134 202.251 47.2134H192.531V29.5293ZM199.385 33.4358V43.0969H201.171C203.705 43.0969 205.2 41.6687 205.2 38.3923C205.2 34.9479 203.58 33.4358 200.506 33.4358H199.385Z" fill="#1A1A1A"/>
<path d="M216.042 29.5293H222.895V47.2134H216.042V29.5293Z" fill="#1A1A1A"/>
<path d="M233.696 38.1403V47.2134H226.842V29.5293H234.693L240.217 38.8124V29.5293H247.071V47.2134H239.137L233.696 38.1403Z" fill="#1A1A1A"/>
<path d="M268.588 46.3734C267.134 47.0874 262.689 47.4235 260.862 47.4235C255.503 47.4235 251.059 44.4411 251.059 38.3924C251.059 32.4697 255.42 29.2773 260.862 29.2773C262.482 29.2773 266.594 29.8654 267.923 30.3695V34.0239C266.885 33.8139 263.479 33.3938 262.648 33.3938C259.574 33.3938 257.954 34.948 257.954 38.3504C257.954 41.5848 259.865 43.013 262.689 43.055V38.0144H268.629V46.3734H268.588Z" fill="#1A1A1A"/>
<path d="M134.543 72.0804C133.089 72.7945 129.434 73.1305 127.606 73.1305C122.248 73.1305 117.803 70.1482 117.803 64.0995C117.803 58.1768 122.165 54.9844 127.606 54.9844C129.226 54.9844 132.84 55.2784 134.169 55.7825V59.4369C133.131 59.2269 130.182 59.1009 129.392 59.1009C126.776 59.1009 124.699 60.6551 124.699 64.0575C124.699 67.3338 126.485 68.762 129.019 68.762C130.099 68.762 133.131 68.51 134.543 68.0059V72.0804Z" fill="#1A1A1A"/>
<path d="M146.299 73.1305C140.94 73.1305 136.496 70.1482 136.496 64.0995C136.496 58.1768 140.857 54.9844 146.299 54.9844C151.865 54.9844 156.143 58.1768 156.143 64.0995C156.143 70.1062 151.574 73.1305 146.299 73.1305ZM146.299 68.636C148.957 68.636 149.289 65.9897 149.289 64.0995C149.289 62.4613 148.833 59.4789 146.299 59.4789C143.806 59.4789 143.391 62.4613 143.391 64.0995C143.349 66.0317 143.889 68.636 146.299 68.636Z" fill="#1A1A1A"/>
<path d="M177.245 65.2755L174.212 72.9624H168.812L165.739 65.1495V72.9624H158.885V55.2783H166.985L171.512 66.8297L176.04 55.2783H184.099V72.9624H177.245V65.2755Z" fill="#1A1A1A"/>
<path d="M186.799 55.2363H196.394C201.254 55.2363 203.663 56.6645 203.663 61.201C203.663 65.7796 200.922 67.4178 195.73 67.4178H193.611V72.8784H186.757V55.2363H186.799ZM193.653 58.7227V63.8473H195.023C195.688 63.7633 197.1 63.2173 197.1 61.5371C197.1 59.2688 196.27 58.8488 195.273 58.7227H193.653Z" fill="#1A1A1A"/>
<path d="M226.177 72.9204H219.324L218.036 69.56H211.182L209.936 72.9204H203.124L209.77 55.2363H219.531L226.177 72.9204ZM214.63 60.4869L212.719 65.5695H216.54L214.63 60.4869Z" fill="#1A1A1A"/>
<path d="M235.399 63.8473V72.9204H228.545V55.2363H236.396L241.92 64.5194V55.2363H248.774V72.9204H240.84L235.399 63.8473Z" fill="#1A1A1A"/>
<path d="M257.123 65.6956L251.1 55.2363H257.455L260.571 61.201L263.645 55.2363H270L263.977 65.6956V72.9204H257.123V65.6956Z" fill="#1A1A1A"/>
<path d="M123.286 85.4381V86.7823C123.286 87.3703 123.162 87.8744 122.954 88.2945C122.746 88.7145 122.414 89.0926 121.999 89.3026C121.583 89.5546 121.126 89.6806 120.586 89.6806C120.046 89.6806 119.589 89.5546 119.174 89.3446C118.759 89.1346 118.468 88.7985 118.219 88.3785C117.969 87.9584 117.886 87.4964 117.886 86.9503V84.682C117.886 84.094 118.011 83.5899 118.219 83.1699C118.426 82.7498 118.759 82.4138 119.174 82.1617C119.589 81.9097 120.046 81.7837 120.586 81.7837C121.043 81.7837 121.417 81.8677 121.791 82.0777C122.165 82.2877 122.455 82.5398 122.705 82.8758C122.954 83.2119 123.12 83.6319 123.203 84.094H122.04C121.957 83.8419 121.874 83.6319 121.708 83.4219C121.542 83.2539 121.375 83.0858 121.168 83.0018C120.96 82.9178 120.752 82.8758 120.545 82.8758C120.212 82.8758 119.963 82.9598 119.714 83.0858C119.465 83.2119 119.299 83.4639 119.174 83.7159C119.049 84.01 118.966 84.304 118.966 84.682V86.9503C118.966 87.2863 119.049 87.5804 119.174 87.8324C119.299 88.0844 119.506 88.2945 119.755 88.4205C120.005 88.5465 120.295 88.6305 120.586 88.6305C120.919 88.6305 121.168 88.5465 121.417 88.4205C121.666 88.2945 121.832 88.0844 121.957 87.7904C122.082 87.4964 122.165 87.2023 122.165 86.8243V86.4882H120.628V85.4381H123.286Z" fill="#1A1A1A"/>
<path d="M125.571 81.8257H126.651V89.5966H125.571V81.8257ZM126.028 85.2701H128.645C128.852 85.2701 129.019 85.2281 129.185 85.1021C129.351 84.9761 129.475 84.8501 129.559 84.682C129.642 84.514 129.683 84.304 129.683 84.052C129.683 83.7999 129.642 83.5899 129.559 83.4219C129.475 83.2539 129.351 83.0858 129.185 83.0018C129.019 82.9178 128.852 82.8338 128.645 82.8338H126.028V81.7837H128.603C129.06 81.7837 129.434 81.8677 129.766 82.0777C130.099 82.2457 130.348 82.5398 130.555 82.8758C130.722 83.2119 130.846 83.5899 130.846 84.052C130.846 84.514 130.763 84.8921 130.555 85.2281C130.389 85.5641 130.099 85.8162 129.766 86.0262C129.434 86.1942 129.06 86.3202 128.603 86.3202H126.028V85.2701ZM128.146 86.0682L129.226 85.8162L131.179 89.5966H129.891L128.146 86.0682Z" fill="#1A1A1A"/>
<path d="M133.131 81.8257H134.211V89.5966H133.131V81.8257ZM133.671 81.8257H138.074V82.8758H133.671V81.8257ZM133.671 85.2281H137.492V86.2782H133.671V85.2281ZM133.671 88.5465H138.074V89.5966H133.671V88.5465Z" fill="#1A1A1A"/>
<path d="M142.228 81.8257H143.142L145.966 89.5966H144.803L142.685 83.3379L140.566 89.5966H139.403L142.228 81.8257ZM140.691 86.8663H144.72V87.9164H140.691V86.8663Z" fill="#1A1A1A"/>
<path d="M146.423 81.8257H151.823V82.8758H146.423V81.8257ZM148.583 82.4978H149.663V89.5966H148.583V82.4978Z" fill="#1A1A1A"/>
<path d="M155.603 81.8257H156.683V89.5966H155.603V81.8257ZM156.226 88.5885H158.303C158.843 88.5885 159.258 88.5045 159.508 88.2945C159.757 88.0844 159.881 87.7904 159.881 87.4124C159.881 87.1603 159.84 86.9083 159.757 86.7403C159.674 86.5722 159.508 86.4042 159.341 86.3202C159.134 86.2362 158.885 86.1522 158.594 86.1522H156.268V85.1861H158.594C159.009 85.1861 159.3 85.1021 159.508 84.8921C159.715 84.724 159.798 84.43 159.798 84.052C159.798 83.6739 159.674 83.3799 159.466 83.1698C159.258 82.9598 158.885 82.8758 158.469 82.8758H156.268V81.8677H158.677C159.175 81.8677 159.591 81.9517 159.923 82.1197C160.255 82.2877 160.505 82.5398 160.671 82.8338C160.837 83.1278 160.92 83.5059 160.92 83.9679C160.92 84.22 160.878 84.472 160.754 84.724C160.671 84.9761 160.505 85.1441 160.297 85.3121C160.089 85.4801 159.84 85.6061 159.508 85.6481C159.798 85.6901 160.089 85.8162 160.297 85.9842C160.505 86.1522 160.712 86.3622 160.795 86.6563C160.878 86.9503 160.961 87.2023 160.961 87.4964C160.961 87.9164 160.878 88.2945 160.671 88.5885C160.463 88.8825 160.214 89.1346 159.881 89.3446C159.549 89.5546 159.134 89.5966 158.677 89.5966H156.185V88.5885H156.226Z" fill="#1A1A1A"/>
<path d="M164.243 89.3446C163.828 89.1345 163.537 88.7985 163.329 88.3784C163.122 87.9584 162.997 87.4123 162.997 86.8243V81.8677H164.077V86.8663C164.077 87.4123 164.202 87.8744 164.492 88.1684C164.783 88.4625 165.157 88.6305 165.697 88.6305C166.196 88.6305 166.611 88.4625 166.902 88.1684C167.193 87.8744 167.317 87.4123 167.317 86.8663V81.8677H168.397V86.8243C168.397 87.4123 168.273 87.9584 168.065 88.3784C167.857 88.7985 167.566 89.1345 167.151 89.3446C166.736 89.5546 166.279 89.6806 165.697 89.6806C165.116 89.6806 164.617 89.5546 164.243 89.3446Z" fill="#1A1A1A"/>
<path d="M171.803 89.5966H170.723V81.8257H171.803V89.5966Z" fill="#1A1A1A"/>
<path d="M174.212 81.8257H175.292V89.5966H174.212V81.8257ZM174.752 88.5465H179.155V89.5966H174.752V88.5465Z" fill="#1A1A1A"/>
<path d="M180.983 81.8257H182.063V89.5966H180.983V81.8257ZM181.69 88.5465H183.434C184.016 88.5465 184.431 88.3785 184.763 88.0844C185.096 87.7904 185.22 87.3703 185.22 86.8243V84.556C185.22 84.01 185.054 83.5899 184.763 83.2959C184.473 83.0018 184.016 82.8338 183.434 82.8338H181.69V81.7837H183.393C184.016 81.7837 184.514 81.9097 184.971 82.1197C185.428 82.3298 185.719 82.6658 185.968 83.0858C186.217 83.5059 186.3 84.0099 186.3 84.598V86.7823C186.3 87.3703 186.176 87.8744 185.968 88.2944C185.76 88.7145 185.386 89.0085 184.971 89.2606C184.514 89.4706 184.016 89.5966 183.393 89.5966H181.69V88.5465Z" fill="#1A1A1A"/>
<path d="M189.664 89.5966H188.584V81.8257H189.664V89.5966Z" fill="#1A1A1A"/>
<path d="M192.115 81.8257H193.071L196.809 87.8324L196.684 87.9584V81.8257H197.764V89.5546H196.768L193.029 83.6319L193.154 83.5059V89.5546H192.074V81.8257H192.115Z" fill="#1A1A1A"/>
<path d="M205.449 85.4381V86.7823C205.449 87.3703 205.325 87.8744 205.117 88.2945C204.909 88.7145 204.577 89.0926 204.162 89.3026C203.746 89.5546 203.289 89.6806 202.749 89.6806C202.209 89.6806 201.752 89.5546 201.337 89.3446C200.922 89.1346 200.631 88.7985 200.382 88.3785C200.132 87.9584 200.049 87.4964 200.049 86.9503V84.682C200.049 84.094 200.174 83.5899 200.382 83.1699C200.589 82.7498 200.922 82.4138 201.337 82.1617C201.752 81.9097 202.209 81.7837 202.749 81.7837C203.206 81.7837 203.58 81.8677 203.954 82.0777C204.328 82.2877 204.619 82.5398 204.868 82.8758C205.117 83.2119 205.283 83.6319 205.366 84.094H204.203C204.12 83.8419 204.037 83.6319 203.871 83.4219C203.705 83.2539 203.539 83.0858 203.331 83.0018C203.123 82.9178 202.915 82.8758 202.708 82.8758C202.375 82.8758 202.126 82.9598 201.877 83.0858C201.628 83.2119 201.462 83.4639 201.337 83.7159C201.212 84.01 201.129 84.304 201.129 84.682V86.9503C201.129 87.2863 201.212 87.5804 201.337 87.8324C201.462 88.0844 201.669 88.2945 201.919 88.4205C202.168 88.5465 202.459 88.6305 202.749 88.6305C203.082 88.6305 203.331 88.5465 203.58 88.4205C203.829 88.2945 203.995 88.0844 204.12 87.7904C204.245 87.4964 204.328 87.2023 204.328 86.8243V86.4882H202.791V85.4381H205.449Z" fill="#1A1A1A"/>
<path d="M211.846 89.6806C211.846 89.6806 211.68 89.6386 211.348 89.5546C211.015 89.4706 210.725 89.3866 210.434 89.2185C210.143 89.0925 209.894 88.8825 209.645 88.6725L210.309 87.8324C210.6 88.0844 210.932 88.2944 211.265 88.4205C211.597 88.5465 212.012 88.6305 212.428 88.6305C212.968 88.6305 213.425 88.5465 213.715 88.3364C214.006 88.1264 214.172 87.8324 214.172 87.4543C214.172 87.2023 214.089 86.9503 213.965 86.8243C213.84 86.6562 213.632 86.5302 213.425 86.4882C213.217 86.4042 212.926 86.3622 212.552 86.2782H212.511H212.469H212.386C211.888 86.1942 211.472 86.0682 211.14 85.9842C210.808 85.8581 210.558 85.6481 210.309 85.3541C210.101 85.0601 209.977 84.64 209.977 84.0939C209.977 83.6319 210.101 83.2118 210.309 82.8758C210.517 82.5398 210.849 82.2877 211.223 82.1197C211.597 81.9517 212.137 81.8677 212.677 81.8677C212.968 81.8677 213.217 81.9097 213.466 81.9517C213.715 81.9937 214.006 82.1197 214.255 82.2037C214.505 82.3297 214.754 82.4557 215.003 82.6658L214.38 83.5479C214.089 83.3378 213.798 83.1698 213.508 83.0438C213.217 82.9178 212.926 82.8758 212.635 82.8758C212.095 82.8758 211.721 83.0018 211.431 83.2118C211.14 83.4219 211.015 83.7159 211.015 84.0939C211.015 84.346 211.098 84.556 211.223 84.724C211.389 84.892 211.555 84.976 211.763 85.0601C211.971 85.1441 212.303 85.2281 212.677 85.2701H212.718H212.76H212.801H212.843C213.3 85.3541 213.674 85.4801 214.006 85.6061C214.297 85.7321 214.588 85.9422 214.795 86.2362C215.003 86.5302 215.128 86.9503 215.128 87.4543C215.128 87.9164 215.003 88.3364 214.795 88.6725C214.588 89.0085 214.255 89.2606 213.84 89.4286C213.425 89.5966 212.926 89.6806 212.303 89.6806C212.054 89.6806 211.846 89.6806 211.846 89.6806Z" fill="#1A1A1A"/>
<path d="M218.409 89.3446C217.994 89.0925 217.703 88.7565 217.454 88.3365C217.246 87.9164 217.122 87.4124 217.122 86.8243V84.64C217.122 84.052 217.246 83.5899 217.454 83.1278C217.662 82.7078 217.994 82.3718 218.409 82.1197C218.825 81.8677 219.282 81.7837 219.822 81.7837C220.362 81.7837 220.818 81.9097 221.234 82.1197C221.649 82.3718 221.94 82.7078 222.189 83.1278C222.397 83.5479 222.522 84.052 222.522 84.64V86.8243C222.522 87.4124 222.397 87.8744 222.189 88.3365C221.982 88.7565 221.649 89.0925 221.234 89.3446C220.818 89.5966 220.362 89.6806 219.822 89.6806C219.282 89.6806 218.825 89.5546 218.409 89.3446ZM220.694 88.3785C220.943 88.2524 221.109 88.0424 221.234 87.7484C221.358 87.4964 221.442 87.1603 221.442 86.8243V84.556C221.442 84.22 221.358 83.8839 221.234 83.6319C221.109 83.3799 220.902 83.1699 220.694 83.0018C220.445 82.8758 220.154 82.7918 219.863 82.7918C219.572 82.7918 219.282 82.8758 219.032 83.0018C218.783 83.1279 218.617 83.3379 218.492 83.6319C218.368 83.8839 218.285 84.22 218.285 84.556V86.8243C218.285 87.1603 218.368 87.4964 218.492 87.7484C218.617 88.0004 218.825 88.2104 219.032 88.3785C219.282 88.5045 219.572 88.5885 219.863 88.5885C220.154 88.5885 220.445 88.5465 220.694 88.3785Z" fill="#1A1A1A"/>
<path d="M224.806 81.8257H225.886V89.5966H224.806V81.8257ZM225.346 88.5465H229.749V89.5966H225.346V88.5465Z" fill="#1A1A1A"/>
<path d="M232.698 89.3446C232.283 89.1345 231.992 88.7985 231.784 88.3784C231.577 87.9584 231.452 87.4123 231.452 86.8243V81.8677H232.532V86.8663C232.532 87.4123 232.657 87.8744 232.948 88.1684C233.238 88.4625 233.612 88.6305 234.152 88.6305C234.651 88.6305 235.066 88.4625 235.357 88.1684C235.648 87.8744 235.772 87.4123 235.772 86.8663V81.8677H236.852V86.8243C236.852 87.4123 236.728 87.9584 236.52 88.3784C236.312 88.7985 236.021 89.1345 235.606 89.3446C235.191 89.5546 234.734 89.6806 234.152 89.6806C233.571 89.6806 233.072 89.5546 232.698 89.3446Z" fill="#1A1A1A"/>
<path d="M238.099 81.8257H243.499V82.8758H238.099V81.8257ZM240.259 82.4978H241.339V89.5966H240.259V82.4978Z" fill="#1A1A1A"/>
<path d="M245.991 89.5966H244.911V81.8257H245.991V89.5966Z" fill="#1A1A1A"/>
<path d="M249.522 89.3446C249.106 89.0925 248.815 88.7565 248.566 88.3365C248.359 87.9164 248.234 87.4124 248.234 86.8243V84.64C248.234 84.052 248.359 83.5899 248.566 83.1278C248.774 82.7078 249.106 82.3718 249.522 82.1197C249.937 81.8677 250.394 81.7837 250.934 81.7837C251.474 81.7837 251.931 81.9097 252.346 82.1197C252.762 82.3718 253.052 82.7078 253.302 83.1278C253.509 83.5479 253.634 84.052 253.634 84.64V86.8243C253.634 87.4124 253.509 87.8744 253.302 88.3365C253.094 88.7565 252.762 89.0925 252.346 89.3446C251.931 89.5966 251.474 89.6806 250.934 89.6806C250.394 89.6806 249.937 89.5546 249.522 89.3446ZM251.806 88.3785C252.055 88.2524 252.222 88.0424 252.346 87.7484C252.471 87.4964 252.554 87.1603 252.554 86.8243V84.556C252.554 84.22 252.471 83.8839 252.346 83.6319C252.222 83.3799 252.014 83.1699 251.806 83.0018C251.557 82.8758 251.266 82.7918 250.975 82.7918C250.685 82.7918 250.394 82.8758 250.145 83.0018C249.895 83.1279 249.729 83.3379 249.605 83.6319C249.48 83.8839 249.397 84.22 249.397 84.556V86.8243C249.397 87.1603 249.48 87.4964 249.605 87.7484C249.729 88.0004 249.937 88.2104 250.145 88.3785C250.394 88.5045 250.685 88.5885 250.975 88.5885C251.266 88.5885 251.557 88.5465 251.806 88.3785Z" fill="#1A1A1A"/>
<path d="M255.918 81.8257H256.874L260.612 87.8324L260.488 87.9584V81.8257H261.568V89.5546H260.571L256.832 83.6319L256.957 83.5059V89.5546H255.877V81.8257H255.918Z" fill="#1A1A1A"/>
<path d="M265.763 89.6806C265.763 89.6806 265.597 89.6386 265.265 89.5546C264.932 89.4706 264.642 89.3866 264.351 89.2185C264.06 89.0925 263.811 88.8825 263.562 88.6725L264.226 87.8324C264.517 88.0844 264.849 88.2944 265.182 88.4205C265.514 88.5465 265.929 88.6305 266.345 88.6305C266.885 88.6305 267.342 88.5465 267.632 88.3364C267.923 88.1264 268.089 87.8324 268.089 87.4543C268.089 87.2023 268.006 86.9503 267.882 86.8243C267.757 86.6562 267.549 86.5302 267.342 86.4882C267.134 86.4042 266.843 86.3622 266.469 86.2782H266.428H266.386H266.303C265.805 86.1942 265.389 86.0682 265.057 85.9842C264.725 85.8581 264.475 85.6481 264.226 85.3541C264.018 85.0601 263.894 84.64 263.894 84.0939C263.894 83.6319 264.018 83.2118 264.226 82.8758C264.434 82.5398 264.766 82.2877 265.14 82.1197C265.514 81.9517 266.054 81.8677 266.594 81.8677C266.885 81.8677 267.134 81.9097 267.383 81.9517C267.632 81.9937 267.923 82.1197 268.172 82.2037C268.422 82.3297 268.671 82.4557 268.92 82.6658L268.297 83.5479C268.006 83.3378 267.715 83.1698 267.425 83.0438C267.134 82.9178 266.843 82.8758 266.552 82.8758C266.012 82.8758 265.638 83.0018 265.348 83.2118C265.057 83.4219 264.932 83.7159 264.932 84.0939C264.932 84.346 265.015 84.556 265.14 84.724C265.306 84.892 265.472 84.976 265.68 85.0601C265.888 85.1441 266.22 85.2281 266.594 85.2701H266.635H266.677H266.718H266.76C267.217 85.3541 267.591 85.4801 267.923 85.6061C268.214 85.7321 268.505 85.9422 268.712 86.2362C268.92 86.5302 269.045 86.9503 269.045 87.4543C269.045 87.9164 268.92 88.3364 268.712 88.6725C268.505 89.0085 268.172 89.2606 267.757 89.4286C267.342 89.5966 266.843 89.6806 266.22 89.6806C265.971 89.6806 265.763 89.6806 265.763 89.6806Z" fill="#1A1A1A"/>
</svg>
