<svg width="360" height="478" viewBox="0 0 360 478" fill="none" xmlns="http://www.w3.org/2000/svg">
<g filter="url(#filter0_d)">
<rect x="30" y="12" width="300" height="411" fill="#FFD700"/>
<path d="M37 5L43.0622 12.5H30.9378L37 5Z" fill="#FFD700"/>
<path d="M49 5L55.0622 12.5H42.9378L49 5Z" fill="#FFD700"/>
<path d="M61 5L67.0622 12.5H54.9378L61 5Z" fill="#FFD700"/>
<path d="M73 5L79.0622 12.5H66.9378L73 5Z" fill="#FFD700"/>
<path d="M85 5L91.0622 12.5H78.9378L85 5Z" fill="#FFD700"/>
<path d="M97 5L103.062 12.5H90.9378L97 5Z" fill="#FFD700"/>
<path d="M108.5 5L114.129 12.5H102.871L108.5 5Z" fill="#FFD700"/>
<path d="M120 5L126.062 12.5H113.938L120 5Z" fill="#FFD700"/>
<path d="M132 5L138.062 12.5H125.938L132 5Z" fill="#FFD700"/>
<path d="M144 5L150.062 12.5H137.938L144 5Z" fill="#FFD700"/>
<path d="M156 5L162.062 12.5H149.938L156 5Z" fill="#FFD700"/>
<path d="M168 5L174.062 12.5H161.938L168 5Z" fill="#FFD700"/>
<path d="M180 5L186.062 12.5H173.938L180 5Z" fill="#FFD700"/>
<path d="M192 5L198.062 12.5H185.938L192 5Z" fill="#FFD700"/>
<path d="M204 5L210.062 12.5H197.938L204 5Z" fill="#FFD700"/>
<path d="M216 5L222.062 12.5H209.938L216 5Z" fill="#FFD700"/>
<path d="M228 5L234.062 12.5H221.938L228 5Z" fill="#FFD700"/>
<path d="M240 5L246.062 12.5H233.938L240 5Z" fill="#FFD700"/>
<path d="M251.5 5L257.129 12.5H245.871L251.5 5Z" fill="#FFD700"/>
<path d="M263 5L269.062 12.5H256.938L263 5Z" fill="#FFD700"/>
<path d="M275 5L281.062 12.5H268.938L275 5Z" fill="#FFD700"/>
<path d="M287 5L293.062 12.5H280.938L287 5Z" fill="#FFD700"/>
<path d="M299 5L305.062 12.5H292.938L299 5Z" fill="#FFD700"/>
<path d="M311 5L317.062 12.5H304.938L311 5Z" fill="#FFD700"/>
<path d="M323 5L329.062 12.5H316.938L323 5Z" fill="#FFD700"/>
<g filter="url(#filter1_d)">
<rect width="240" height="34" transform="translate(60 310)" fill="white"/>
<rect x="60" y="310" width="240" height="34" fill="#00A7E1"/>
<path d="M133.178 331H131.455V323.904H128.924V331H127.201V322.469H133.178V331ZM140.578 327.502C140.578 328.646 140.307 329.535 139.764 330.168C139.225 330.801 138.475 331.117 137.514 331.117C136.557 331.117 135.805 330.805 135.258 330.18C134.711 329.551 134.434 328.672 134.426 327.543V326.084C134.426 324.912 134.697 323.998 135.24 323.342C135.783 322.682 136.537 322.352 137.502 322.352C138.451 322.352 139.199 322.676 139.746 323.324C140.293 323.969 140.57 324.875 140.578 326.043V327.502ZM138.85 326.072C138.85 325.303 138.74 324.73 138.521 324.355C138.303 323.98 137.963 323.793 137.502 323.793C137.045 323.793 136.707 323.975 136.488 324.338C136.27 324.697 136.156 325.246 136.148 325.984V327.502C136.148 328.248 136.26 328.799 136.482 329.154C136.705 329.506 137.049 329.682 137.514 329.682C137.963 329.682 138.297 329.51 138.516 329.166C138.734 328.818 138.846 328.281 138.85 327.555V326.072ZM147.609 322.469V331H145.881V323.904H144.299L144.182 326.928C144.135 327.924 144.021 328.715 143.842 329.301C143.666 329.883 143.406 330.311 143.062 330.584C142.723 330.857 142.264 330.996 141.686 331H141.264V329.57L141.463 329.553C141.822 329.51 142.08 329.275 142.236 328.85C142.396 328.42 142.496 327.662 142.535 326.576L142.646 322.469H147.609ZM151.693 326.26L152.842 322.469H154.693L152.355 329.324C152.09 330.004 151.803 330.471 151.494 330.725C151.189 330.979 150.822 331.111 150.393 331.123H150.205L149.795 331.1L149.766 329.67C149.805 329.686 149.932 329.693 150.146 329.693C150.365 329.693 150.529 329.645 150.639 329.547C150.752 329.449 150.85 329.23 150.932 328.891L151.014 328.58L148.576 322.469H150.422L151.693 326.26ZM161.561 322.469V331H159.838V327.783C159.381 327.885 158.951 327.936 158.549 327.936C157.619 327.936 156.91 327.701 156.422 327.232C155.934 326.764 155.68 326.088 155.66 325.205V322.469H157.389V325.111C157.389 325.611 157.473 325.969 157.641 326.184C157.812 326.398 158.115 326.506 158.549 326.506C158.967 326.506 159.396 326.455 159.838 326.354V322.469H161.561ZM167.121 322.469H168.844V331H167.121V325.352L164.607 331H162.879V322.469H164.607V328.123L167.121 322.469ZM175.57 323.904H173.461V331H171.732V323.904H169.658V322.469H175.57V323.904ZM178.377 325.533H179.396C180.26 325.533 180.947 325.779 181.459 326.271C181.971 326.76 182.227 327.414 182.227 328.234C182.227 329.051 181.977 329.713 181.477 330.221C180.977 330.725 180.314 330.984 179.49 331H176.648V322.469H178.377V325.533ZM178.377 326.963V329.57H179.42C179.756 329.57 180.02 329.445 180.211 329.195C180.406 328.941 180.504 328.617 180.504 328.223C180.504 327.852 180.408 327.551 180.217 327.32C180.029 327.086 179.768 326.967 179.432 326.963H178.377ZM192.006 331H190.283V323.904H187.752V331H186.029V322.469H192.006V331ZM195.123 328V331H193.4V322.469H196.307C197.15 322.469 197.822 322.73 198.322 323.254C198.826 323.777 199.078 324.457 199.078 325.293C199.078 326.129 198.83 326.789 198.334 327.273C197.838 327.758 197.15 328 196.271 328H195.123ZM195.123 326.564H196.307C196.635 326.564 196.889 326.457 197.068 326.242C197.248 326.027 197.338 325.715 197.338 325.305C197.338 324.879 197.246 324.541 197.062 324.291C196.879 324.037 196.633 323.908 196.324 323.904H195.123V326.564ZM206.238 327.502C206.238 328.646 205.967 329.535 205.424 330.168C204.885 330.801 204.135 331.117 203.174 331.117C202.217 331.117 201.465 330.805 200.918 330.18C200.371 329.551 200.094 328.672 200.086 327.543V326.084C200.086 324.912 200.357 323.998 200.9 323.342C201.443 322.682 202.197 322.352 203.162 322.352C204.111 322.352 204.859 322.676 205.406 323.324C205.953 323.969 206.23 324.875 206.238 326.043V327.502ZM204.51 326.072C204.51 325.303 204.4 324.73 204.182 324.355C203.963 323.98 203.623 323.793 203.162 323.793C202.705 323.793 202.367 323.975 202.148 324.338C201.93 324.697 201.816 325.246 201.809 325.984V327.502C201.809 328.248 201.92 328.799 202.143 329.154C202.365 329.506 202.709 329.682 203.174 329.682C203.623 329.682 203.957 329.51 204.176 329.166C204.395 328.818 204.506 328.281 204.51 327.555V326.072ZM213.258 328.158C213.215 329.131 212.941 329.867 212.438 330.367C211.934 330.867 211.223 331.117 210.305 331.117C209.34 331.117 208.6 330.801 208.084 330.168C207.572 329.531 207.316 328.625 207.316 327.449V326.014C207.316 324.842 207.582 323.939 208.113 323.307C208.645 322.67 209.383 322.352 210.328 322.352C211.258 322.352 211.963 322.611 212.443 323.131C212.928 323.65 213.203 324.396 213.27 325.369H211.541C211.525 324.768 211.432 324.354 211.26 324.127C211.092 323.896 210.781 323.781 210.328 323.781C209.867 323.781 209.541 323.943 209.35 324.268C209.158 324.588 209.057 325.117 209.045 325.855V327.467C209.045 328.314 209.139 328.896 209.326 329.213C209.518 329.529 209.844 329.688 210.305 329.688C210.758 329.688 211.07 329.578 211.242 329.359C211.414 329.137 211.512 328.736 211.535 328.158H213.258ZM220.271 322.469V331H218.549V327.783C218.092 327.885 217.662 327.936 217.26 327.936C216.33 327.936 215.621 327.701 215.133 327.232C214.645 326.764 214.391 326.088 214.371 325.205V322.469H216.1V325.111C216.1 325.611 216.184 325.969 216.352 326.184C216.523 326.398 216.826 326.506 217.26 326.506C217.678 326.506 218.107 326.455 218.549 326.354V322.469H220.271ZM226.061 327.309H223.377V329.57H226.553V331H221.654V322.469H226.541V323.904H223.377V325.92H226.061V327.309ZM233.191 323.904H231.082V331H229.354V323.904H227.279V322.469H233.191V323.904Z" fill="white"/>
</g>
<path d="M61.5276 60.848C61.5276 61.6587 61.6876 62.2347 62.0076 62.576C62.349 62.896 62.797 63.056 63.3516 63.056C63.9063 63.056 64.3436 62.896 64.6636 62.576C65.005 62.2347 65.1756 61.6587 65.1756 60.848V48.752C65.1756 47.9413 65.005 47.376 64.6636 47.056C64.3436 46.7147 63.9063 46.544 63.3516 46.544C62.797 46.544 62.349 46.7147 62.0076 47.056C61.6876 47.376 61.5276 47.9413 61.5276 48.752V60.848ZM58.0076 48.976C58.0076 47.1627 58.4663 45.776 59.3836 44.816C60.301 43.8347 61.6236 43.344 63.3516 43.344C65.0796 43.344 66.4023 43.8347 67.3196 44.816C68.237 45.776 68.6956 47.1627 68.6956 48.976V60.624C68.6956 62.4373 68.237 63.8347 67.3196 64.816C66.4023 65.776 65.0796 66.256 63.3516 66.256C61.6236 66.256 60.301 65.776 59.3836 64.816C58.4663 63.8347 58.0076 62.4373 58.0076 60.624V48.976ZM74.5031 66H70.9831V43.6H82.0871V66H78.5031V46.8H74.5031V66ZM88.2554 66H84.6394V43.6H87.7754V57.776L89.0554 52.848L91.9354 43.6H95.8074V66H92.6394V50.224L91.1994 55.728L88.2554 66ZM98.2956 66V43.6H101.816V62.8H104.856V43.6H108.376V62.8H111.416V43.6H114.936V66H98.2956ZM121.099 66H117.483V43.6H120.619V57.776L121.899 52.848L124.779 43.6H128.651V66H125.483V50.224L124.043 55.728L121.099 66ZM130.115 43.6H140.995V46.8H137.315V66H133.795V46.8H130.115V43.6ZM146.066 53.04H150.898V56.24H146.066V62.8H152.146V66H142.546V43.6H152.146V46.8H146.066V53.04ZM164.608 43.6C166.442 43.6 167.765 44.0267 168.576 44.88C169.408 45.7333 169.824 47.024 169.824 48.752V49.552C169.824 50.704 169.642 51.6533 169.28 52.4C168.917 53.1467 168.341 53.7013 167.552 54.064C168.512 54.4267 169.184 55.024 169.568 55.856C169.973 56.6667 170.176 57.6693 170.176 58.864V60.688C170.176 62.416 169.728 63.7387 168.832 64.656C167.936 65.552 166.602 66 164.832 66H159.296V43.6H164.608ZM162.816 55.92V62.8H164.832C165.429 62.8 165.877 62.64 166.176 62.32C166.496 62 166.656 61.424 166.656 60.592V58.64C166.656 57.5947 166.474 56.88 166.112 56.496C165.77 56.112 165.194 55.92 164.384 55.92H162.816ZM162.816 46.8V52.72H164.192C164.853 52.72 165.365 52.5493 165.728 52.208C166.112 51.8667 166.304 51.248 166.304 50.352V49.104C166.304 48.2933 166.154 47.7067 165.856 47.344C165.578 46.9813 165.13 46.8 164.512 46.8H162.816ZM183.688 66H180.136L179.528 61.936H175.208L174.6 66H171.368L174.952 43.6H180.104L183.688 66ZM175.656 58.896H179.048L177.352 47.568L175.656 58.896ZM185.327 66V43.6H188.847V62.8H191.887V43.6H195.407V62.8H198.447V43.6H201.967V66H185.327ZM212.322 60.304C212.109 61.3067 211.842 62.192 211.522 62.96C211.224 63.7067 210.808 64.3253 210.274 64.816C209.762 65.2853 209.09 65.6267 208.258 65.84C207.448 66.0533 206.434 66.1173 205.218 66.032V62.896C206.114 62.96 206.818 62.8747 207.33 62.64C207.842 62.4053 208.173 61.8827 208.322 61.072L208.354 60.88L203.49 43.6H206.978L208.898 51.248L209.986 56.496L210.818 51.28L212.418 43.6H216.098L212.322 60.304ZM229.33 49.104C229.33 48.1013 229.159 47.4293 228.818 47.088C228.498 46.7253 228.06 46.544 227.506 46.544C226.951 46.544 226.503 46.7147 226.162 47.056C225.82 47.376 225.65 47.9413 225.65 48.752V50.576H222.418V48.912C222.418 47.0987 222.844 45.7227 223.698 44.784C224.572 43.824 225.874 43.344 227.602 43.344C229.33 43.344 230.631 43.8347 231.506 44.816C232.402 45.776 232.85 47.1627 232.85 48.976V49.552C232.85 51.9413 232.028 53.4773 230.386 54.16C231.282 54.544 231.911 55.1413 232.274 55.952C232.658 56.7413 232.85 57.712 232.85 58.864V60.624C232.85 62.4373 232.402 63.8347 231.506 64.816C230.631 65.776 229.33 66.256 227.602 66.256C225.874 66.256 224.562 65.776 223.666 64.816C222.791 63.8347 222.354 62.4373 222.354 60.624V58.16H225.682V60.848C225.682 61.6587 225.842 62.2347 226.162 62.576C226.503 62.896 226.951 63.056 227.506 63.056C228.06 63.056 228.498 62.8853 228.818 62.544C229.159 62.2027 229.33 61.5307 229.33 60.528V58.768C229.33 57.7227 229.148 56.9867 228.786 56.56C228.423 56.1333 227.836 55.92 227.026 55.92H226.162V52.72H227.218C227.879 52.72 228.391 52.5493 228.754 52.208C229.138 51.8667 229.33 51.248 229.33 50.352V49.104ZM246.625 66H243.073L242.465 61.936H238.145L237.537 66H234.305L237.889 43.6H243.041L246.625 66ZM238.593 58.896H241.985L240.289 47.568L238.593 58.896ZM258.44 69.008V66H250.92V69.008H247.496V62.864H248.872C249.171 62.48 249.374 62.064 249.48 61.616C249.608 61.168 249.694 60.6133 249.736 59.952L250.536 43.6H260.392V62.864H261.928V69.008H258.44ZM253.192 59.888C253.15 60.7413 253.043 61.3813 252.872 61.808C252.723 62.2347 252.499 62.5867 252.2 62.864H256.808V46.8H253.832L253.192 59.888ZM275.281 66H271.729L271.121 61.936H266.801L266.193 66H262.961L266.545 43.6H271.697L275.281 66ZM267.249 58.896H270.641L268.945 47.568L267.249 58.896ZM287.609 43.6V66H284.089V56.976C283.705 57.4027 283.225 57.7227 282.649 57.936C282.094 58.128 281.571 58.224 281.081 58.224C279.63 58.224 278.531 57.7547 277.785 56.816C277.059 55.856 276.697 54.608 276.697 53.072V43.6H280.217V52.784C280.217 53.5307 280.419 54.0853 280.825 54.448C281.23 54.8107 281.71 54.992 282.265 54.992C282.819 54.992 283.257 54.8 283.577 54.416C283.918 54.0107 284.089 53.4347 284.089 52.688V43.6H287.609ZM298.01 60.304C297.797 61.3067 297.53 62.192 297.21 62.96C296.911 63.7067 296.495 64.3253 295.962 64.816C295.45 65.2853 294.778 65.6267 293.946 65.84C293.135 66.0533 292.122 66.1173 290.906 66.032V62.896C291.802 62.96 292.506 62.8747 293.018 62.64C293.53 62.4053 293.861 61.8827 294.01 61.072L294.042 60.88L289.178 43.6H292.666L294.586 51.248L295.674 56.496L296.506 51.28L298.106 43.6H301.786L298.01 60.304Z" fill="#1A1A1A"/>
<path d="M73.0381 85.6035H73.7969V93H73.0381V86.9502L69.7773 93H69.0186V85.6035H69.7773V91.6602L73.0381 85.6035ZM83.8594 93H83.1006V86.3213H79.8467V93H79.0811V85.6035H83.8594V93ZM85.6572 88.9258C85.6572 88.3652 85.7233 87.8708 85.8555 87.4424C85.9876 87.014 86.1722 86.654 86.4092 86.3623C86.6462 86.0661 86.9287 85.8428 87.2568 85.6924C87.5895 85.542 87.9564 85.4668 88.3574 85.4668C88.763 85.4668 89.1322 85.542 89.4648 85.6924C89.7975 85.8428 90.0824 86.0661 90.3193 86.3623C90.5563 86.654 90.7386 87.014 90.8662 87.4424C90.9984 87.8708 91.0645 88.3652 91.0645 88.9258V89.6914C91.0645 90.252 90.9984 90.7464 90.8662 91.1748C90.7386 91.6032 90.5563 91.9632 90.3193 92.2549C90.0824 92.542 89.7975 92.7607 89.4648 92.9111C89.1367 93.0615 88.7721 93.1367 88.3711 93.1367C87.9655 93.1367 87.5964 93.0615 87.2637 92.9111C86.931 92.7607 86.6462 92.542 86.4092 92.2549C86.1722 91.9632 85.9876 91.6032 85.8555 91.1748C85.7233 90.7464 85.6572 90.252 85.6572 89.6914V88.9258ZM86.4229 89.6914C86.4229 90.1152 86.4661 90.4958 86.5527 90.833C86.6393 91.1702 86.7646 91.4574 86.9287 91.6943C87.0973 91.9313 87.3024 92.1136 87.5439 92.2412C87.7855 92.3688 88.0612 92.4326 88.3711 92.4326C88.6992 92.4326 88.984 92.3688 89.2256 92.2412C89.4671 92.1136 89.6676 91.9313 89.8271 91.6943C89.9867 91.4574 90.1051 91.1702 90.1826 90.833C90.2646 90.4958 90.3057 90.1152 90.3057 89.6914V88.9258C90.3057 88.5111 90.2624 88.1351 90.1758 87.7979C90.0892 87.4561 89.9616 87.1667 89.793 86.9297C89.6289 86.6882 89.4261 86.5036 89.1846 86.376C88.943 86.2438 88.6673 86.1777 88.3574 86.1777C88.0521 86.1777 87.7786 86.2438 87.5371 86.376C87.3001 86.5036 87.0973 86.6882 86.9287 86.9297C86.7646 87.1667 86.6393 87.4561 86.5527 87.7979C86.4661 88.1351 86.4229 88.5111 86.4229 88.9258V89.6914ZM97.5518 85.6035V93H96.793V86.3213H94.332L94.25 88.8643C94.2227 89.5752 94.1725 90.1904 94.0996 90.71C94.0312 91.2295 93.9242 91.6602 93.7783 92.002C93.637 92.3392 93.4502 92.5898 93.2178 92.7539C92.9854 92.918 92.6914 93 92.3359 93H92.0762L92.0898 92.248H92.3018C92.5068 92.248 92.68 92.1911 92.8213 92.0771C92.9626 91.9632 93.0788 91.7764 93.1699 91.5166C93.2611 91.2523 93.3294 90.9036 93.375 90.4707C93.4251 90.0378 93.4616 89.5023 93.4844 88.8643L93.6006 85.6035H97.5518ZM101.612 91.749L103.376 85.6035H104.189L101.585 94.1826C101.53 94.3512 101.462 94.5404 101.38 94.75C101.298 94.9596 101.188 95.1556 101.052 95.3379C100.915 95.5202 100.746 95.6729 100.546 95.7959C100.35 95.9235 100.111 95.9873 99.8281 95.9873C99.7871 95.9873 99.7415 95.9827 99.6914 95.9736C99.6413 95.9691 99.5889 95.9622 99.5342 95.9531C99.484 95.944 99.4362 95.9326 99.3906 95.9189C99.3451 95.9098 99.3086 95.9007 99.2812 95.8916L99.2744 95.1943C99.32 95.208 99.3792 95.2194 99.4521 95.2285C99.5296 95.2376 99.5866 95.2422 99.623 95.2422C99.8053 95.2422 99.9648 95.2126 100.102 95.1533C100.243 95.0986 100.366 95.0143 100.471 94.9004C100.58 94.791 100.676 94.652 100.758 94.4834C100.84 94.3193 100.913 94.1279 100.977 93.9092L101.264 92.9521L98.9395 85.6035H99.7734L101.612 91.749ZM109.986 93H109.221V89.9238C108.984 90.0241 108.731 90.1061 108.462 90.1699C108.193 90.2337 107.917 90.2656 107.635 90.2656C107.252 90.2656 106.912 90.2178 106.616 90.1221C106.325 90.0264 106.076 89.8691 105.871 89.6504C105.671 89.4316 105.518 89.1445 105.413 88.7891C105.308 88.4336 105.256 87.9984 105.256 87.4834V85.6035H106.015V87.4834C106.015 87.8753 106.047 88.2057 106.11 88.4746C106.179 88.7389 106.279 88.9508 106.411 89.1104C106.548 89.2699 106.716 89.3838 106.917 89.4521C107.122 89.5205 107.361 89.5547 107.635 89.5547C107.922 89.5456 108.2 89.5091 108.469 89.4453C108.738 89.3815 108.988 89.304 109.221 89.2129V85.6035H109.986V93ZM116.146 85.6035H116.904V93H116.146V86.9502L112.885 93H112.126V85.6035H112.885V91.6602L116.146 85.6035ZM123.48 86.3145H121.252V93H120.493V86.3145H118.347V85.6035H123.48V86.3145ZM126.762 93.1367C126.352 93.1367 125.976 93.0706 125.634 92.9385C125.292 92.8018 124.996 92.5967 124.745 92.3232C124.499 92.0452 124.308 91.6966 124.171 91.2773C124.034 90.8581 123.966 90.3613 123.966 89.7871V88.9463C123.966 88.3265 124.039 87.7979 124.185 87.3604C124.33 86.9183 124.524 86.5583 124.766 86.2803C125.012 85.9977 125.294 85.7926 125.613 85.665C125.937 85.5329 126.276 85.4668 126.632 85.4668C127.443 85.4668 128.058 85.7357 128.478 86.2734C128.901 86.8066 129.113 87.6247 129.113 88.7275V89.3701H124.718V89.7871C124.718 90.2383 124.768 90.6302 124.868 90.9629C124.968 91.2956 125.11 91.5713 125.292 91.79C125.474 92.0088 125.693 92.1729 125.948 92.2822C126.203 92.387 126.486 92.4395 126.796 92.4395C127.179 92.4395 127.511 92.3757 127.794 92.248C128.076 92.1159 128.334 91.9131 128.566 91.6396L128.963 92.1455C128.863 92.2822 128.744 92.4098 128.607 92.5283C128.475 92.6468 128.318 92.7516 128.136 92.8428C127.958 92.9339 127.755 93.0046 127.527 93.0547C127.299 93.1094 127.044 93.1367 126.762 93.1367ZM126.632 86.1777C126.363 86.1777 126.115 86.2233 125.887 86.3145C125.663 86.4056 125.467 86.5514 125.299 86.752C125.135 86.9479 125.003 87.2031 124.902 87.5176C124.802 87.832 124.743 88.2126 124.725 88.6592H128.354V88.4609C128.345 88.1009 128.304 87.7796 128.231 87.4971C128.159 87.2145 128.051 86.9753 127.91 86.7793C127.773 86.5833 127.598 86.4352 127.384 86.335C127.17 86.2301 126.919 86.1777 126.632 86.1777ZM138.711 93H137.952V86.3213H134.698V93H133.933V85.6035H138.711V93ZM145.841 89.6504C145.841 90.2474 145.786 90.7646 145.677 91.2021C145.572 91.6396 145.419 92.002 145.219 92.2891C145.018 92.5762 144.77 92.7904 144.474 92.9316C144.177 93.0684 143.842 93.1367 143.469 93.1367C143.022 93.1367 142.639 93.0479 142.32 92.8701C142.006 92.6878 141.748 92.4349 141.548 92.1113V95.8438H140.796V85.6035H141.493L141.527 86.6152C141.732 86.2552 141.992 85.9749 142.307 85.7744C142.621 85.5693 143.002 85.4668 143.448 85.4668C143.831 85.4668 144.171 85.5329 144.467 85.665C144.763 85.7972 145.014 86.0046 145.219 86.2871C145.424 86.5697 145.579 86.932 145.684 87.374C145.788 87.8115 145.841 88.3402 145.841 88.96V89.6504ZM145.082 88.96C145.082 88.012 144.934 87.3148 144.638 86.8682C144.346 86.4215 143.888 86.1982 143.264 86.1982C143.031 86.1982 142.822 86.2324 142.635 86.3008C142.452 86.3646 142.291 86.4535 142.149 86.5674C142.013 86.6813 141.894 86.8112 141.794 86.957C141.698 87.1029 141.616 87.2578 141.548 87.4219V91.3184C141.621 91.4779 141.71 91.626 141.814 91.7627C141.924 91.8994 142.049 92.0179 142.19 92.1182C142.332 92.2184 142.491 92.2959 142.669 92.3506C142.851 92.4053 143.054 92.4326 143.277 92.4326C143.893 92.4326 144.346 92.207 144.638 91.7559C144.934 91.3001 145.082 90.5983 145.082 89.6504V88.96ZM147.317 88.9258C147.317 88.3652 147.383 87.8708 147.516 87.4424C147.648 87.014 147.832 86.654 148.069 86.3623C148.306 86.0661 148.589 85.8428 148.917 85.6924C149.25 85.542 149.617 85.4668 150.018 85.4668C150.423 85.4668 150.792 85.542 151.125 85.6924C151.458 85.8428 151.743 86.0661 151.979 86.3623C152.216 86.654 152.399 87.014 152.526 87.4424C152.659 87.8708 152.725 88.3652 152.725 88.9258V89.6914C152.725 90.252 152.659 90.7464 152.526 91.1748C152.399 91.6032 152.216 91.9632 151.979 92.2549C151.743 92.542 151.458 92.7607 151.125 92.9111C150.797 93.0615 150.432 93.1367 150.031 93.1367C149.626 93.1367 149.257 93.0615 148.924 92.9111C148.591 92.7607 148.306 92.542 148.069 92.2549C147.832 91.9632 147.648 91.6032 147.516 91.1748C147.383 90.7464 147.317 90.252 147.317 89.6914V88.9258ZM148.083 89.6914C148.083 90.1152 148.126 90.4958 148.213 90.833C148.299 91.1702 148.425 91.4574 148.589 91.6943C148.757 91.9313 148.963 92.1136 149.204 92.2412C149.446 92.3688 149.721 92.4326 150.031 92.4326C150.359 92.4326 150.644 92.3688 150.886 92.2412C151.127 92.1136 151.328 91.9313 151.487 91.6943C151.647 91.4574 151.765 91.1702 151.843 90.833C151.925 90.4958 151.966 90.1152 151.966 89.6914V88.9258C151.966 88.5111 151.923 88.1351 151.836 87.7979C151.749 87.4561 151.622 87.1667 151.453 86.9297C151.289 86.6882 151.086 86.5036 150.845 86.376C150.603 86.2438 150.327 86.1777 150.018 86.1777C149.712 86.1777 149.439 86.2438 149.197 86.376C148.96 86.5036 148.757 86.6882 148.589 86.9297C148.425 87.1667 148.299 87.4561 148.213 87.7979C148.126 88.1351 148.083 88.5111 148.083 88.9258V89.6914ZM156.819 92.4326C157.029 92.4326 157.232 92.4053 157.428 92.3506C157.624 92.2959 157.797 92.2025 157.947 92.0703C158.102 91.9382 158.228 91.7627 158.323 91.5439C158.424 91.3206 158.48 91.0426 158.494 90.71H159.226C159.207 91.1064 159.132 91.4574 159 91.7627C158.868 92.0635 158.692 92.3164 158.474 92.5215C158.255 92.722 158.004 92.8747 157.722 92.9795C157.439 93.0843 157.138 93.1367 156.819 93.1367C155.931 93.1367 155.261 92.8496 154.81 92.2754C154.363 91.7012 154.14 90.849 154.14 89.7188V88.8848C154.14 87.7546 154.363 86.9023 154.81 86.3281C155.261 85.7539 155.928 85.4668 156.812 85.4668C157.15 85.4668 157.462 85.5215 157.749 85.6309C158.041 85.7357 158.291 85.8975 158.501 86.1162C158.715 86.3304 158.886 86.6038 159.014 86.9365C159.141 87.2646 159.212 87.652 159.226 88.0986H158.494C158.48 87.7568 158.428 87.4652 158.337 87.2236C158.246 86.9775 158.125 86.777 157.975 86.6221C157.829 86.4671 157.656 86.3555 157.455 86.2871C157.259 86.2142 157.045 86.1777 156.812 86.1777C156.462 86.1777 156.165 86.2393 155.924 86.3623C155.682 86.4808 155.486 86.6562 155.336 86.8887C155.186 87.1211 155.076 87.4059 155.008 87.7432C154.939 88.0758 154.905 88.4564 154.905 88.8848V89.7188C154.905 90.1517 154.937 90.5368 155.001 90.874C155.069 91.2113 155.179 91.4961 155.329 91.7285C155.479 91.9564 155.675 92.1318 155.917 92.2549C156.163 92.3734 156.464 92.4326 156.819 92.4326ZM165.316 93H164.551V89.9238C164.314 90.0241 164.061 90.1061 163.792 90.1699C163.523 90.2337 163.247 90.2656 162.965 90.2656C162.582 90.2656 162.243 90.2178 161.946 90.1221C161.655 90.0264 161.406 89.8691 161.201 89.6504C161.001 89.4316 160.848 89.1445 160.743 88.7891C160.638 88.4336 160.586 87.9984 160.586 87.4834V85.6035H161.345V87.4834C161.345 87.8753 161.377 88.2057 161.44 88.4746C161.509 88.7389 161.609 88.9508 161.741 89.1104C161.878 89.2699 162.047 89.3838 162.247 89.4521C162.452 89.5205 162.691 89.5547 162.965 89.5547C163.252 89.5456 163.53 89.5091 163.799 89.4453C164.068 89.3815 164.318 89.304 164.551 89.2129V85.6035H165.316V93ZM169.842 93.1367C169.432 93.1367 169.056 93.0706 168.714 92.9385C168.372 92.8018 168.076 92.5967 167.825 92.3232C167.579 92.0452 167.388 91.6966 167.251 91.2773C167.114 90.8581 167.046 90.3613 167.046 89.7871V88.9463C167.046 88.3265 167.119 87.7979 167.265 87.3604C167.41 86.9183 167.604 86.5583 167.846 86.2803C168.092 85.9977 168.374 85.7926 168.693 85.665C169.017 85.5329 169.356 85.4668 169.712 85.4668C170.523 85.4668 171.138 85.7357 171.558 86.2734C171.981 86.8066 172.193 87.6247 172.193 88.7275V89.3701H167.798V89.7871C167.798 90.2383 167.848 90.6302 167.948 90.9629C168.049 91.2956 168.19 91.5713 168.372 91.79C168.554 92.0088 168.773 92.1729 169.028 92.2822C169.284 92.387 169.566 92.4395 169.876 92.4395C170.259 92.4395 170.591 92.3757 170.874 92.248C171.157 92.1159 171.414 91.9131 171.646 91.6396L172.043 92.1455C171.943 92.2822 171.824 92.4098 171.688 92.5283C171.555 92.6468 171.398 92.7516 171.216 92.8428C171.038 92.9339 170.835 93.0046 170.607 93.0547C170.38 93.1094 170.124 93.1367 169.842 93.1367ZM169.712 86.1777C169.443 86.1777 169.195 86.2233 168.967 86.3145C168.743 86.4056 168.548 86.5514 168.379 86.752C168.215 86.9479 168.083 87.2031 167.982 87.5176C167.882 87.832 167.823 88.2126 167.805 88.6592H171.435V88.4609C171.425 88.1009 171.384 87.7796 171.312 87.4971C171.239 87.2145 171.132 86.9753 170.99 86.7793C170.854 86.5833 170.678 86.4352 170.464 86.335C170.25 86.2301 169.999 86.1777 169.712 86.1777ZM178.223 86.3145H175.994V93H175.235V86.3145H173.089V85.6035H178.223V86.3145ZM185.093 92.4326C185.302 92.4326 185.505 92.4053 185.701 92.3506C185.897 92.2959 186.07 92.2025 186.221 92.0703C186.376 91.9382 186.501 91.7627 186.597 91.5439C186.697 91.3206 186.754 91.0426 186.768 90.71H187.499C187.481 91.1064 187.406 91.4574 187.273 91.7627C187.141 92.0635 186.966 92.3164 186.747 92.5215C186.528 92.722 186.278 92.8747 185.995 92.9795C185.713 93.0843 185.412 93.1367 185.093 93.1367C184.204 93.1367 183.534 92.8496 183.083 92.2754C182.636 91.7012 182.413 90.849 182.413 89.7188V88.8848C182.413 87.7546 182.636 86.9023 183.083 86.3281C183.534 85.7539 184.202 85.4668 185.086 85.4668C185.423 85.4668 185.735 85.5215 186.022 85.6309C186.314 85.7357 186.565 85.8975 186.774 86.1162C186.989 86.3304 187.16 86.6038 187.287 86.9365C187.415 87.2646 187.485 87.652 187.499 88.0986H186.768C186.754 87.7568 186.701 87.4652 186.61 87.2236C186.519 86.9775 186.398 86.777 186.248 86.6221C186.102 86.4671 185.929 86.3555 185.729 86.2871C185.533 86.2142 185.318 86.1777 185.086 86.1777C184.735 86.1777 184.439 86.2393 184.197 86.3623C183.956 86.4808 183.76 86.6562 183.609 86.8887C183.459 87.1211 183.35 87.4059 183.281 87.7432C183.213 88.0758 183.179 88.4564 183.179 88.8848V89.7188C183.179 90.1517 183.211 90.5368 183.274 90.874C183.343 91.2113 183.452 91.4961 183.603 91.7285C183.753 91.9564 183.949 92.1318 184.19 92.2549C184.437 92.3734 184.737 92.4326 185.093 92.4326ZM193.604 86.3145H191.375V93H190.616V86.3145H188.47V85.6035H193.604V86.3145ZM194.417 88.9258C194.417 88.3652 194.483 87.8708 194.615 87.4424C194.747 87.014 194.932 86.654 195.169 86.3623C195.406 86.0661 195.688 85.8428 196.017 85.6924C196.349 85.542 196.716 85.4668 197.117 85.4668C197.523 85.4668 197.892 85.542 198.225 85.6924C198.557 85.8428 198.842 86.0661 199.079 86.3623C199.316 86.654 199.498 87.014 199.626 87.4424C199.758 87.8708 199.824 88.3652 199.824 88.9258V89.6914C199.824 90.252 199.758 90.7464 199.626 91.1748C199.498 91.6032 199.316 91.9632 199.079 92.2549C198.842 92.542 198.557 92.7607 198.225 92.9111C197.896 93.0615 197.532 93.1367 197.131 93.1367C196.725 93.1367 196.356 93.0615 196.023 92.9111C195.691 92.7607 195.406 92.542 195.169 92.2549C194.932 91.9632 194.747 91.6032 194.615 91.1748C194.483 90.7464 194.417 90.252 194.417 89.6914V88.9258ZM195.183 89.6914C195.183 90.1152 195.226 90.4958 195.312 90.833C195.399 91.1702 195.524 91.4574 195.688 91.6943C195.857 91.9313 196.062 92.1136 196.304 92.2412C196.545 92.3688 196.821 92.4326 197.131 92.4326C197.459 92.4326 197.744 92.3688 197.985 92.2412C198.227 92.1136 198.427 91.9313 198.587 91.6943C198.746 91.4574 198.865 91.1702 198.942 90.833C199.024 90.4958 199.065 90.1152 199.065 89.6914V88.9258C199.065 88.5111 199.022 88.1351 198.936 87.7979C198.849 87.4561 198.721 87.1667 198.553 86.9297C198.389 86.6882 198.186 86.5036 197.944 86.376C197.703 86.2438 197.427 86.1777 197.117 86.1777C196.812 86.1777 196.538 86.2438 196.297 86.376C196.06 86.5036 195.857 86.6882 195.688 86.9297C195.524 87.1667 195.399 87.4561 195.312 87.7979C195.226 88.1351 195.183 88.5111 195.183 88.9258V89.6914ZM205.655 85.6035H206.414V93H205.655V86.9502L202.395 93H201.636V85.6035H202.395V91.6602L205.655 85.6035ZM211.965 91.8721L214.371 85.6035H215.308V93H214.549V87.0596L212.231 93H211.698L209.333 86.9092V93H208.581V85.6035H209.572L211.965 91.8721ZM217.112 88.9258C217.112 88.3652 217.178 87.8708 217.311 87.4424C217.443 87.014 217.627 86.654 217.864 86.3623C218.101 86.0661 218.384 85.8428 218.712 85.6924C219.045 85.542 219.411 85.4668 219.812 85.4668C220.218 85.4668 220.587 85.542 220.92 85.6924C221.253 85.8428 221.537 86.0661 221.774 86.3623C222.011 86.654 222.194 87.014 222.321 87.4424C222.453 87.8708 222.52 88.3652 222.52 88.9258V89.6914C222.52 90.252 222.453 90.7464 222.321 91.1748C222.194 91.6032 222.011 91.9632 221.774 92.2549C221.537 92.542 221.253 92.7607 220.92 92.9111C220.592 93.0615 220.227 93.1367 219.826 93.1367C219.421 93.1367 219.051 93.0615 218.719 92.9111C218.386 92.7607 218.101 92.542 217.864 92.2549C217.627 91.9632 217.443 91.6032 217.311 91.1748C217.178 90.7464 217.112 90.252 217.112 89.6914V88.9258ZM217.878 89.6914C217.878 90.1152 217.921 90.4958 218.008 90.833C218.094 91.1702 218.22 91.4574 218.384 91.6943C218.552 91.9313 218.757 92.1136 218.999 92.2412C219.241 92.3688 219.516 92.4326 219.826 92.4326C220.154 92.4326 220.439 92.3688 220.681 92.2412C220.922 92.1136 221.123 91.9313 221.282 91.6943C221.442 91.4574 221.56 91.1702 221.638 90.833C221.72 90.4958 221.761 90.1152 221.761 89.6914V88.9258C221.761 88.5111 221.717 88.1351 221.631 87.7979C221.544 87.4561 221.417 87.1667 221.248 86.9297C221.084 86.6882 220.881 86.5036 220.64 86.376C220.398 86.2438 220.122 86.1777 219.812 86.1777C219.507 86.1777 219.234 86.2438 218.992 86.376C218.755 86.5036 218.552 86.6882 218.384 86.9297C218.22 87.1667 218.094 87.4561 218.008 87.7979C217.921 88.1351 217.878 88.5111 217.878 88.9258V89.6914ZM226.614 92.4326C226.824 92.4326 227.027 92.4053 227.223 92.3506C227.419 92.2959 227.592 92.2025 227.742 92.0703C227.897 91.9382 228.022 91.7627 228.118 91.5439C228.218 91.3206 228.275 91.0426 228.289 90.71H229.021C229.002 91.1064 228.927 91.4574 228.795 91.7627C228.663 92.0635 228.487 92.3164 228.269 92.5215C228.05 92.722 227.799 92.8747 227.517 92.9795C227.234 93.0843 226.933 93.1367 226.614 93.1367C225.726 93.1367 225.056 92.8496 224.604 92.2754C224.158 91.7012 223.935 90.849 223.935 89.7188V88.8848C223.935 87.7546 224.158 86.9023 224.604 86.3281C225.056 85.7539 225.723 85.4668 226.607 85.4668C226.945 85.4668 227.257 85.5215 227.544 85.6309C227.836 85.7357 228.086 85.8975 228.296 86.1162C228.51 86.3304 228.681 86.6038 228.809 86.9365C228.936 87.2646 229.007 87.652 229.021 88.0986H228.289C228.275 87.7568 228.223 87.4652 228.132 87.2236C228.041 86.9775 227.92 86.777 227.77 86.6221C227.624 86.4671 227.451 86.3555 227.25 86.2871C227.054 86.2142 226.84 86.1777 226.607 86.1777C226.257 86.1777 225.96 86.2393 225.719 86.3623C225.477 86.4808 225.281 86.6562 225.131 86.8887C224.98 87.1211 224.871 87.4059 224.803 87.7432C224.734 88.0758 224.7 88.4564 224.7 88.8848V89.7188C224.7 90.1517 224.732 90.5368 224.796 90.874C224.864 91.2113 224.974 91.4961 225.124 91.7285C225.274 91.9564 225.47 92.1318 225.712 92.2549C225.958 92.3734 226.259 92.4326 226.614 92.4326ZM235.125 86.3145H232.896V93H232.138V86.3145H229.991V85.6035H235.125V86.3145ZM240.587 85.6035H241.346V93H240.587V86.9502L237.326 93H236.567V85.6035H237.326V91.6602L240.587 85.6035ZM246.288 88.9258C246.288 88.3652 246.354 87.8708 246.486 87.4424C246.618 87.014 246.803 86.654 247.04 86.3623C247.277 86.0661 247.56 85.8428 247.888 85.6924C248.22 85.542 248.587 85.4668 248.988 85.4668C249.394 85.4668 249.763 85.542 250.096 85.6924C250.428 85.8428 250.713 86.0661 250.95 86.3623C251.187 86.654 251.369 87.014 251.497 87.4424C251.629 87.8708 251.695 88.3652 251.695 88.9258V89.6914C251.695 90.252 251.629 90.7464 251.497 91.1748C251.369 91.6032 251.187 91.9632 250.95 92.2549C250.713 92.542 250.428 92.7607 250.096 92.9111C249.768 93.0615 249.403 93.1367 249.002 93.1367C248.596 93.1367 248.227 93.0615 247.895 92.9111C247.562 92.7607 247.277 92.542 247.04 92.2549C246.803 91.9632 246.618 91.6032 246.486 91.1748C246.354 90.7464 246.288 90.252 246.288 89.6914V88.9258ZM247.054 89.6914C247.054 90.1152 247.097 90.4958 247.184 90.833C247.27 91.1702 247.396 91.4574 247.56 91.6943C247.728 91.9313 247.933 92.1136 248.175 92.2412C248.416 92.3688 248.692 92.4326 249.002 92.4326C249.33 92.4326 249.615 92.3688 249.856 92.2412C250.098 92.1136 250.299 91.9313 250.458 91.6943C250.618 91.4574 250.736 91.1702 250.813 90.833C250.896 90.4958 250.937 90.1152 250.937 89.6914V88.9258C250.937 88.5111 250.893 88.1351 250.807 87.7979C250.72 87.4561 250.592 87.1667 250.424 86.9297C250.26 86.6882 250.057 86.5036 249.815 86.376C249.574 86.2438 249.298 86.1777 248.988 86.1777C248.683 86.1777 248.41 86.2438 248.168 86.376C247.931 86.5036 247.728 86.6882 247.56 86.9297C247.396 87.1667 247.27 87.4561 247.184 87.7979C247.097 88.1351 247.054 88.5111 247.054 88.9258V89.6914ZM256.002 86.0889C256.408 86.0889 256.772 86.1732 257.096 86.3418C257.424 86.5059 257.702 86.736 257.93 87.0322C258.158 87.3239 258.333 87.6725 258.456 88.0781C258.579 88.4837 258.641 88.9258 258.641 89.4043V89.623C258.641 90.1335 258.577 90.6029 258.449 91.0312C258.322 91.4596 258.139 91.8311 257.902 92.1455C257.665 92.4554 257.376 92.6992 257.034 92.877C256.692 93.0501 256.31 93.1367 255.886 93.1367C255.462 93.1367 255.079 93.0501 254.737 92.877C254.4 92.6992 254.111 92.4554 253.869 92.1455C253.632 91.8311 253.45 91.4596 253.322 91.0312C253.195 90.6029 253.131 90.1335 253.131 89.623V89.4043V89.3496V88.9053C253.131 88.1077 253.197 87.3991 253.329 86.7793C253.466 86.1549 253.655 85.6217 253.896 85.1797C254.143 84.7331 254.437 84.3799 254.778 84.1201C255.125 83.8558 255.507 83.6826 255.927 83.6006C256.205 83.5459 256.442 83.4844 256.638 83.416C256.834 83.3431 256.993 83.2588 257.116 83.1631C257.244 83.0628 257.337 82.9489 257.396 82.8213C257.456 82.6937 257.485 82.5479 257.485 82.3838H258.128C258.128 82.7301 258.076 83.0173 257.971 83.2451C257.866 83.473 257.722 83.6598 257.54 83.8057C257.358 83.9469 257.141 84.0586 256.891 84.1406C256.64 84.2181 256.371 84.2842 256.084 84.3389C255.801 84.3936 255.537 84.4938 255.291 84.6396C255.049 84.7809 254.831 84.9746 254.635 85.2207C254.443 85.4668 254.279 85.7653 254.143 86.1162C254.006 86.4626 253.908 86.8659 253.849 87.3262C254.095 86.957 254.398 86.6585 254.758 86.4307C255.122 86.2028 255.537 86.0889 256.002 86.0889ZM255.879 86.7998C255.551 86.7998 255.264 86.8727 255.018 87.0186C254.771 87.1598 254.564 87.3512 254.396 87.5928C254.231 87.8298 254.106 88.1055 254.02 88.4199C253.938 88.7344 253.896 89.0625 253.896 89.4043V89.623C253.896 90.0013 253.938 90.3613 254.02 90.7031C254.106 91.0404 254.231 91.3366 254.396 91.5918C254.564 91.847 254.771 92.0521 255.018 92.207C255.268 92.3574 255.558 92.4326 255.886 92.4326C256.214 92.4326 256.501 92.3574 256.747 92.207C256.998 92.0521 257.207 91.847 257.376 91.5918C257.545 91.3366 257.67 91.0404 257.752 90.7031C257.839 90.3613 257.882 90.0013 257.882 89.623V89.4043C257.882 89.0579 257.839 88.7275 257.752 88.4131C257.67 88.0986 257.545 87.8229 257.376 87.5859C257.207 87.3444 256.998 87.153 256.747 87.0117C256.496 86.8704 256.207 86.7998 255.879 86.7998ZM259.529 85.6035H262.236V88.2832H263.979C264.349 88.2832 264.674 88.3424 264.957 88.4609C265.244 88.5794 265.483 88.7435 265.675 88.9531C265.871 89.1582 266.017 89.4043 266.112 89.6914C266.213 89.9785 266.263 90.2907 266.263 90.6279C266.263 90.9652 266.213 91.2796 266.112 91.5713C266.017 91.8584 265.871 92.109 265.675 92.3232C265.483 92.5329 265.244 92.6992 264.957 92.8223C264.674 92.9408 264.349 93 263.979 93H261.484V86.3145H259.529V85.6035ZM262.236 88.9941V92.2959H263.979C264.253 92.2959 264.485 92.2503 264.677 92.1592C264.873 92.068 265.032 91.945 265.155 91.79C265.278 91.6351 265.367 91.4596 265.422 91.2637C265.477 91.0677 265.504 90.8626 265.504 90.6484C265.504 90.4434 265.477 90.2428 265.422 90.0469C265.367 89.8509 265.278 89.6755 265.155 89.5205C265.032 89.361 264.873 89.2334 264.677 89.1377C264.485 89.042 264.253 88.9941 263.979 88.9941H262.236ZM270.316 93.1367C269.906 93.1367 269.53 93.0706 269.188 92.9385C268.847 92.8018 268.55 92.5967 268.3 92.3232C268.054 92.0452 267.862 91.6966 267.726 91.2773C267.589 90.8581 267.521 90.3613 267.521 89.7871V88.9463C267.521 88.3265 267.593 87.7979 267.739 87.3604C267.885 86.9183 268.079 86.5583 268.32 86.2803C268.566 85.9977 268.849 85.7926 269.168 85.665C269.492 85.5329 269.831 85.4668 270.187 85.4668C270.998 85.4668 271.613 85.7357 272.032 86.2734C272.456 86.8066 272.668 87.6247 272.668 88.7275V89.3701H268.272V89.7871C268.272 90.2383 268.323 90.6302 268.423 90.9629C268.523 91.2956 268.664 91.5713 268.847 91.79C269.029 92.0088 269.248 92.1729 269.503 92.2822C269.758 92.387 270.041 92.4395 270.351 92.4395C270.733 92.4395 271.066 92.3757 271.349 92.248C271.631 92.1159 271.889 91.9131 272.121 91.6396L272.518 92.1455C272.417 92.2822 272.299 92.4098 272.162 92.5283C272.03 92.6468 271.873 92.7516 271.69 92.8428C271.513 92.9339 271.31 93.0046 271.082 93.0547C270.854 93.1094 270.599 93.1367 270.316 93.1367ZM270.187 86.1777C269.918 86.1777 269.669 86.2233 269.441 86.3145C269.218 86.4056 269.022 86.5514 268.854 86.752C268.689 86.9479 268.557 87.2031 268.457 87.5176C268.357 87.832 268.298 88.2126 268.279 88.6592H271.909V88.4609C271.9 88.1009 271.859 87.7796 271.786 87.4971C271.713 87.2145 271.606 86.9753 271.465 86.7793C271.328 86.5833 271.153 86.4352 270.938 86.335C270.724 86.2301 270.474 86.1777 270.187 86.1777ZM276.018 89.623H275.108V93H274.343V85.6035H275.108V88.8779H276.004L278.246 85.6035H279.189L276.64 89.1787L279.456 93H278.465L276.018 89.623ZM285.191 86.3145H282.963V93H282.204V86.3145H280.058V85.6035H285.191V86.3145ZM290.38 93C290.343 92.877 290.314 92.7243 290.291 92.542C290.268 92.3551 290.252 92.166 290.243 91.9746C290.147 92.1296 290.034 92.2777 289.901 92.4189C289.769 92.5557 289.617 92.6787 289.443 92.7881C289.275 92.8929 289.086 92.9772 288.876 93.041C288.666 93.1048 288.441 93.1367 288.199 93.1367C287.894 93.1367 287.616 93.0934 287.365 93.0068C287.119 92.9202 286.907 92.7904 286.729 92.6172C286.552 92.444 286.415 92.2275 286.319 91.9678C286.224 91.708 286.176 91.4049 286.176 91.0586C286.176 90.7168 286.235 90.4023 286.354 90.1152C286.472 89.8236 286.647 89.5729 286.88 89.3633C287.117 89.1536 287.411 88.9896 287.762 88.8711C288.113 88.7526 288.521 88.6934 288.985 88.6934H290.236V87.6611C290.236 87.1325 290.104 86.7542 289.84 86.5264C289.58 86.2939 289.197 86.1777 288.691 86.1777C288.454 86.1777 288.236 86.2142 288.035 86.2871C287.839 86.36 287.671 86.4626 287.529 86.5947C287.388 86.7223 287.279 86.8773 287.201 87.0596C287.124 87.2373 287.085 87.4333 287.085 87.6475L286.326 87.6406C286.326 87.3535 286.383 87.0801 286.497 86.8203C286.611 86.556 286.773 86.3236 286.982 86.123C287.192 85.9225 287.445 85.763 287.741 85.6445C288.037 85.526 288.366 85.4668 288.726 85.4668C289.058 85.4668 289.361 85.5078 289.635 85.5898C289.913 85.6673 290.152 85.7949 290.353 85.9727C290.553 86.1458 290.708 86.3737 290.817 86.6562C290.931 86.9342 290.988 87.2738 290.988 87.6748V91.4482C290.988 91.5758 290.993 91.708 291.002 91.8447C291.011 91.9814 291.022 92.1159 291.036 92.248C291.054 92.3757 291.075 92.4987 291.098 92.6172C291.125 92.7311 291.155 92.8314 291.187 92.918V93H290.38ZM288.295 92.4053C288.532 92.4053 288.753 92.3734 288.958 92.3096C289.168 92.2412 289.354 92.1501 289.519 92.0361C289.683 91.9176 289.824 91.7809 289.942 91.626C290.065 91.471 290.163 91.3047 290.236 91.127V89.3291H289.095C288.379 89.3291 287.841 89.4795 287.481 89.7803C287.121 90.0811 286.941 90.4867 286.941 90.9971C286.941 91.4847 287.06 91.8424 287.297 92.0703C287.538 92.2936 287.871 92.4053 288.295 92.4053Z" fill="#1A1A1A"/>
<path d="M65.3672 366.469H66.4395V375H65.3672V368.426L62.0449 375H60.9668V366.469H62.0449V373.043L65.3672 366.469ZM72.7793 368.66V375H71.7422V369.557H70.0781L70.0195 371.373C69.9961 371.975 69.9512 372.502 69.8848 372.955C69.8184 373.408 69.7148 373.787 69.5742 374.092C69.4336 374.393 69.2461 374.619 69.0117 374.771C68.7812 374.924 68.4883 375 68.1328 375H67.8457L67.8691 374.033L68.0684 374.027C68.2441 374.027 68.3867 373.979 68.4961 373.881C68.6094 373.779 68.6992 373.623 68.7656 373.412C68.832 373.197 68.8789 372.922 68.9062 372.586C68.9375 372.25 68.9629 371.846 68.9824 371.373L69.082 368.66H72.7793ZM77.8535 368.66H78.8848V375H77.8535V370.377L75.5566 375H74.5195V368.66H75.5566V373.289L77.8535 368.66ZM87.1875 370.389C87.1875 370.674 87.1152 370.936 86.9707 371.174C86.8262 371.412 86.6211 371.602 86.3555 371.742C86.6602 371.867 86.8906 372.053 87.0469 372.299C87.207 372.545 87.2871 372.852 87.2871 373.219C87.2871 373.52 87.2363 373.787 87.1348 374.021C87.0332 374.256 86.8887 374.453 86.7012 374.613C86.5176 374.773 86.2969 374.896 86.0391 374.982C85.7812 375.068 85.498 375.111 85.1895 375.111C84.9277 375.111 84.668 375.072 84.4102 374.994C84.1562 374.916 83.9277 374.797 83.7246 374.637C83.5254 374.477 83.3633 374.271 83.2383 374.021C83.1172 373.771 83.0566 373.473 83.0566 373.125H84.082C84.082 373.273 84.1074 373.416 84.1582 373.553C84.2129 373.686 84.2871 373.805 84.3809 373.91C84.4785 374.012 84.5957 374.094 84.7324 374.156C84.8691 374.219 85.0215 374.25 85.1895 374.25C85.3652 374.25 85.5195 374.223 85.6523 374.168C85.7852 374.109 85.8945 374.033 85.9805 373.939C86.0703 373.846 86.1367 373.736 86.1797 373.611C86.2266 373.486 86.25 373.355 86.25 373.219C86.25 372.863 86.1699 372.609 86.0098 372.457C85.8535 372.301 85.6055 372.223 85.2656 372.223H84.3164V371.309H85.2656C85.4336 371.309 85.5742 371.287 85.6875 371.244C85.8008 371.201 85.8926 371.141 85.9629 371.062C86.0332 370.98 86.082 370.883 86.1094 370.77C86.1406 370.656 86.1562 370.531 86.1562 370.395C86.1562 370.27 86.1387 370.15 86.1035 370.037C86.0684 369.92 86.0117 369.816 85.9336 369.727C85.8594 369.637 85.7617 369.564 85.6406 369.51C85.5195 369.455 85.3711 369.428 85.1953 369.428C85.0508 369.428 84.916 369.453 84.791 369.504C84.666 369.555 84.5566 369.627 84.4629 369.721C84.3691 369.811 84.2949 369.916 84.2402 370.037C84.1895 370.158 84.1641 370.289 84.1641 370.43H83.1387C83.1387 370.141 83.1934 369.881 83.3027 369.65C83.4121 369.416 83.5586 369.219 83.7422 369.059C83.9297 368.895 84.1484 368.77 84.3984 368.684C84.6484 368.594 84.9141 368.549 85.1953 368.549C85.5039 368.549 85.7812 368.59 86.0273 368.672C86.2734 368.75 86.4824 368.867 86.6543 369.023C86.8262 369.176 86.957 369.367 87.0469 369.598C87.1406 369.828 87.1875 370.092 87.1875 370.389ZM91.916 375C91.8809 374.922 91.8516 374.822 91.8281 374.701C91.8086 374.576 91.793 374.445 91.7812 374.309C91.707 374.418 91.6211 374.521 91.5234 374.619C91.4297 374.717 91.3223 374.803 91.2012 374.877C91.084 374.951 90.9551 375.01 90.8145 375.053C90.6777 375.096 90.5312 375.117 90.375 375.117C90.0977 375.117 89.8457 375.078 89.6191 375C89.3965 374.922 89.2051 374.805 89.0449 374.648C88.8848 374.492 88.7617 374.301 88.6758 374.074C88.5898 373.844 88.5469 373.576 88.5469 373.271C88.5469 372.967 88.5996 372.686 88.7051 372.428C88.8105 372.17 88.9668 371.947 89.1738 371.76C89.3809 371.572 89.6406 371.426 89.9531 371.32C90.2656 371.211 90.6289 371.156 91.043 371.156H91.7637V370.482C91.7637 370.104 91.6797 369.834 91.5117 369.674C91.3438 369.514 91.0879 369.434 90.7441 369.434C90.5762 369.434 90.4258 369.461 90.293 369.516C90.1641 369.566 90.0547 369.637 89.9648 369.727C89.875 369.816 89.8066 369.922 89.7598 370.043C89.7129 370.16 89.6895 370.285 89.6895 370.418H88.6523C88.6523 370.191 88.7012 369.967 88.7988 369.744C88.9004 369.518 89.043 369.316 89.2266 369.141C89.4141 368.961 89.6406 368.816 89.9062 368.707C90.1719 368.598 90.4688 368.543 90.7969 368.543C91.0898 368.543 91.3574 368.578 91.5996 368.648C91.8457 368.719 92.0566 368.832 92.2324 368.988C92.4121 369.145 92.5508 369.346 92.6484 369.592C92.7461 369.838 92.7949 370.139 92.7949 370.494V373.617C92.7949 373.723 92.7988 373.834 92.8066 373.951C92.8145 374.068 92.8262 374.184 92.8418 374.297C92.8613 374.41 92.8828 374.52 92.9062 374.625C92.9336 374.727 92.9629 374.82 92.9941 374.906V375H91.916ZM90.5332 374.174C90.6777 374.174 90.8145 374.152 90.9434 374.109C91.0723 374.066 91.1895 374.012 91.2949 373.945C91.4004 373.875 91.4922 373.797 91.5703 373.711C91.6523 373.621 91.7168 373.529 91.7637 373.436V371.924H91.2188C90.9688 371.924 90.7422 371.951 90.5391 372.006C90.3398 372.061 90.168 372.141 90.0234 372.246C89.8828 372.348 89.7734 372.475 89.6953 372.627C89.6211 372.779 89.584 372.953 89.584 373.148C89.584 373.34 89.6035 373.502 89.6426 373.635C89.6816 373.764 89.7402 373.869 89.8184 373.951C89.8965 374.029 89.9941 374.086 90.1113 374.121C90.2324 374.156 90.373 374.174 90.5332 374.174ZM94.3945 374.115C94.5078 373.963 94.6133 373.807 94.7109 373.646C94.8086 373.486 94.8965 373.293 94.9746 373.066C95.0527 372.836 95.1191 372.559 95.1738 372.234C95.2285 371.91 95.2695 371.512 95.2969 371.039L95.373 368.66H98.9121V374.115H99.6504V376.863H98.6133V375H95.0098V376.863H93.9668L93.9727 374.115H94.3945ZM96.334 371.039C96.3145 371.41 96.2812 371.75 96.2344 372.059C96.1875 372.363 96.1289 372.643 96.0586 372.896C95.9922 373.146 95.9141 373.373 95.8242 373.576C95.7383 373.775 95.6426 373.955 95.5371 374.115H97.8809V369.662H96.3809L96.334 371.039ZM104.104 375C104.068 374.922 104.039 374.822 104.016 374.701C103.996 374.576 103.98 374.445 103.969 374.309C103.895 374.418 103.809 374.521 103.711 374.619C103.617 374.717 103.51 374.803 103.389 374.877C103.271 374.951 103.143 375.01 103.002 375.053C102.865 375.096 102.719 375.117 102.562 375.117C102.285 375.117 102.033 375.078 101.807 375C101.584 374.922 101.393 374.805 101.232 374.648C101.072 374.492 100.949 374.301 100.863 374.074C100.777 373.844 100.734 373.576 100.734 373.271C100.734 372.967 100.787 372.686 100.893 372.428C100.998 372.17 101.154 371.947 101.361 371.76C101.568 371.572 101.828 371.426 102.141 371.32C102.453 371.211 102.816 371.156 103.23 371.156H103.951V370.482C103.951 370.104 103.867 369.834 103.699 369.674C103.531 369.514 103.275 369.434 102.932 369.434C102.764 369.434 102.613 369.461 102.48 369.516C102.352 369.566 102.242 369.637 102.152 369.727C102.062 369.816 101.994 369.922 101.947 370.043C101.9 370.16 101.877 370.285 101.877 370.418H100.84C100.84 370.191 100.889 369.967 100.986 369.744C101.088 369.518 101.23 369.316 101.414 369.141C101.602 368.961 101.828 368.816 102.094 368.707C102.359 368.598 102.656 368.543 102.984 368.543C103.277 368.543 103.545 368.578 103.787 368.648C104.033 368.719 104.244 368.832 104.42 368.988C104.6 369.145 104.738 369.346 104.836 369.592C104.934 369.838 104.982 370.139 104.982 370.494V373.617C104.982 373.723 104.986 373.834 104.994 373.951C105.002 374.068 105.014 374.184 105.029 374.297C105.049 374.41 105.07 374.52 105.094 374.625C105.121 374.727 105.15 374.82 105.182 374.906V375H104.104ZM102.721 374.174C102.865 374.174 103.002 374.152 103.131 374.109C103.26 374.066 103.377 374.012 103.482 373.945C103.588 373.875 103.68 373.797 103.758 373.711C103.84 373.621 103.904 373.529 103.951 373.436V371.924H103.406C103.156 371.924 102.93 371.951 102.727 372.006C102.527 372.061 102.355 372.141 102.211 372.246C102.07 372.348 101.961 372.475 101.883 372.627C101.809 372.779 101.771 372.953 101.771 373.148C101.771 373.34 101.791 373.502 101.83 373.635C101.869 373.764 101.928 373.869 102.006 373.951C102.084 374.029 102.182 374.086 102.299 374.121C102.42 374.156 102.561 374.174 102.721 374.174ZM110.021 368.66H111.053V375H110.021V370.377L107.725 375H106.688V368.66H107.725V373.289L110.021 368.66ZM110.631 366.352C110.631 366.582 110.59 366.793 110.508 366.984C110.43 367.176 110.314 367.342 110.162 367.482C110.01 367.619 109.824 367.727 109.605 367.805C109.391 367.883 109.148 367.922 108.879 367.922C108.609 367.922 108.365 367.883 108.146 367.805C107.932 367.727 107.748 367.619 107.596 367.482C107.443 367.342 107.326 367.176 107.244 366.984C107.162 366.793 107.121 366.582 107.121 366.352H108.006C108.006 366.469 108.021 366.58 108.053 366.686C108.084 366.791 108.133 366.885 108.199 366.967C108.27 367.045 108.359 367.107 108.469 367.154C108.582 367.201 108.719 367.225 108.879 367.225C109.035 367.225 109.168 367.201 109.277 367.154C109.391 367.107 109.482 367.045 109.553 366.967C109.623 366.885 109.674 366.791 109.705 366.686C109.736 366.58 109.752 366.469 109.752 366.352H110.631ZM116.719 369.539H114.99V375H113.959V369.539H112.254V368.66H116.719V369.539ZM119.607 375.117C119.229 375.117 118.887 375.061 118.582 374.947C118.277 374.834 118.018 374.662 117.803 374.432C117.592 374.197 117.43 373.902 117.316 373.547C117.203 373.191 117.146 372.771 117.146 372.287V371.572C117.146 371.014 117.213 370.543 117.346 370.16C117.479 369.773 117.652 369.461 117.867 369.223C118.086 368.98 118.336 368.807 118.617 368.701C118.898 368.596 119.189 368.543 119.49 368.543C119.889 368.543 120.229 368.609 120.51 368.742C120.791 368.871 121.021 369.062 121.201 369.316C121.381 369.57 121.512 369.883 121.594 370.254C121.676 370.625 121.717 371.053 121.717 371.537V372.141H118.178V372.287C118.178 372.967 118.305 373.461 118.559 373.77C118.816 374.078 119.186 374.232 119.666 374.232C119.842 374.232 120 374.215 120.141 374.18C120.281 374.145 120.41 374.096 120.527 374.033C120.645 373.967 120.752 373.891 120.85 373.805C120.947 373.715 121.039 373.617 121.125 373.512L121.664 374.168C121.578 374.289 121.475 374.406 121.354 374.52C121.232 374.633 121.088 374.734 120.92 374.824C120.752 374.91 120.559 374.98 120.34 375.035C120.125 375.09 119.881 375.117 119.607 375.117ZM119.49 369.434C119.311 369.434 119.145 369.461 118.992 369.516C118.84 369.57 118.705 369.668 118.588 369.809C118.475 369.945 118.383 370.131 118.312 370.365C118.242 370.6 118.199 370.895 118.184 371.25H120.68V371.109C120.668 370.863 120.641 370.639 120.598 370.436C120.559 370.229 120.494 370.051 120.404 369.902C120.318 369.754 120.201 369.639 120.053 369.557C119.904 369.475 119.717 369.434 119.49 369.434ZM125.812 375V368.66H127.939C128.283 368.66 128.594 368.695 128.871 368.766C129.148 368.836 129.383 368.943 129.574 369.088C129.77 369.229 129.918 369.408 130.02 369.627C130.125 369.846 130.178 370.104 130.178 370.4C130.178 370.693 130.102 370.957 129.949 371.191C129.797 371.426 129.574 371.605 129.281 371.73C129.457 371.777 129.611 371.85 129.744 371.947C129.881 372.041 129.994 372.152 130.084 372.281C130.178 372.41 130.246 372.555 130.289 372.715C130.336 372.871 130.359 373.033 130.359 373.201C130.359 373.502 130.311 373.766 130.213 373.992C130.119 374.215 129.982 374.4 129.803 374.549C129.623 374.697 129.404 374.811 129.146 374.889C128.889 374.963 128.598 375 128.273 375H125.812ZM126.844 372.217V374.127H128.273C128.633 374.127 128.896 374.043 129.064 373.875C129.236 373.707 129.322 373.471 129.322 373.166C129.322 372.865 129.236 372.633 129.064 372.469C128.896 372.301 128.633 372.217 128.273 372.217H126.844ZM126.844 371.35H127.928C128.736 371.35 129.141 371.053 129.141 370.459C129.141 369.846 128.74 369.539 127.939 369.539H126.844V371.35ZM131.549 371.537C131.549 371.041 131.611 370.607 131.736 370.236C131.865 369.861 132.039 369.549 132.258 369.299C132.48 369.049 132.74 368.861 133.037 368.736C133.334 368.607 133.652 368.543 133.992 368.543C134.336 368.543 134.658 368.607 134.959 368.736C135.26 368.861 135.52 369.049 135.738 369.299C135.961 369.549 136.135 369.861 136.26 370.236C136.389 370.607 136.453 371.041 136.453 371.537V372.135C136.453 372.627 136.389 373.061 136.26 373.436C136.135 373.807 135.961 374.117 135.738 374.367C135.52 374.617 135.262 374.805 134.965 374.93C134.668 375.055 134.348 375.117 134.004 375.117C133.66 375.117 133.338 375.055 133.037 374.93C132.74 374.805 132.48 374.617 132.258 374.367C132.039 374.117 131.865 373.807 131.736 373.436C131.611 373.061 131.549 372.627 131.549 372.135V371.537ZM132.586 372.135C132.586 372.486 132.621 372.793 132.691 373.055C132.766 373.316 132.865 373.535 132.99 373.711C133.119 373.883 133.27 374.014 133.441 374.104C133.613 374.189 133.801 374.232 134.004 374.232C134.945 374.232 135.416 373.533 135.416 372.135V371.537C135.416 371.189 135.379 370.885 135.305 370.623C135.234 370.361 135.135 370.143 135.006 369.967C134.881 369.791 134.73 369.658 134.555 369.568C134.383 369.479 134.195 369.434 133.992 369.434C133.793 369.434 133.607 369.479 133.436 369.568C133.264 369.658 133.115 369.791 132.99 369.967C132.865 370.143 132.766 370.361 132.691 370.623C132.621 370.885 132.586 371.189 132.586 371.537V372.135ZM142.248 375H141.217V369.557H138.926V375H137.883V368.66H142.248V375ZM148.488 372.135C148.488 373.139 148.307 373.887 147.943 374.379C147.584 374.871 147.074 375.117 146.414 375.117C146.082 375.117 145.795 375.057 145.553 374.936C145.314 374.811 145.111 374.631 144.943 374.396V377.438H143.912V368.66H144.85L144.902 369.363C145.07 369.098 145.275 368.895 145.518 368.754C145.764 368.613 146.057 368.543 146.396 368.543C146.736 368.543 147.035 368.602 147.293 368.719C147.555 368.836 147.773 369.018 147.949 369.264C148.125 369.506 148.258 369.816 148.348 370.195C148.441 370.574 148.488 371.023 148.488 371.543V372.135ZM147.457 371.543C147.457 370.832 147.348 370.309 147.129 369.973C146.91 369.633 146.559 369.463 146.074 369.463C145.805 369.463 145.576 369.533 145.389 369.674C145.205 369.811 145.057 369.988 144.943 370.207V373.506C145.057 373.721 145.203 373.896 145.383 374.033C145.562 374.166 145.797 374.232 146.086 374.232C146.559 374.232 146.904 374.061 147.123 373.717C147.346 373.373 147.457 372.846 147.457 372.135V371.543ZM149.607 371.537C149.607 371.041 149.67 370.607 149.795 370.236C149.924 369.861 150.098 369.549 150.316 369.299C150.539 369.049 150.799 368.861 151.096 368.736C151.393 368.607 151.711 368.543 152.051 368.543C152.395 368.543 152.717 368.607 153.018 368.736C153.318 368.861 153.578 369.049 153.797 369.299C154.02 369.549 154.193 369.861 154.318 370.236C154.447 370.607 154.512 371.041 154.512 371.537V372.135C154.512 372.627 154.447 373.061 154.318 373.436C154.193 373.807 154.02 374.117 153.797 374.367C153.578 374.617 153.32 374.805 153.023 374.93C152.727 375.055 152.406 375.117 152.062 375.117C151.719 375.117 151.396 375.055 151.096 374.93C150.799 374.805 150.539 374.617 150.316 374.367C150.098 374.117 149.924 373.807 149.795 373.436C149.67 373.061 149.607 372.627 149.607 372.135V371.537ZM150.645 372.135C150.645 372.486 150.68 372.793 150.75 373.055C150.824 373.316 150.924 373.535 151.049 373.711C151.178 373.883 151.328 374.014 151.5 374.104C151.672 374.189 151.859 374.232 152.062 374.232C153.004 374.232 153.475 373.533 153.475 372.135V371.537C153.475 371.189 153.438 370.885 153.363 370.623C153.293 370.361 153.193 370.143 153.064 369.967C152.939 369.791 152.789 369.658 152.613 369.568C152.441 369.479 152.254 369.434 152.051 369.434C151.852 369.434 151.666 369.479 151.494 369.568C151.322 369.658 151.174 369.791 151.049 369.967C150.924 370.143 150.824 370.361 150.75 370.623C150.68 370.885 150.645 371.189 150.645 371.537V372.135ZM158.051 374.232C158.203 374.232 158.348 374.209 158.484 374.162C158.621 374.115 158.742 374.043 158.848 373.945C158.953 373.844 159.037 373.717 159.1 373.564C159.166 373.408 159.205 373.221 159.217 373.002H160.195C160.184 373.318 160.117 373.607 159.996 373.869C159.879 374.127 159.723 374.35 159.527 374.537C159.336 374.721 159.113 374.863 158.859 374.965C158.605 375.066 158.336 375.117 158.051 375.117C157.641 375.117 157.283 375.051 156.979 374.918C156.678 374.785 156.428 374.594 156.229 374.344C156.029 374.094 155.881 373.787 155.783 373.424C155.686 373.061 155.637 372.648 155.637 372.188V371.473C155.637 371.012 155.686 370.602 155.783 370.242C155.881 369.879 156.029 369.572 156.229 369.322C156.428 369.068 156.678 368.875 156.979 368.742C157.279 368.609 157.635 368.543 158.045 368.543C158.365 368.543 158.654 368.596 158.912 368.701C159.174 368.803 159.396 368.953 159.58 369.152C159.768 369.348 159.914 369.588 160.02 369.873C160.125 370.158 160.184 370.48 160.195 370.84H159.217C159.193 370.371 159.08 370.02 158.877 369.785C158.678 369.551 158.4 369.434 158.045 369.434C157.771 369.434 157.547 369.482 157.371 369.58C157.195 369.678 157.055 369.816 156.949 369.996C156.848 370.172 156.775 370.385 156.732 370.635C156.693 370.885 156.674 371.164 156.674 371.473V372.188C156.674 372.5 156.693 372.783 156.732 373.037C156.771 373.287 156.842 373.502 156.943 373.682C157.049 373.857 157.189 373.994 157.365 374.092C157.545 374.186 157.773 374.232 158.051 374.232ZM164.238 375V368.66H166.365C166.709 368.66 167.02 368.695 167.297 368.766C167.574 368.836 167.809 368.943 168 369.088C168.195 369.229 168.344 369.408 168.445 369.627C168.551 369.846 168.604 370.104 168.604 370.4C168.604 370.693 168.527 370.957 168.375 371.191C168.223 371.426 168 371.605 167.707 371.73C167.883 371.777 168.037 371.85 168.17 371.947C168.307 372.041 168.42 372.152 168.51 372.281C168.604 372.41 168.672 372.555 168.715 372.715C168.762 372.871 168.785 373.033 168.785 373.201C168.785 373.502 168.736 373.766 168.639 373.992C168.545 374.215 168.408 374.4 168.229 374.549C168.049 374.697 167.83 374.811 167.572 374.889C167.314 374.963 167.023 375 166.699 375H164.238ZM165.27 372.217V374.127H166.699C167.059 374.127 167.322 374.043 167.49 373.875C167.662 373.707 167.748 373.471 167.748 373.166C167.748 372.865 167.662 372.633 167.49 372.469C167.322 372.301 167.059 372.217 166.699 372.217H165.27ZM165.27 371.35H166.354C167.162 371.35 167.566 371.053 167.566 370.459C167.566 369.846 167.166 369.539 166.365 369.539H165.27V371.35ZM63.8848 387.564L65.584 382.66H66.873V389H65.8418V384.629L64.2422 389H63.5332L61.8984 384.523V389H60.8672V382.66H62.2031L63.8848 387.564ZM70.7988 389.117C70.4199 389.117 70.0781 389.061 69.7734 388.947C69.4688 388.834 69.209 388.662 68.9941 388.432C68.7832 388.197 68.6211 387.902 68.5078 387.547C68.3945 387.191 68.3379 386.771 68.3379 386.287V385.572C68.3379 385.014 68.4043 384.543 68.5371 384.16C68.6699 383.773 68.8438 383.461 69.0586 383.223C69.2773 382.98 69.5273 382.807 69.8086 382.701C70.0898 382.596 70.3809 382.543 70.6816 382.543C71.0801 382.543 71.4199 382.609 71.7012 382.742C71.9824 382.871 72.2129 383.062 72.3926 383.316C72.5723 383.57 72.7031 383.883 72.7852 384.254C72.8672 384.625 72.9082 385.053 72.9082 385.537V386.141H69.3691V386.287C69.3691 386.967 69.4961 387.461 69.75 387.77C70.0078 388.078 70.377 388.232 70.8574 388.232C71.0332 388.232 71.1914 388.215 71.332 388.18C71.4727 388.145 71.6016 388.096 71.7188 388.033C71.8359 387.967 71.9434 387.891 72.041 387.805C72.1387 387.715 72.2305 387.617 72.3164 387.512L72.8555 388.168C72.7695 388.289 72.666 388.406 72.5449 388.52C72.4238 388.633 72.2793 388.734 72.1113 388.824C71.9434 388.91 71.75 388.98 71.5312 389.035C71.3164 389.09 71.0723 389.117 70.7988 389.117ZM70.6816 383.434C70.502 383.434 70.3359 383.461 70.1836 383.516C70.0312 383.57 69.8965 383.668 69.7793 383.809C69.666 383.945 69.5742 384.131 69.5039 384.365C69.4336 384.6 69.3906 384.895 69.375 385.25H71.8711V385.109C71.8594 384.863 71.832 384.639 71.7891 384.436C71.75 384.229 71.6855 384.051 71.5957 383.902C71.5098 383.754 71.3926 383.639 71.2441 383.557C71.0957 383.475 70.9082 383.434 70.6816 383.434ZM76.3594 388.232C76.5117 388.232 76.6562 388.209 76.793 388.162C76.9297 388.115 77.0508 388.043 77.1562 387.945C77.2617 387.844 77.3457 387.717 77.4082 387.564C77.4746 387.408 77.5137 387.221 77.5254 387.002H78.5039C78.4922 387.318 78.4258 387.607 78.3047 387.869C78.1875 388.127 78.0312 388.35 77.8359 388.537C77.6445 388.721 77.4219 388.863 77.168 388.965C76.9141 389.066 76.6445 389.117 76.3594 389.117C75.9492 389.117 75.5918 389.051 75.2871 388.918C74.9863 388.785 74.7363 388.594 74.5371 388.344C74.3379 388.094 74.1895 387.787 74.0918 387.424C73.9941 387.061 73.9453 386.648 73.9453 386.188V385.473C73.9453 385.012 73.9941 384.602 74.0918 384.242C74.1895 383.879 74.3379 383.572 74.5371 383.322C74.7363 383.068 74.9863 382.875 75.2871 382.742C75.5879 382.609 75.9434 382.543 76.3535 382.543C76.6738 382.543 76.9629 382.596 77.2207 382.701C77.4824 382.803 77.7051 382.953 77.8887 383.152C78.0762 383.348 78.2227 383.588 78.3281 383.873C78.4336 384.158 78.4922 384.48 78.5039 384.84H77.5254C77.502 384.371 77.3887 384.02 77.1855 383.785C76.9863 383.551 76.709 383.434 76.3535 383.434C76.0801 383.434 75.8555 383.482 75.6797 383.58C75.5039 383.678 75.3633 383.816 75.2578 383.996C75.1562 384.172 75.084 384.385 75.041 384.635C75.002 384.885 74.9824 385.164 74.9824 385.473V386.188C74.9824 386.5 75.002 386.783 75.041 387.037C75.0801 387.287 75.1504 387.502 75.252 387.682C75.3574 387.857 75.498 387.994 75.6738 388.092C75.8535 388.186 76.082 388.232 76.3594 388.232ZM81.9023 388.232C82.0547 388.232 82.1992 388.209 82.3359 388.162C82.4727 388.115 82.5938 388.043 82.6992 387.945C82.8047 387.844 82.8887 387.717 82.9512 387.564C83.0176 387.408 83.0566 387.221 83.0684 387.002H84.0469C84.0352 387.318 83.9688 387.607 83.8477 387.869C83.7305 388.127 83.5742 388.35 83.3789 388.537C83.1875 388.721 82.9648 388.863 82.7109 388.965C82.457 389.066 82.1875 389.117 81.9023 389.117C81.4922 389.117 81.1348 389.051 80.8301 388.918C80.5293 388.785 80.2793 388.594 80.0801 388.344C79.8809 388.094 79.7324 387.787 79.6348 387.424C79.5371 387.061 79.4883 386.648 79.4883 386.188V385.473C79.4883 385.012 79.5371 384.602 79.6348 384.242C79.7324 383.879 79.8809 383.572 80.0801 383.322C80.2793 383.068 80.5293 382.875 80.8301 382.742C81.1309 382.609 81.4863 382.543 81.8965 382.543C82.2168 382.543 82.5059 382.596 82.7637 382.701C83.0254 382.803 83.248 382.953 83.4316 383.152C83.6191 383.348 83.7656 383.588 83.8711 383.873C83.9766 384.158 84.0352 384.48 84.0469 384.84H83.0684C83.0449 384.371 82.9316 384.02 82.7285 383.785C82.5293 383.551 82.252 383.434 81.8965 383.434C81.623 383.434 81.3984 383.482 81.2227 383.58C81.0469 383.678 80.9062 383.816 80.8008 383.996C80.6992 384.172 80.627 384.385 80.584 384.635C80.5449 384.885 80.5254 385.164 80.5254 385.473V386.188C80.5254 386.5 80.5449 386.783 80.584 387.037C80.623 387.287 80.6934 387.502 80.7949 387.682C80.9004 387.857 81.041 387.994 81.2168 388.092C81.3965 388.186 81.625 388.232 81.9023 388.232ZM87.5098 389.117C87.1309 389.117 86.7891 389.061 86.4844 388.947C86.1797 388.834 85.9199 388.662 85.7051 388.432C85.4941 388.197 85.332 387.902 85.2188 387.547C85.1055 387.191 85.0488 386.771 85.0488 386.287V385.572C85.0488 385.014 85.1152 384.543 85.248 384.16C85.3809 383.773 85.5547 383.461 85.7695 383.223C85.9883 382.98 86.2383 382.807 86.5195 382.701C86.8008 382.596 87.0918 382.543 87.3926 382.543C87.791 382.543 88.1309 382.609 88.4121 382.742C88.6934 382.871 88.9238 383.062 89.1035 383.316C89.2832 383.57 89.4141 383.883 89.4961 384.254C89.5781 384.625 89.6191 385.053 89.6191 385.537V386.141H86.0801V386.287C86.0801 386.967 86.207 387.461 86.4609 387.77C86.7188 388.078 87.0879 388.232 87.5684 388.232C87.7441 388.232 87.9023 388.215 88.043 388.18C88.1836 388.145 88.3125 388.096 88.4297 388.033C88.5469 387.967 88.6543 387.891 88.752 387.805C88.8496 387.715 88.9414 387.617 89.0273 387.512L89.5664 388.168C89.4805 388.289 89.377 388.406 89.2559 388.52C89.1348 388.633 88.9902 388.734 88.8223 388.824C88.6543 388.91 88.4609 388.98 88.2422 389.035C88.0273 389.09 87.7832 389.117 87.5098 389.117ZM87.3926 383.434C87.2129 383.434 87.0469 383.461 86.8945 383.516C86.7422 383.57 86.6074 383.668 86.4902 383.809C86.377 383.945 86.2852 384.131 86.2148 384.365C86.1445 384.6 86.1016 384.895 86.0859 385.25H88.582V385.109C88.5703 384.863 88.543 384.639 88.5 384.436C88.4609 384.229 88.3965 384.051 88.3066 383.902C88.2207 383.754 88.1035 383.639 87.9551 383.557C87.8066 383.475 87.6191 383.434 87.3926 383.434ZM95.3203 389H94.2891V386.293H92.0039V389H90.9609V382.66H92.0039V385.408H94.2891V382.66H95.3203V389ZM96.9609 388.115C97.0742 387.963 97.1797 387.807 97.2773 387.646C97.375 387.486 97.4629 387.293 97.541 387.066C97.6191 386.836 97.6855 386.559 97.7402 386.234C97.7949 385.91 97.8359 385.512 97.8633 385.039L97.9395 382.66H101.479V388.115H102.217V390.863H101.18V389H97.5762V390.863H96.5332L96.5391 388.115H96.9609ZM98.9004 385.039C98.8809 385.41 98.8477 385.75 98.8008 386.059C98.7539 386.363 98.6953 386.643 98.625 386.896C98.5586 387.146 98.4805 387.373 98.3906 387.576C98.3047 387.775 98.209 387.955 98.1035 388.115H100.447V383.662H98.9473L98.9004 385.039ZM107.713 386.246H107.109V389H106.078V386.246H105.475L104.15 389H102.85L104.672 385.695L103.008 382.66H104.256L105.486 385.285H106.078V382.66H107.109V385.285H107.689L108.938 382.66H110.186L108.516 385.701L110.338 389H109.031L107.713 386.246ZM113.502 389.117C113.123 389.117 112.781 389.061 112.477 388.947C112.172 388.834 111.912 388.662 111.697 388.432C111.486 388.197 111.324 387.902 111.211 387.547C111.098 387.191 111.041 386.771 111.041 386.287V385.572C111.041 385.014 111.107 384.543 111.24 384.16C111.373 383.773 111.547 383.461 111.762 383.223C111.98 382.98 112.23 382.807 112.512 382.701C112.793 382.596 113.084 382.543 113.385 382.543C113.783 382.543 114.123 382.609 114.404 382.742C114.686 382.871 114.916 383.062 115.096 383.316C115.275 383.57 115.406 383.883 115.488 384.254C115.57 384.625 115.611 385.053 115.611 385.537V386.141H112.072V386.287C112.072 386.967 112.199 387.461 112.453 387.77C112.711 388.078 113.08 388.232 113.561 388.232C113.736 388.232 113.895 388.215 114.035 388.18C114.176 388.145 114.305 388.096 114.422 388.033C114.539 387.967 114.646 387.891 114.744 387.805C114.842 387.715 114.934 387.617 115.02 387.512L115.559 388.168C115.473 388.289 115.369 388.406 115.248 388.52C115.127 388.633 114.982 388.734 114.814 388.824C114.646 388.91 114.453 388.98 114.234 389.035C114.02 389.09 113.775 389.117 113.502 389.117ZM113.385 383.434C113.205 383.434 113.039 383.461 112.887 383.516C112.734 383.57 112.6 383.668 112.482 383.809C112.369 383.945 112.277 384.131 112.207 384.365C112.137 384.6 112.094 384.895 112.078 385.25H114.574V385.109C114.562 384.863 114.535 384.639 114.492 384.436C114.453 384.229 114.389 384.051 114.299 383.902C114.213 383.754 114.096 383.639 113.947 383.557C113.799 383.475 113.611 383.434 113.385 383.434ZM121.441 386.135C121.441 387.139 121.26 387.887 120.896 388.379C120.537 388.871 120.027 389.117 119.367 389.117C119.035 389.117 118.748 389.057 118.506 388.936C118.268 388.811 118.064 388.631 117.896 388.396V391.438H116.865V382.66H117.803L117.855 383.363C118.023 383.098 118.229 382.895 118.471 382.754C118.717 382.613 119.01 382.543 119.35 382.543C119.689 382.543 119.988 382.602 120.246 382.719C120.508 382.836 120.727 383.018 120.902 383.264C121.078 383.506 121.211 383.816 121.301 384.195C121.395 384.574 121.441 385.023 121.441 385.543V386.135ZM120.41 385.543C120.41 384.832 120.301 384.309 120.082 383.973C119.863 383.633 119.512 383.463 119.027 383.463C118.758 383.463 118.529 383.533 118.342 383.674C118.158 383.811 118.01 383.988 117.896 384.207V387.506C118.01 387.721 118.156 387.896 118.336 388.033C118.516 388.166 118.75 388.232 119.039 388.232C119.512 388.232 119.857 388.061 120.076 387.717C120.299 387.373 120.41 386.846 120.41 386.135V385.543ZM122.812 388.432C122.812 388.244 122.867 388.088 122.977 387.963C123.09 387.838 123.258 387.775 123.48 387.775C123.703 387.775 123.871 387.838 123.984 387.963C124.102 388.088 124.16 388.244 124.16 388.432C124.16 388.611 124.102 388.762 123.984 388.883C123.871 389.004 123.703 389.064 123.48 389.064C123.258 389.064 123.09 389.004 122.977 388.883C122.867 388.762 122.812 388.611 122.812 388.432ZM122.818 383.258C122.818 383.07 122.873 382.914 122.982 382.789C123.096 382.664 123.264 382.602 123.486 382.602C123.709 382.602 123.877 382.664 123.99 382.789C124.107 382.914 124.166 383.07 124.166 383.258C124.166 383.438 124.107 383.588 123.99 383.709C123.877 383.83 123.709 383.891 123.486 383.891C123.264 383.891 123.096 383.83 122.982 383.709C122.873 383.588 122.818 383.438 122.818 383.258Z" fill="#1A1A1A"/>
<rect x="60.5" y="117.5" width="239" height="33" stroke="#1A1A1A"/>
<path d="M80.3672 130.469H81.4395V139H80.3672V132.426L77.0449 139H75.9668V130.469H77.0449V137.043L80.3672 130.469ZM86.3145 137.564L88.0137 132.66H89.3027V139H88.2715V134.629L86.6719 139H85.9629L84.3281 134.523V139H83.2969V132.66H84.6328L86.3145 137.564ZM95.1035 132.66V139H94.0664V136.533H92.8418L91.5645 139H90.4512L91.8223 136.352C91.4785 136.203 91.2168 135.975 91.0371 135.666C90.8574 135.357 90.7676 135 90.7676 134.594C90.7676 134.012 90.9551 133.545 91.3301 133.193C91.7051 132.838 92.209 132.66 92.8418 132.66H95.1035ZM91.8047 134.605C91.8047 134.918 91.8887 135.17 92.0566 135.361C92.2246 135.549 92.4512 135.643 92.7363 135.643H94.0664V133.539H92.8301C92.5215 133.539 92.2734 133.639 92.0859 133.838C91.8984 134.033 91.8047 134.289 91.8047 134.605Z" fill="#1A1A1A"/>
<rect x="60.5" y="161.5" width="239" height="33" stroke="#1A1A1A"/>
<path d="M80.9062 175.395H78.6621V183H77.5898V175.395H75.3516V174.469H80.9062V175.395ZM83.7012 183.117C82.9121 183.117 82.3066 182.883 81.8848 182.414C81.4629 181.941 81.248 181.25 81.2402 180.34V179.572C81.2402 178.627 81.4453 177.887 81.8555 177.352C82.2695 176.812 82.8457 176.543 83.584 176.543C84.3262 176.543 84.8809 176.779 85.248 177.252C85.6152 177.725 85.8027 178.461 85.8105 179.461V180.141H82.2715V180.287C82.2715 180.967 82.3984 181.461 82.6523 181.77C82.9102 182.078 83.2793 182.232 83.7598 182.232C84.0645 182.232 84.332 182.176 84.5625 182.062C84.7969 181.945 85.0156 181.762 85.2188 181.512L85.7578 182.168C85.3086 182.801 84.623 183.117 83.7012 183.117ZM83.584 177.434C83.1543 177.434 82.8359 177.582 82.6289 177.879C82.4219 178.172 82.3047 178.629 82.2773 179.25H84.7734V179.109C84.7461 178.508 84.6367 178.078 84.4453 177.82C84.2578 177.562 83.9707 177.434 83.584 177.434ZM91.5293 176.66V183H90.4922V177.557H88.8223L88.7227 179.707C88.668 180.898 88.5078 181.744 88.2422 182.244C87.9766 182.74 87.5508 182.992 86.9648 183H86.6191V182.045L86.8828 182.021C87.1719 181.982 87.375 181.789 87.4922 181.441C87.6133 181.09 87.6934 180.4 87.7324 179.373L87.832 176.66H91.5293ZM95.4434 183.117C94.6543 183.117 94.0488 182.883 93.627 182.414C93.2051 181.941 92.9902 181.25 92.9824 180.34V179.572C92.9824 178.627 93.1875 177.887 93.5977 177.352C94.0117 176.812 94.5879 176.543 95.3262 176.543C96.0684 176.543 96.623 176.779 96.9902 177.252C97.3574 177.725 97.5449 178.461 97.5527 179.461V180.141H94.0137V180.287C94.0137 180.967 94.1406 181.461 94.3945 181.77C94.6523 182.078 95.0215 182.232 95.502 182.232C95.8066 182.232 96.0742 182.176 96.3047 182.062C96.5391 181.945 96.7578 181.762 96.9609 181.512L97.5 182.168C97.0508 182.801 96.3652 183.117 95.4434 183.117ZM95.3262 177.434C94.8965 177.434 94.5781 177.582 94.3711 177.879C94.1641 178.172 94.0469 178.629 94.0195 179.25H96.5156V179.109C96.4883 178.508 96.3789 178.078 96.1875 177.82C96 177.562 95.7129 177.434 95.3262 177.434ZM98.6133 179.947C98.6133 178.893 98.7852 178.062 99.1289 177.457C99.4727 176.848 99.9473 176.543 100.553 176.543C100.803 176.543 101.029 176.586 101.232 176.672V174H102.27V176.707C102.488 176.598 102.744 176.543 103.037 176.543C103.646 176.543 104.123 176.846 104.467 177.451C104.811 178.057 104.982 178.93 104.982 180.07C104.982 181.02 104.811 181.766 104.467 182.309C104.123 182.852 103.65 183.123 103.049 183.123C102.752 183.123 102.492 183.072 102.27 182.971V185.438H101.232V183C101.018 183.082 100.789 183.123 100.547 183.123C99.9453 183.123 99.4727 182.85 99.1289 182.303C98.7852 181.752 98.6133 180.967 98.6133 179.947ZM103.951 179.947C103.951 179.15 103.844 178.533 103.629 178.096C103.414 177.654 103.111 177.434 102.721 177.434C102.553 177.434 102.402 177.463 102.27 177.521V182.168C102.391 182.215 102.545 182.238 102.732 182.238C103.119 182.238 103.418 182.051 103.629 181.676C103.844 181.301 103.951 180.725 103.951 179.947ZM99.6504 180.07C99.6504 180.789 99.748 181.33 99.9434 181.693C100.143 182.057 100.434 182.238 100.816 182.238C100.973 182.238 101.111 182.217 101.232 182.174V177.504C101.092 177.457 100.957 177.434 100.828 177.434C100.441 177.434 100.148 177.646 99.9492 178.072C99.75 178.494 99.6504 179.16 99.6504 180.07ZM106.131 179.537C106.131 178.615 106.354 177.887 106.799 177.352C107.248 176.812 107.84 176.543 108.574 176.543C109.309 176.543 109.898 176.805 110.344 177.328C110.793 177.852 111.023 178.564 111.035 179.467V180.135C111.035 181.053 110.812 181.779 110.367 182.314C109.922 182.85 109.328 183.117 108.586 183.117C107.852 183.117 107.262 182.857 106.816 182.338C106.375 181.818 106.146 181.115 106.131 180.229V179.537ZM107.168 180.135C107.168 180.787 107.295 181.301 107.549 181.676C107.807 182.047 108.152 182.232 108.586 182.232C109.5 182.232 109.971 181.572 109.998 180.252V179.537C109.998 178.889 109.869 178.377 109.611 178.002C109.354 177.623 109.008 177.434 108.574 177.434C108.148 177.434 107.807 177.623 107.549 178.002C107.295 178.377 107.168 178.887 107.168 179.531V180.135ZM116.824 183H115.793V180.293H113.508V183H112.465V176.66H113.508V179.408H115.793V176.66H116.824V183Z" fill="#1A1A1A"/>
<rect x="60.5" y="205.5" width="239" height="89" stroke="#1A1A1A"/>
<path d="M81.4688 223.484C81.4688 224.648 81.2207 225.545 80.7246 226.174C80.2285 226.803 79.5234 227.117 78.6094 227.117C77.7305 227.117 77.0352 226.812 76.5234 226.203C76.0156 225.59 75.752 224.725 75.7324 223.607V222.002C75.7324 220.861 75.9844 219.969 76.4883 219.324C76.9922 218.676 77.6953 218.352 78.5977 218.352C79.4961 218.352 80.1953 218.662 80.6953 219.283C81.1992 219.9 81.457 220.783 81.4688 221.932V223.484ZM80.3965 221.99C80.3965 221.088 80.248 220.418 79.9512 219.98C79.6582 219.539 79.207 219.318 78.5977 219.318C78.0078 219.318 77.5605 219.541 77.2559 219.986C76.9551 220.432 76.8027 221.088 76.7988 221.955V223.484C76.7988 224.355 76.9492 225.02 77.25 225.477C77.5547 225.934 78.0078 226.162 78.6094 226.162C79.2109 226.162 79.6562 225.951 79.9453 225.529C80.2344 225.107 80.3848 224.461 80.3965 223.59V221.99ZM87.4395 227H86.4082V221.557H84.1172V227H83.0742V220.66H87.4395V227ZM92.5254 220.66H93.5566V227H92.5254V222.377L90.2285 227H89.1914V220.66H90.2285V225.289L92.5254 220.66ZM97.418 226.232C97.7617 226.232 98.0371 226.127 98.2441 225.916C98.4512 225.701 98.5645 225.396 98.584 225.002H99.5625C99.5391 225.611 99.3223 226.117 98.9121 226.52C98.5059 226.918 98.0078 227.117 97.418 227.117C96.6328 227.117 96.0332 226.871 95.6191 226.379C95.209 225.883 95.0039 225.146 95.0039 224.17V223.473C95.0039 222.516 95.209 221.789 95.6191 221.293C96.0293 220.793 96.627 220.543 97.4121 220.543C98.0605 220.543 98.5742 220.748 98.9531 221.158C99.3359 221.568 99.5391 222.129 99.5625 222.84H98.584C98.5605 222.371 98.4473 222.02 98.2441 221.785C98.0449 221.551 97.7676 221.434 97.4121 221.434C96.9512 221.434 96.6094 221.586 96.3867 221.891C96.1641 222.191 96.0488 222.688 96.041 223.379V224.188C96.041 224.934 96.1504 225.461 96.3691 225.77C96.5918 226.078 96.9414 226.232 97.418 226.232ZM104.021 227C103.959 226.863 103.914 226.633 103.887 226.309C103.52 226.848 103.051 227.117 102.48 227.117C101.906 227.117 101.457 226.957 101.133 226.637C100.812 226.312 100.652 225.857 100.652 225.271C100.652 224.627 100.871 224.115 101.309 223.736C101.746 223.357 102.346 223.164 103.107 223.156H103.869V222.482C103.869 222.104 103.785 221.834 103.617 221.674C103.449 221.514 103.193 221.434 102.85 221.434C102.537 221.434 102.283 221.527 102.088 221.715C101.893 221.898 101.795 222.133 101.795 222.418H100.758C100.758 222.094 100.854 221.785 101.045 221.492C101.236 221.195 101.494 220.963 101.818 220.795C102.143 220.627 102.504 220.543 102.902 220.543C103.551 220.543 104.043 220.705 104.379 221.029C104.719 221.35 104.893 221.818 104.9 222.436V225.635C104.904 226.123 104.971 226.547 105.1 226.906V227H104.021ZM102.639 226.174C102.893 226.174 103.135 226.104 103.365 225.963C103.596 225.822 103.764 225.646 103.869 225.436V223.924H103.283C102.791 223.932 102.402 224.043 102.117 224.258C101.832 224.469 101.689 224.766 101.689 225.148C101.689 225.508 101.762 225.77 101.906 225.934C102.051 226.094 102.295 226.174 102.639 226.174ZM110.965 227H109.934V224.293H107.648V227H106.605V220.66H107.648V223.408H109.934V220.66H110.965V227ZM116.045 220.66H117.076V227H116.045V222.377L113.748 227H112.711V220.66H113.748V225.289L116.045 220.66ZM121.002 227.117C120.213 227.117 119.607 226.883 119.186 226.414C118.764 225.941 118.549 225.25 118.541 224.34V223.572C118.541 222.627 118.746 221.887 119.156 221.352C119.57 220.812 120.146 220.543 120.885 220.543C121.627 220.543 122.182 220.779 122.549 221.252C122.916 221.725 123.104 222.461 123.111 223.461V224.141H119.572V224.287C119.572 224.967 119.699 225.461 119.953 225.77C120.211 226.078 120.58 226.232 121.061 226.232C121.365 226.232 121.633 226.176 121.863 226.062C122.098 225.945 122.316 225.762 122.52 225.512L123.059 226.168C122.609 226.801 121.924 227.117 121.002 227.117ZM120.885 221.434C120.455 221.434 120.137 221.582 119.93 221.879C119.723 222.172 119.605 222.629 119.578 223.25H122.074V223.109C122.047 222.508 121.938 222.078 121.746 221.82C121.559 221.562 121.271 221.434 120.885 221.434Z" fill="#1A1A1A"/>
<rect x="235" y="363" width="30" height="30" fill="#59267C"/>
<path d="M256.662 378.54C256.237 382.026 253.729 382.243 253.265 382.396C253.068 382.461 251.24 382.922 248.939 382.77L246.445 385.511L246.441 382.352L246.423 382.348C243.075 381.404 243.189 377.857 243.224 375.999C243.263 374.141 243.605 372.614 244.626 371.591C246.458 369.903 250.241 370.155 250.241 370.155C253.431 370.168 254.961 371.147 255.316 371.474C256.499 372.496 257.1 374.946 256.662 378.54ZM256.193 370.599C255.772 370.207 254.08 368.958 250.306 368.941C250.306 368.941 245.858 368.667 243.688 370.69C242.479 371.917 242.053 373.715 242.01 375.938C241.966 378.166 241.909 382.339 245.867 383.47H245.871V385.198C245.871 385.198 245.845 385.899 246.3 386.038C246.848 386.212 247.168 385.681 247.694 385.107C247.983 384.793 248.378 384.332 248.676 383.98C251.385 384.21 253.467 383.679 253.699 383.605C254.247 383.423 257.337 383.022 257.841 378.849C258.353 374.546 257.582 371.826 256.193 370.599Z" fill="white"/>
<path d="M253.778 379.058C253.778 379.058 253.269 378.627 253.024 378.444C252.792 378.27 252.419 378.035 252.213 377.918C251.841 377.709 251.459 377.839 251.302 378.048L250.973 378.466C250.806 378.679 250.548 378.64 250.482 378.627C250 378.505 249.487 378.209 248.961 377.704C248.431 377.195 248.106 376.664 247.992 376.112L247.984 376.077C247.953 375.851 247.992 375.746 248.085 375.59L248.102 375.577C248.321 375.372 248.733 375.124 248.786 374.889C248.948 374.48 248.247 373.623 248.15 373.475C248.15 373.475 247.642 372.809 247.462 372.679C247.269 372.518 246.967 372.426 246.66 372.613L246.643 372.626C245.77 373.201 245.455 373.54 245.542 374.041L245.586 374.245C246.029 375.633 246.888 377.113 248.163 378.431C249.426 379.732 250.793 380.511 252.139 381.051C252.489 381.168 252.853 381.068 253.226 380.75L253.23 380.746C253.515 380.481 253.743 380.198 253.909 379.893V379.889C254.076 379.567 254.019 379.267 253.778 379.058Z" fill="white"/>
<path d="M251.683 376.02C251.631 376.02 251.587 375.977 251.583 375.925C251.565 375.564 251.469 375.289 251.293 375.107C251.118 374.924 250.859 374.824 250.517 374.802C250.46 374.798 250.421 374.75 250.421 374.693C250.425 374.637 250.469 374.593 250.526 374.598C250.921 374.619 251.223 374.741 251.434 374.963C251.644 375.185 251.762 375.503 251.78 375.916C251.784 375.973 251.74 376.02 251.683 376.025" fill="white"/>
<path d="M252.678 376.36C252.621 376.36 252.577 376.312 252.577 376.255C252.595 375.564 252.389 374.98 251.972 374.519C251.766 374.289 251.512 374.106 251.223 373.98C250.934 373.849 250.592 373.771 250.219 373.745C250.162 373.74 250.123 373.692 250.127 373.636C250.132 373.579 250.18 373.536 250.237 373.54C251.039 373.601 251.674 373.884 252.126 374.384C252.577 374.885 252.801 375.52 252.783 376.264C252.779 376.312 252.735 376.36 252.678 376.36Z" fill="white"/>
<path d="M253.699 376.765C253.642 376.765 253.598 376.721 253.598 376.664C253.594 376.055 253.502 375.503 253.322 375.024C253.142 374.55 252.875 374.132 252.524 373.779C252.174 373.431 251.771 373.166 251.337 372.987C250.898 372.809 250.412 372.718 249.886 372.718C249.829 372.718 249.785 372.67 249.785 372.613C249.785 372.557 249.829 372.513 249.886 372.513C250.99 372.522 251.924 372.896 252.665 373.632C253.037 374.001 253.322 374.445 253.511 374.95C253.699 375.45 253.796 376.029 253.8 376.664C253.8 376.717 253.756 376.765 253.699 376.765Z" fill="white"/>
<rect x="200" y="363" width="30" height="30" fill="#0088CC"/>
<path d="M209.331 379.271L211.57 384.931L214.484 381.983L219.481 386L223 370L205 377.583L209.331 379.271ZM217.856 374.591L212.347 379.673L211.661 382.289L210.393 379.083L217.856 374.591Z" fill="white"/>
<rect x="270" y="363" width="30" height="30" fill="#128C7E"/>
<path d="M293 377.794C293 382.099 289.484 385.588 285.145 385.588C283.768 385.588 282.475 385.236 281.349 384.619L277 386L278.418 381.817C277.703 380.643 277.291 379.265 277.291 377.794C277.292 373.489 280.807 370 285.146 370C289.484 370.001 293 373.49 293 377.794ZM285.144 371.243C281.503 371.243 278.541 374.182 278.541 377.796C278.541 379.229 279.009 380.557 279.799 381.637L278.975 384.07L281.511 383.264C282.555 383.948 283.803 384.347 285.144 384.347C288.785 384.347 291.748 381.408 291.748 377.794C291.749 374.182 288.786 371.243 285.144 371.243ZM289.112 379.589C289.063 379.511 288.934 379.463 288.742 379.367C288.551 379.271 287.603 378.809 287.427 378.746C287.249 378.682 287.121 378.65 286.993 378.841C286.866 379.033 286.497 379.463 286.383 379.591C286.271 379.719 286.159 379.735 285.967 379.641C285.774 379.544 285.153 379.343 284.418 378.693C283.845 378.185 283.459 377.561 283.347 377.37C283.234 377.179 283.335 377.075 283.431 376.98C283.517 376.894 283.623 376.757 283.72 376.645C283.816 376.534 283.848 376.455 283.912 376.327C283.976 376.199 283.944 376.088 283.896 375.992C283.848 375.896 283.464 374.956 283.303 374.574C283.142 374.192 282.982 374.255 282.87 374.255C282.757 374.255 282.629 374.24 282.501 374.24C282.372 374.24 282.164 374.286 281.988 374.478C281.812 374.669 281.314 375.131 281.314 376.071C281.314 377.012 282.003 377.919 282.1 378.047C282.197 378.173 283.432 380.166 285.389 380.931C287.348 381.695 287.348 381.44 287.7 381.408C288.054 381.375 288.84 380.946 288.999 380.5C289.16 380.053 289.16 379.669 289.112 379.589Z" fill="white"/>
</g>
<defs>
<filter id="filter0_d" x="0" y="0" width="360" height="478" filterUnits="userSpaceOnUse" color-interpolation-filters="sRGB">
<feFlood flood-opacity="0" result="BackgroundImageFix"/>
<feColorMatrix in="SourceAlpha" type="matrix" values="0 0 0 0 0 0 0 0 0 0 0 0 0 0 0 0 0 0 127 0"/>
<feOffset dy="25"/>
<feGaussianBlur stdDeviation="15"/>
<feColorMatrix type="matrix" values="0 0 0 0 0 0 0 0 0 0 0 0 0 0 0 0 0 0 0.1 0"/>
<feBlend mode="normal" in2="BackgroundImageFix" result="effect1_dropShadow"/>
<feBlend mode="normal" in="SourceGraphic" in2="effect1_dropShadow" result="shape"/>
</filter>
<filter id="filter1_d" x="52" y="306" width="264" height="58" filterUnits="userSpaceOnUse" color-interpolation-filters="sRGB">
<feFlood flood-opacity="0" result="BackgroundImageFix"/>
<feColorMatrix in="SourceAlpha" type="matrix" values="0 0 0 0 0 0 0 0 0 0 0 0 0 0 0 0 0 0 127 0"/>
<feOffset dx="4" dy="8"/>
<feGaussianBlur stdDeviation="6"/>
<feColorMatrix type="matrix" values="0 0 0 0 0 0 0 0 0 0 0 0 0 0 0 0 0 0 0.18 0"/>
<feBlend mode="normal" in2="BackgroundImageFix" result="effect1_dropShadow"/>
<feBlend mode="normal" in="SourceGraphic" in2="effect1_dropShadow" result="shape"/>
</filter>
</defs>
</svg>
