<svg width="90" height="90" viewBox="0 0 90 90" fill="none" xmlns="http://www.w3.org/2000/svg">
<g filter="url(#filter0_d)">
<rect x="15" y="11" width="60" height="60" fill="#FFD700"/>
</g>
<path d="M51.3764 30.5278L29.7557 30.5722C27.6847 30.5722 26 32.2568 26 34.3278V47.7171C26 49.7881 27.6847 51.4722 29.7557 51.4722H33.6V57.8055C33.6 58.0671 33.7609 58.302 34.0053 58.3964C34.0794 58.4249 34.1567 58.4388 34.2333 58.4388C34.4081 58.4388 34.5798 58.366 34.702 58.2317L40.8479 51.4709L51.3777 51.4278C53.4487 51.4278 55.1333 49.7432 55.1333 47.6728V34.2835C55.1333 32.2125 53.4487 30.5278 51.3764 30.5278ZM32.3333 36.8612H40.5667C40.9169 36.8612 41.2 37.1449 41.2 37.4945C41.2 37.8441 40.9169 38.1278 40.5667 38.1278H32.3333C31.9831 38.1278 31.7 37.8441 31.7 37.4945C31.7 37.1449 31.9831 36.8612 32.3333 36.8612ZM48.8 45.7278H32.3333C31.9831 45.7278 31.7 45.4441 31.7 45.0945C31.7 44.7449 31.9831 44.4612 32.3333 44.4612H48.8C49.1502 44.4612 49.4333 44.7449 49.4333 45.0945C49.4333 45.4441 49.1502 45.7278 48.8 45.7278ZM48.8 41.9278H32.3333C31.9831 41.9278 31.7 41.6441 31.7 41.2945C31.7 40.9449 31.9831 40.6612 32.3333 40.6612H48.8C49.1502 40.6612 49.4333 40.9449 49.4333 41.2945C49.4333 41.6441 49.1502 41.9278 48.8 41.9278Z" fill="#1A1A1A"/>
<path d="M60.2456 23.6055L38.6224 23.5612C36.5514 23.5612 34.8667 25.2458 34.8667 27.3168V29.2954L51.3739 29.2612C54.146 29.2612 56.4 31.5139 56.4 34.2835V47.6278V47.6728V48.9946L58.4647 51.2657C58.5869 51.4 58.7586 51.4728 58.9334 51.4728C59.01 51.4728 59.0873 51.4589 59.1614 51.4304C59.4058 51.336 59.5667 51.101 59.5667 50.8395V44.5061H60.2444C62.3154 44.5061 64 42.8215 64 40.7511V27.3612C64 25.2902 62.3154 23.6055 60.2456 23.6055Z" fill="#1A1A1A"/>
<defs>
<filter id="filter0_d" x="0" y="0" width="90" height="90" filterUnits="userSpaceOnUse" color-interpolation-filters="sRGB">
<feFlood flood-opacity="0" result="BackgroundImageFix"/>
<feColorMatrix in="SourceAlpha" type="matrix" values="0 0 0 0 0 0 0 0 0 0 0 0 0 0 0 0 0 0 127 0"/>
<feOffset dy="4"/>
<feGaussianBlur stdDeviation="7.5"/>
<feColorMatrix type="matrix" values="0 0 0 0 0 0 0 0 0 0 0 0 0 0 0 0 0 0 0.15 0"/>
<feBlend mode="normal" in2="BackgroundImageFix" result="effect1_dropShadow"/>
<feBlend mode="normal" in="SourceGraphic" in2="effect1_dropShadow" result="shape"/>
</filter>
</defs>
</svg>
