<svg width="90" height="90" viewBox="0 0 90 90" fill="none" xmlns="http://www.w3.org/2000/svg">
<g filter="url(#filter0_d)">
<rect x="15" y="11" width="60" height="60" fill="#FFD700"/>
</g>
<g clip-path="url(#clip0)">
<path fill-rule="evenodd" clip-rule="evenodd" d="M46.6271 40.9996L56.6632 30.9635C57.1127 30.5139 57.1127 29.7851 56.6632 29.3356C56.2136 28.886 55.4848 28.886 55.0353 29.3356L44.9992 39.3716L34.9631 29.3371C34.5136 28.8876 33.7848 28.8876 33.3352 29.3371C32.8857 29.7867 32.8857 30.5155 33.3352 30.965L43.3713 41.0011L33.3368 51.0356C32.8872 51.4852 32.8872 52.214 33.3368 52.6635C33.5623 52.8876 33.8554 53.0011 34.1499 53.0011C34.4445 53.0011 34.7391 52.8891 34.9631 52.6635L44.9992 42.6275L55.0353 52.6635C55.2608 52.8876 55.5539 53.0011 55.8484 53.0011C56.143 53.0011 56.4376 52.8891 56.6616 52.6635C57.1112 52.214 57.1112 51.4852 56.6616 51.0356L46.6271 40.9996Z" fill="#1A1A1A"/>
</g>
<defs>
<filter id="filter0_d" x="0" y="0" width="90" height="90" filterUnits="userSpaceOnUse" color-interpolation-filters="sRGB">
<feFlood flood-opacity="0" result="BackgroundImageFix"/>
<feColorMatrix in="SourceAlpha" type="matrix" values="0 0 0 0 0 0 0 0 0 0 0 0 0 0 0 0 0 0 127 0"/>
<feOffset dy="4"/>
<feGaussianBlur stdDeviation="7.5"/>
<feColorMatrix type="matrix" values="0 0 0 0 0 0 0 0 0 0 0 0 0 0 0 0 0 0 0.15 0"/>
<feBlend mode="normal" in2="BackgroundImageFix" result="effect1_dropShadow"/>
<feBlend mode="normal" in="SourceGraphic" in2="effect1_dropShadow" result="shape"/>
</filter>
<clipPath id="clip0">
<rect width="24" height="24" fill="white" transform="translate(33 29)"/>
</clipPath>
</defs>
</svg>
