<svg width="24" height="24" viewBox="0 0 24 24" fill="none" xmlns="http://www.w3.org/2000/svg">
<g clip-path="url(#clip0)">
<path fill-rule="evenodd" clip-rule="evenodd" d="M13.6271 11.9996L23.6632 1.96351C24.1127 1.51395 24.1127 0.785141 23.6632 0.335582C23.2136 -0.113977 22.4848 -0.113977 22.0353 0.335582L11.9992 10.3716L1.96314 0.337117C1.51358 -0.112442 0.784775 -0.112442 0.335216 0.337117C-0.114343 0.786676 -0.114343 1.51548 0.335216 1.96504L10.3713 12.0011L0.33675 22.0356C-0.112809 22.4852 -0.112809 23.214 0.33675 23.6635C0.562297 23.8876 0.855354 24.0011 1.14995 24.0011C1.44454 24.0011 1.73913 23.8891 1.96314 23.6635L11.9992 13.6275L22.0353 23.6635C22.2608 23.8876 22.5539 24.0011 22.8484 24.0011C23.143 24.0011 23.4376 23.8891 23.6616 23.6635C24.1112 23.214 24.1112 22.4852 23.6616 22.0356L13.6271 11.9996Z" fill="#FFD700"/>
</g>
<defs>
<clipPath id="clip0">
<rect width="24" height="24" fill="white"/>
</clipPath>
</defs>
</svg>
