<svg width="38" height="38" viewBox="0 0 38 38" fill="none" xmlns="http://www.w3.org/2000/svg">
<path d="M25.3764 8.52783L3.75567 8.57217C1.68467 8.57217 0 10.2568 0 12.3278V25.7171C0 27.7881 1.68467 29.4722 3.75567 29.4722H7.6V35.8055C7.6 36.0671 7.76087 36.302 8.00533 36.3964C8.07943 36.4249 8.1567 36.4388 8.23333 36.4388C8.40813 36.4388 8.57977 36.366 8.702 36.2317L14.8479 29.4709L25.3777 29.4278C27.4487 29.4278 29.1333 27.7432 29.1333 25.6728V12.2835C29.1333 10.2125 27.4487 8.52783 25.3764 8.52783ZM6.33333 14.8612H14.5667C14.9169 14.8612 15.2 15.1449 15.2 15.4945C15.2 15.8441 14.9169 16.1278 14.5667 16.1278H6.33333C5.9831 16.1278 5.7 15.8441 5.7 15.4945C5.7 15.1449 5.9831 14.8612 6.33333 14.8612ZM22.8 23.7278H6.33333C5.9831 23.7278 5.7 23.4441 5.7 23.0945C5.7 22.7449 5.9831 22.4612 6.33333 22.4612H22.8C23.1502 22.4612 23.4333 22.7449 23.4333 23.0945C23.4333 23.4441 23.1502 23.7278 22.8 23.7278ZM22.8 19.9278H6.33333C5.9831 19.9278 5.7 19.6441 5.7 19.2945C5.7 18.9449 5.9831 18.6612 6.33333 18.6612H22.8C23.1502 18.6612 23.4333 18.9449 23.4333 19.2945C23.4333 19.6441 23.1502 19.9278 22.8 19.9278Z" fill="#FFD700"/>
<path d="M34.2456 1.60549L12.6224 1.56116C10.5514 1.56116 8.8667 3.24582 8.8667 5.31682V7.29536L25.3739 7.26116C28.146 7.26116 30.4 9.51392 30.4 12.2835V25.6278V25.6728V26.9946L32.4647 29.2657C32.5869 29.4 32.7586 29.4728 32.9334 29.4728C33.01 29.4728 33.0873 29.4589 33.1614 29.4304C33.4058 29.336 33.5667 29.101 33.5667 28.8395V22.5061H34.2444C36.3154 22.5061 38 20.8215 38 18.7511V5.36116C38 3.29016 36.3154 1.60549 34.2456 1.60549Z" fill="#FFD700"/>
</svg>
