<svg width="11" height="10" viewBox="0 0 11 10" fill="none" xmlns="http://www.w3.org/2000/svg">
<path d="M7.90705 0H3.42633C1.9047 0 0.666748 1.23801 0.666748 2.75964V7.24036C0.666748 8.76205 1.9047 10 3.42633 10H7.90705C9.4288 10 10.6667 8.76199 10.6667 7.24036V2.75964C10.6668 1.23801 9.4288 0 7.90705 0ZM9.77956 7.24036C9.77956 8.27282 8.93957 9.11275 7.90711 9.11275H3.42633C2.39393 9.11281 1.554 8.27282 1.554 7.24036V2.75964C1.554 1.72724 2.39393 0.887248 3.42633 0.887248H7.90705C8.93951 0.887248 9.7795 1.72724 9.7795 2.75964V7.24036H9.77956Z" fill="#FFD700"/>
<path d="M5.66671 2.42346C4.24587 2.42346 3.08997 3.57937 3.08997 5.00021C3.08997 6.42099 4.24587 7.57684 5.66671 7.57684C7.08755 7.57684 8.24346 6.42099 8.24346 5.00021C8.24346 3.57937 7.08755 2.42346 5.66671 2.42346ZM5.66671 6.68953C4.73516 6.68953 3.97721 5.9317 3.97721 5.00015C3.97721 4.06854 4.7351 3.31065 5.66671 3.31065C6.59832 3.31065 7.35621 4.06854 7.35621 5.00015C7.35621 5.9317 6.59826 6.68953 5.66671 6.68953Z" fill="#FFD700"/>
<path d="M8.35158 1.6709C8.18063 1.6709 8.01271 1.7401 7.89198 1.86136C7.77067 1.98203 7.70093 2.15001 7.70093 2.32155C7.70093 2.49255 7.77072 2.66048 7.89198 2.78173C8.01265 2.9024 8.18063 2.9722 8.35158 2.9722C8.52311 2.9722 8.69051 2.9024 8.81176 2.78173C8.93302 2.66048 9.00223 2.49249 9.00223 2.32155C9.00223 2.15001 8.93302 1.98203 8.81176 1.86136C8.6911 1.7401 8.52311 1.6709 8.35158 1.6709Z" fill="#FFD700"/>
</svg>
