<svg width="106" height="10" viewBox="0 0 106 10" fill="none" xmlns="http://www.w3.org/2000/svg">
<path d="M1.00869 1.93668C1.00869 2.18869 1.00869 3.31349 1.00869 3.31349H0V4.99705H1.00869V10H3.08076V4.99719H4.47121C4.47121 4.99719 4.60143 4.18993 4.66456 3.30728C4.48358 3.30728 3.08859 3.30728 3.08859 3.30728C3.08859 3.30728 3.08859 2.32784 3.08859 2.15616C3.08859 1.98411 3.31451 1.75268 3.5378 1.75268C3.76068 1.75268 4.23107 1.75268 4.66674 1.75268C4.66674 1.52346 4.66674 0.731461 4.66674 6.01391e-09C4.08513 6.01391e-09 3.42344 6.01391e-09 3.13177 6.01391e-09C0.957473 -0.000116243 1.00869 1.68512 1.00869 1.93668Z" fill="#FFD700"/>
<path d="M26.9073 0H22.4266C20.9049 0 19.667 1.23801 19.667 2.75964V7.24036C19.667 8.76205 20.9049 10 22.4266 10H26.9073C28.429 10 29.667 8.76199 29.667 7.24036V2.75964C29.6671 1.23801 28.429 0 26.9073 0ZM28.7798 7.24036C28.7798 8.27282 27.9398 9.11275 26.9074 9.11275H22.4266C21.3942 9.11281 20.5542 8.27282 20.5542 7.24036V2.75964C20.5542 1.72724 21.3942 0.887248 22.4266 0.887248H26.9073C27.9398 0.887248 28.7797 1.72724 28.7797 2.75964V7.24036H28.7798Z" fill="#FFD700"/>
<path d="M24.6671 2.42349C23.2462 2.42349 22.0903 3.5794 22.0903 5.00024C22.0903 6.42102 23.2462 7.57687 24.6671 7.57687C26.0879 7.57687 27.2438 6.42102 27.2438 5.00024C27.2438 3.5794 26.0879 2.42349 24.6671 2.42349ZM24.6671 6.68956C23.7355 6.68956 22.9776 5.93173 22.9776 5.00018C22.9776 4.06857 23.7355 3.31068 24.6671 3.31068C25.5987 3.31068 26.3566 4.06857 26.3566 5.00018C26.3566 5.93173 25.5986 6.68956 24.6671 6.68956Z" fill="#FFD700"/>
<path d="M27.3518 1.6709C27.1809 1.6709 27.013 1.7401 26.8922 1.86136C26.7709 1.98203 26.7012 2.15001 26.7012 2.32155C26.7012 2.49255 26.771 2.66048 26.8922 2.78173C27.0129 2.9024 27.1809 2.9722 27.3518 2.9722C27.5234 2.9722 27.6908 2.9024 27.812 2.78173C27.9333 2.66048 28.0025 2.49249 28.0025 2.32155C28.0025 2.15001 27.9333 1.98203 27.812 1.86136C27.6913 1.7401 27.5234 1.6709 27.3518 1.6709Z" fill="#FFD700"/>
<path d="M55.1275 7.41866C55.1148 7.39122 55.1029 7.36845 55.0919 7.35021C54.9094 7.0216 54.5607 6.61826 54.0461 6.14006L54.0352 6.12911L54.0297 6.12374L54.0242 6.11824H54.0187C53.7851 5.89556 53.6372 5.74584 53.5753 5.66919C53.4619 5.52317 53.4365 5.37537 53.4985 5.22561C53.5423 5.11246 53.7066 4.87351 53.9913 4.50842C54.141 4.31494 54.2596 4.15986 54.3471 4.04303C54.9787 3.20343 55.2525 2.66692 55.1685 2.43328L55.1359 2.37868C55.1139 2.34581 55.0574 2.31573 54.9662 2.28831C54.8749 2.26094 54.7581 2.25642 54.6157 2.27466L53.0388 2.28555C53.0133 2.2765 52.9768 2.27734 52.9293 2.28831C52.8818 2.29928 52.8581 2.30478 52.8581 2.30478L52.8306 2.3185L52.8088 2.33497C52.7906 2.34586 52.7705 2.36502 52.7486 2.39241C52.7268 2.4197 52.7085 2.45172 52.694 2.48822C52.5223 2.9299 52.3271 3.34055 52.108 3.72016C51.973 3.94651 51.8489 4.14268 51.7356 4.30878C51.6225 4.47482 51.5276 4.59716 51.451 4.67557C51.3743 4.75407 51.3051 4.81695 51.2429 4.86445C51.1808 4.91198 51.1334 4.93206 51.1006 4.92471C51.0677 4.91737 51.0367 4.91008 51.0074 4.90279C50.9563 4.86992 50.9153 4.82522 50.8843 4.76864C50.8532 4.71207 50.8322 4.64086 50.8213 4.55508C50.8104 4.46924 50.804 4.39541 50.8021 4.33333C50.8004 4.27133 50.8012 4.18363 50.8049 4.07048C50.8087 3.95727 50.8104 3.88068 50.8104 3.84052C50.8104 3.70179 50.8131 3.55122 50.8185 3.38879C50.8241 3.22635 50.8285 3.09765 50.8323 3.00283C50.836 2.90792 50.8377 2.80751 50.8377 2.70165C50.8377 2.59579 50.8313 2.51277 50.8185 2.45251C50.806 2.39233 50.7866 2.33392 50.7612 2.27728C50.7356 2.22071 50.6981 2.17695 50.6489 2.14588C50.5997 2.11485 50.5384 2.09022 50.4655 2.07193C50.272 2.02815 50.0257 2.00446 49.7263 2.00078C49.0474 1.99349 48.6111 2.03733 48.4177 2.13224C48.341 2.17234 48.2717 2.22713 48.2096 2.29644C48.1439 2.37678 48.1347 2.42062 48.1822 2.42783C48.4012 2.46064 48.5563 2.53914 48.6476 2.66324L48.6805 2.729C48.7061 2.77644 48.7316 2.86044 48.7572 2.98088C48.7827 3.10131 48.7992 3.23454 48.8064 3.38048C48.8246 3.64699 48.8246 3.87513 48.8064 4.06492C48.7881 4.25478 48.7709 4.40258 48.7544 4.50844C48.7379 4.6143 48.7133 4.70008 48.6805 4.76577C48.6476 4.83147 48.6257 4.87163 48.6147 4.8862C48.6038 4.90078 48.5946 4.90996 48.5874 4.91357C48.54 4.93175 48.4906 4.94101 48.4395 4.94101C48.3884 4.94101 48.3264 4.91543 48.2534 4.8643C48.1804 4.81317 48.1047 4.74294 48.0262 4.6535C47.9477 4.56404 47.8592 4.43902 47.7606 4.27842C47.6621 4.11783 47.5598 3.92803 47.454 3.70902L47.3664 3.55019C47.3116 3.44801 47.2368 3.29923 47.1419 3.10398C47.047 2.90865 46.963 2.71971 46.8901 2.5372C46.8609 2.46055 46.8171 2.40219 46.7587 2.36203L46.7313 2.34556C46.713 2.33098 46.6838 2.3155 46.6437 2.29901C46.6035 2.28254 46.5616 2.27072 46.5177 2.26346L45.0175 2.27435C44.8642 2.27435 44.7602 2.30908 44.7054 2.37845L44.6835 2.41126C44.6725 2.42954 44.667 2.45872 44.667 2.4989C44.667 2.53906 44.6779 2.58835 44.6999 2.6467C44.9189 3.16143 45.157 3.65785 45.4144 4.13603C45.6717 4.6142 45.8953 4.99939 46.0851 5.29124C46.2749 5.58329 46.4683 5.85893 46.6655 6.11803C46.8626 6.37721 46.9931 6.54331 47.0569 6.61628C47.1208 6.68939 47.171 6.74404 47.2075 6.78054L47.3445 6.91193C47.4321 6.99955 47.5607 7.10449 47.7304 7.22675C47.9002 7.34908 48.0882 7.46952 48.2944 7.58825C48.5007 7.70679 48.7407 7.80352 49.0145 7.87833C49.2882 7.95322 49.5547 7.98327 49.8139 7.96877H50.4436C50.5713 7.95775 50.668 7.91759 50.7338 7.84828L50.7556 7.82084C50.7702 7.79905 50.7839 7.7652 50.7966 7.71965C50.8094 7.67403 50.8158 7.62376 50.8158 7.56909C50.812 7.41216 50.824 7.27072 50.8513 7.1448C50.8786 7.01892 50.9097 6.92401 50.9445 6.86009C50.9792 6.79623 51.0185 6.74234 51.0621 6.69865C51.1059 6.65487 51.1371 6.62835 51.1554 6.61922C51.1736 6.61003 51.1881 6.6038 51.199 6.60006C51.2866 6.57087 51.3897 6.59914 51.5085 6.685C51.6271 6.77078 51.7384 6.8767 51.8425 7.00258C51.9465 7.12858 52.0715 7.26994 52.2175 7.42687C52.3636 7.58386 52.4913 7.70055 52.6008 7.77732L52.7103 7.84302C52.7834 7.88686 52.8783 7.92702 52.9951 7.96352C53.1117 7.99999 53.2139 8.00912 53.3016 7.99088L54.7033 7.96902C54.8419 7.96902 54.9498 7.94607 55.0263 7.90052C55.103 7.8549 55.1485 7.80463 55.1632 7.74995C55.1779 7.69522 55.1787 7.63312 55.166 7.5637C55.153 7.49445 55.1402 7.44603 55.1275 7.41866Z" fill="#FFD700"/>
<path d="M80.0318 1.94653C79.6693 2.10715 79.2804 2.21608 78.8717 2.26471C79.289 2.01484 79.6084 1.61851 79.7598 1.1477C79.3684 1.3791 78.9364 1.54712 78.476 1.63821C78.1074 1.24495 77.583 1 77.0014 1C75.8857 1 74.981 1.90468 74.981 3.01985C74.981 3.17801 74.9988 3.33248 75.0333 3.48019C73.3544 3.39587 71.8657 2.59151 70.8693 1.36925C70.6951 1.66712 70.596 2.01421 70.596 2.38471C70.596 3.0857 70.953 3.70421 71.4946 4.06607C71.1635 4.05499 70.8521 3.96391 70.5794 3.81251V3.83774C70.5794 4.81628 71.2761 5.63295 72.1999 5.81882C72.0306 5.86436 71.8521 5.8896 71.6675 5.8896C71.5371 5.8896 71.4109 5.87668 71.2872 5.85205C71.5444 6.65519 72.2903 7.23923 73.1741 7.25524C72.483 7.79683 71.6115 8.1187 70.665 8.1187C70.5019 8.1187 70.3413 8.10885 70.1831 8.091C71.0773 8.66521 72.139 9 73.28 9C76.9965 9 79.0281 5.92161 79.0281 3.25187L79.0213 2.99032C79.4183 2.7072 79.7617 2.35148 80.0318 1.94653Z" fill="#FFD700"/>
<path fill-rule="evenodd" clip-rule="evenodd" d="M104.268 1.23246C104.712 1.35767 105.062 1.72421 105.182 2.18921C105.404 3.03855 105.395 4.80894 105.395 4.80894C105.395 4.80894 105.395 6.57031 105.182 7.41973C105.062 7.88465 104.712 8.25127 104.268 8.3764C103.457 8.6 100.214 8.6 100.214 8.6C100.214 8.6 96.9781 8.6 96.1586 8.36754C95.7146 8.24233 95.3647 7.87571 95.2451 7.41079C95.0317 6.57031 95.0317 4.8 95.0317 4.8C95.0317 4.8 95.0317 3.03855 95.2451 2.18921C95.3646 1.72429 95.7232 1.34873 96.1585 1.2236C96.9695 1 100.213 1 100.213 1C100.213 1 103.457 1 104.268 1.23246ZM101.878 4.80004L99.1806 6.42734V3.17274L101.878 4.80004Z" fill="#FFD700"/>
</svg>
