<svg width="11" height="8" viewBox="0 0 11 8" fill="none" xmlns="http://www.w3.org/2000/svg">
<path d="M10.0318 0.946526C9.66935 1.10715 9.28041 1.21608 8.87175 1.26471C9.28901 1.01484 9.60842 0.618508 9.75981 0.147699C9.3684 0.379096 8.93636 0.547121 8.47601 0.638205C8.10737 0.244947 7.58302 0 7.00143 0C5.88566 0 4.98098 0.904685 4.98098 2.01985C4.98098 2.17801 4.99882 2.33248 5.03329 2.48019C3.3544 2.39587 1.86568 1.59151 0.869299 0.369248C0.695128 0.667124 0.596045 1.01421 0.596045 1.38471C0.596045 2.0857 0.952998 2.70421 1.49458 3.06607C1.16347 3.05499 0.852064 2.96391 0.579437 2.81251V2.83774C0.579437 3.81628 1.27611 4.63295 2.19986 4.81882C2.03061 4.86436 1.85215 4.8896 1.66751 4.8896C1.53705 4.8896 1.41088 4.87668 1.28718 4.85205C1.54442 5.65519 2.29034 6.23923 3.1741 6.25524C2.48297 6.79683 1.61151 7.1187 0.664986 7.1187C0.501902 7.1187 0.341265 7.10885 0.183105 7.091C1.07733 7.66521 2.13895 8 3.27996 8C6.99654 8 9.02809 4.92161 9.02809 2.25187L9.02131 1.99032C9.41825 1.7072 9.76166 1.35148 10.0318 0.946526Z" fill="#FFD700"/>
</svg>
