<svg width="22" height="24" viewBox="0 0 22 24" fill="none" xmlns="http://www.w3.org/2000/svg">
<path d="M19.8829 13.7205C19.316 18.3679 15.9733 18.658 15.3538 18.861C15.0909 18.9481 12.654 19.5631 9.58594 19.36L6.26077 23.0152L6.25493 18.803L6.23155 18.7972C1.76683 17.5382 1.91877 12.8096 1.96552 10.3322C2.01812 7.85481 2.47394 5.81834 3.83556 4.45489C6.2783 2.20374 11.3216 2.54026 11.3216 2.54026C15.5759 2.55766 17.6154 3.86309 18.0888 4.29824C19.6666 5.66169 20.4672 8.92816 19.8829 13.7205ZM19.2576 3.13205C18.6965 2.60988 16.4408 0.944729 11.4092 0.921521C11.4092 0.921521 5.47769 0.556001 2.58497 3.25389C0.972062 4.89003 0.405206 7.28622 0.346767 10.251C0.288328 13.2216 0.212358 18.7856 5.48938 20.2941H5.49522V22.5975C5.49522 22.5975 5.46016 23.5316 6.06792 23.7172C6.79841 23.9493 7.22501 23.2415 7.92628 22.4756C8.31197 22.0579 8.83792 21.4429 9.23531 20.9729C12.8468 21.2804 15.6227 20.5726 15.9324 20.474C16.6629 20.2303 20.7828 19.6965 21.4549 14.1325C22.1386 8.39439 21.1101 4.76819 19.2576 3.13205Z" fill="#1A1A1A"/>
<path d="M16.0385 14.4103C16.0385 14.4103 15.3606 13.8359 15.0334 13.5922C14.7236 13.3601 14.2269 13.0468 13.9522 12.8902C13.4555 12.6117 12.9471 12.7858 12.7367 13.0642L12.2984 13.6212C12.0764 13.9055 11.7316 13.8533 11.6439 13.8359C11.0011 13.6734 10.3174 13.2789 9.61609 12.6059C8.90898 11.9271 8.47653 11.2192 8.32459 10.4824L8.3129 10.436C8.272 10.1343 8.32459 9.99503 8.44731 9.78616L8.47069 9.76875C8.76288 9.49606 9.31221 9.16535 9.38233 8.85205C9.59856 8.30667 8.66354 7.16369 8.53497 6.96642C8.53497 6.96642 7.85708 6.07873 7.61748 5.90467C7.36035 5.69 6.95712 5.56816 6.54805 5.81764L6.52468 5.83505C5.36175 6.6009 4.94099 7.05345 5.05786 7.72067L5.1163 7.99336C5.70653 9.84418 6.85194 11.8168 8.5525 13.5748C10.2355 15.3096 12.0588 16.3481 13.8529 17.0676C14.3204 17.2242 14.8055 17.0908 15.3022 16.6672L15.308 16.6614C15.6879 16.3075 15.9918 15.9304 16.2138 15.5243V15.5185C16.4359 15.0891 16.3599 14.6888 16.0385 14.4103Z" fill="#1A1A1A"/>
<path d="M13.2458 10.3605C13.1757 10.3605 13.1172 10.3025 13.1114 10.2329C13.088 9.75132 12.9594 9.3858 12.7256 9.14211C12.4918 8.89843 12.147 8.76499 11.6911 8.73598C11.6151 8.73018 11.5625 8.66636 11.5625 8.59093C11.5683 8.51551 11.6268 8.45749 11.7028 8.46329C12.2288 8.4923 12.6321 8.65475 12.9126 8.95065C13.1932 9.24655 13.351 9.67009 13.3744 10.2213C13.3802 10.2967 13.3218 10.3605 13.2458 10.3663" fill="#1A1A1A"/>
<path d="M14.572 10.8131C14.496 10.8131 14.4376 10.7493 14.4376 10.6739C14.461 9.75139 14.1863 8.97394 13.6311 8.35893C13.3565 8.05143 13.0175 7.80775 12.6318 7.63949C12.2461 7.46544 11.7903 7.361 11.2936 7.32619C11.2176 7.32039 11.165 7.25657 11.1709 7.18114C11.1767 7.10572 11.241 7.0477 11.3169 7.0535C12.3864 7.13473 13.2337 7.51185 13.8357 8.17907C14.4376 8.84629 14.7356 9.69337 14.7122 10.6855C14.7064 10.7493 14.648 10.8131 14.572 10.8131Z" fill="#1A1A1A"/>
<path d="M15.931 11.3528C15.855 11.3528 15.7966 11.2948 15.7966 11.2194C15.7907 10.4071 15.668 9.67024 15.4284 9.03203C15.1888 8.39962 14.8323 7.84264 14.3648 7.37268C13.8973 6.90853 13.3597 6.55461 12.7811 6.31674C12.1967 6.07886 11.5481 5.95702 10.8468 5.95702C10.7708 5.95702 10.7124 5.89319 10.7124 5.81777C10.7124 5.74235 10.7708 5.68433 10.8468 5.68433C12.3195 5.69593 13.5642 6.19489 14.5518 7.17542C15.0486 7.66858 15.4284 8.26038 15.6797 8.9334C15.931 9.60062 16.0596 10.3723 16.0654 11.2194C16.0654 11.289 16.007 11.3528 15.931 11.3528Z" fill="#1A1A1A"/>
</svg>
