<svg width="30" height="30" viewBox="0 0 30 30" fill="none" xmlns="http://www.w3.org/2000/svg">
<path d="M0 0H30V30H0V0Z" fill="#59267C"/>
<path d="M21.6617 15.5403C21.2365 19.0258 18.7295 19.2434 18.2649 19.3957C18.0677 19.461 16.24 19.9222 13.939 19.7699L11.4451 22.5113L11.4407 19.3522L11.4232 19.3478C8.07463 18.4036 8.18859 14.8571 8.22365 12.9991C8.2631 11.141 8.60497 9.61366 9.62618 8.59107C11.4582 6.90272 15.2407 7.1551 15.2407 7.1551C18.4315 7.16815 19.9611 8.14723 20.3161 8.47359C21.4995 9.49617 22.0999 11.946 21.6617 15.5403ZM21.1927 7.59895C20.7719 7.20732 19.0801 5.95846 15.3064 5.94105C15.3064 5.94105 10.8578 5.66691 8.68824 7.69033C7.47856 8.91743 7.05342 10.7146 7.00959 12.9382C6.96576 15.1661 6.90878 19.3391 10.8665 20.4705H10.8709V22.198C10.8709 22.198 10.8446 22.8986 11.3005 23.0378C11.8483 23.2119 12.1683 22.681 12.6942 22.1066C12.9835 21.7933 13.378 21.3321 13.676 20.9796C16.3846 21.2102 18.4665 20.6794 18.6988 20.6054C19.2467 20.4226 22.3366 20.0223 22.8407 15.8493C23.3535 11.5457 22.5821 8.82605 21.1927 7.59895Z" fill="white"/>
<path d="M18.7779 16.0578C18.7779 16.0578 18.2695 15.627 18.024 15.4442C17.7918 15.2702 17.4192 15.0352 17.2132 14.9177C16.8407 14.7088 16.4593 14.8394 16.3016 15.0482L15.9728 15.466C15.8063 15.6792 15.5477 15.64 15.482 15.627C14.9998 15.5051 14.487 15.2092 13.9611 14.7045C13.4308 14.1953 13.1064 13.6645 12.9925 13.1118L12.9837 13.077C12.953 12.8508 12.9925 12.7463 13.0845 12.5897L13.102 12.5766C13.3212 12.3721 13.7332 12.1241 13.7858 11.8891C13.9479 11.48 13.2467 10.6228 13.1503 10.4749C13.1503 10.4749 12.6418 9.80909 12.4621 9.67855C12.2693 9.51755 11.9669 9.42617 11.6601 9.61328L11.6425 9.62633C10.7703 10.2007 10.4548 10.5401 10.5424 11.0406L10.5863 11.2451C11.0289 12.6332 11.888 14.1127 13.1634 15.4312C14.4257 16.7322 15.7931 17.5111 17.1387 18.0507C17.4893 18.1682 17.8531 18.0681 18.2257 17.7505L18.23 17.7461C18.5149 17.4807 18.7428 17.1978 18.9094 16.8932V16.8889C19.0759 16.5669 19.019 16.2666 18.7779 16.0578Z" fill="white"/>
<path d="M16.6834 13.0204C16.6308 13.0204 16.5869 12.9769 16.5825 12.9247C16.565 12.5635 16.4686 12.2894 16.2932 12.1066C16.1179 11.9239 15.8593 11.8238 15.5173 11.802C15.4604 11.7977 15.4209 11.7498 15.4209 11.6933C15.4253 11.6367 15.4691 11.5932 15.5261 11.5975C15.9206 11.6193 16.2231 11.7411 16.4335 11.963C16.6439 12.185 16.7623 12.5026 16.7798 12.916C16.7842 12.9726 16.7404 13.0204 16.6834 13.0248" fill="white"/>
<path d="M17.6781 13.3599C17.6212 13.3599 17.5773 13.312 17.5773 13.2555C17.5949 12.5636 17.3889 11.9805 16.9725 11.5192C16.7665 11.2886 16.5123 11.1058 16.223 10.9797C15.9337 10.8491 15.5919 10.7708 15.2193 10.7447C15.1623 10.7403 15.1229 10.6925 15.1273 10.6359C15.1317 10.5793 15.1799 10.5358 15.2369 10.5402C16.0389 10.6011 16.6745 10.8839 17.1259 11.3843C17.5773 11.8848 17.8009 12.5201 17.7833 13.2642C17.7789 13.312 17.7351 13.3599 17.6781 13.3599Z" fill="white"/>
<path d="M18.6991 13.7645C18.6421 13.7645 18.5983 13.721 18.5983 13.6645C18.5939 13.0553 18.5019 12.5026 18.3222 12.024C18.1425 11.5497 17.8751 11.1319 17.5245 10.7795C17.1738 10.4313 16.7706 10.1659 16.3367 9.98749C15.8984 9.80908 15.4119 9.7177 14.886 9.7177C14.829 9.7177 14.7852 9.66984 14.7852 9.61327C14.7852 9.5567 14.829 9.51318 14.886 9.51318C15.9905 9.52189 16.924 9.89611 17.6647 10.6315C18.0373 11.0014 18.3222 11.4452 18.5106 11.95C18.6991 12.4504 18.7955 13.0291 18.7999 13.6645C18.7999 13.7167 18.7561 13.7645 18.6991 13.7645Z" fill="white"/>
</svg>
