<svg width="12" height="6" viewBox="0 0 12 6" fill="none" xmlns="http://www.w3.org/2000/svg">
<path d="M11.1273 5.41866C11.1145 5.39122 11.1027 5.36845 11.0916 5.35021C10.9092 5.0216 10.5605 4.61826 10.0458 4.14006L10.035 4.12911L10.0295 4.12374L10.024 4.11824H10.0185C9.78489 3.89556 9.63697 3.74584 9.57503 3.66919C9.46169 3.52317 9.4363 3.37537 9.49824 3.22561C9.54201 3.11246 9.7064 2.87351 9.99103 2.50842C10.1408 2.31494 10.2593 2.15986 10.3469 2.04303C10.9784 1.20343 11.2522 0.666917 11.1682 0.433275L11.1356 0.378676C11.1137 0.345806 11.0571 0.315735 10.966 0.288311C10.8746 0.260944 10.7578 0.256418 10.6154 0.274656L9.03857 0.285549C9.01303 0.276497 8.97655 0.277341 8.92903 0.288311C8.88156 0.29928 8.85782 0.304784 8.85782 0.304784L8.83038 0.318496L8.80859 0.33497C8.79034 0.345863 8.77026 0.365022 8.74834 0.392408C8.72653 0.419697 8.70829 0.451724 8.69372 0.488219C8.52204 0.929901 8.32685 1.34055 8.10778 1.72016C7.97271 1.94651 7.84867 2.14268 7.73539 2.30878C7.62226 2.47482 7.52735 2.59716 7.45075 2.67557C7.37404 2.75407 7.30481 2.81695 7.24264 2.86445C7.18056 2.91198 7.13317 2.93206 7.10036 2.92471C7.06747 2.91737 7.0365 2.91008 7.00717 2.90279C6.9561 2.86992 6.91502 2.82522 6.88405 2.76864C6.85294 2.71207 6.832 2.64086 6.82105 2.55508C6.81016 2.46924 6.80372 2.39541 6.80187 2.33333C6.80017 2.27133 6.80095 2.18363 6.80466 2.07048C6.80845 1.95727 6.81016 1.88068 6.81016 1.84052C6.81016 1.70179 6.81286 1.55122 6.81829 1.38879C6.82381 1.22635 6.82828 1.09765 6.83202 1.00283C6.83574 0.907924 6.83747 0.807509 6.83747 0.701648C6.83747 0.595787 6.83102 0.512767 6.81829 0.45251C6.80571 0.392331 6.7864 0.333915 6.76095 0.277283C6.73535 0.220709 6.69787 0.176946 6.6487 0.145878C6.59943 0.114848 6.53818 0.090224 6.46529 0.0719284C6.2718 0.0281457 6.02543 0.0044612 5.72604 0.000779072C5.04713 -0.00650846 4.6109 0.0373317 4.41743 0.132242C4.34078 0.172343 4.27141 0.227134 4.20939 0.296442C4.14367 0.376777 4.1345 0.420618 4.18195 0.427829C4.401 0.460642 4.55607 0.539136 4.64733 0.663235L4.68022 0.728996C4.70581 0.776441 4.73135 0.86044 4.75692 0.980876C4.78244 1.10131 4.79891 1.23454 4.80616 1.38048C4.82438 1.64699 4.82438 1.87513 4.80616 2.06492C4.78789 2.25478 4.77063 2.40258 4.75415 2.50844C4.73768 2.6143 4.71306 2.70008 4.68022 2.76577C4.64733 2.83147 4.62545 2.87163 4.61448 2.8862C4.60353 2.90078 4.5944 2.90996 4.58715 2.91357C4.53971 2.93175 4.49036 2.94101 4.43929 2.94101C4.38815 2.94101 4.32613 2.91543 4.25314 2.8643C4.18016 2.81317 4.10443 2.74294 4.02594 2.6535C3.94744 2.56404 3.85892 2.43902 3.76033 2.27842C3.66181 2.11783 3.55959 1.92803 3.45373 1.70902L3.36615 1.55019C3.31139 1.44801 3.2366 1.29923 3.14169 1.10398C3.04672 0.908652 2.96278 0.719714 2.88981 0.537199C2.86064 0.460546 2.81682 0.402188 2.75842 0.36203L2.73102 0.345556C2.7128 0.330981 2.68355 0.315505 2.64343 0.299012C2.60326 0.282538 2.56133 0.270725 2.51749 0.263456L1.01724 0.274349C0.863933 0.274349 0.759913 0.30908 0.705142 0.378446L0.683222 0.411259C0.672271 0.429535 0.666748 0.458724 0.666748 0.498901C0.666748 0.539059 0.677699 0.588346 0.699619 0.646704C0.918628 1.16143 1.1568 1.65785 1.41412 2.13603C1.67145 2.6142 1.89506 2.99939 2.08483 3.29124C2.27463 3.58329 2.46809 3.85893 2.66522 4.11803C2.86235 4.37721 2.99283 4.54331 3.05668 4.61628C3.1206 4.68939 3.1708 4.74404 3.2073 4.78054L3.34421 4.91193C3.43181 4.99955 3.56046 5.10449 3.7302 5.22675C3.89998 5.34908 4.08794 5.46952 4.29418 5.58825C4.50045 5.70679 4.74042 5.80352 5.01422 5.87833C5.28798 5.95322 5.55444 5.98327 5.81363 5.96877H6.44331C6.57101 5.95775 6.66776 5.91759 6.73353 5.84828L6.75531 5.82084C6.76996 5.79905 6.78367 5.7652 6.79633 5.71965C6.80914 5.67403 6.81551 5.62376 6.81551 5.56909C6.81177 5.41216 6.82372 5.27072 6.85103 5.1448C6.87832 5.01892 6.90942 4.92401 6.94421 4.86009C6.97898 4.79623 7.01822 4.74234 7.06189 4.69865C7.10565 4.65487 7.13683 4.62835 7.15513 4.61922C7.17331 4.61003 7.18783 4.6038 7.19878 4.60006C7.28638 4.57087 7.38948 4.59914 7.50823 4.685C7.62688 4.77078 7.73817 4.8767 7.84227 5.00258C7.94631 5.12858 8.07131 5.26994 8.21729 5.42687C8.36336 5.58386 8.49109 5.70055 8.60055 5.77732L8.71002 5.84302C8.78312 5.88686 8.87804 5.92702 8.99487 5.96352C9.11149 5.99999 9.21367 6.00912 9.3014 5.99088L10.703 5.96902C10.8417 5.96902 10.9496 5.94607 11.0261 5.90052C11.1027 5.8549 11.1483 5.80463 11.163 5.74995C11.1776 5.69522 11.1784 5.63312 11.1658 5.5637C11.1528 5.49445 11.14 5.44603 11.1273 5.41866Z" fill="#FFD700"/>
</svg>
