<svg width="22" height="22" viewBox="0 0 22 22" fill="none" xmlns="http://www.w3.org/2000/svg">
<path d="M21.6674 10.7256C21.6674 16.4647 16.9787 21.1172 11.1937 21.1172C9.35791 21.1172 7.6334 20.6476 6.1322 19.8254L0.333984 21.6668L2.22406 16.0898C1.27102 14.5246 0.722155 12.6867 0.722155 10.7249C0.722851 4.98586 5.41012 0.333374 11.1951 0.333374C16.9794 0.334765 21.6674 4.98655 21.6674 10.7256ZM11.193 1.9904C6.33811 1.9904 2.38892 5.90968 2.38892 10.7277C2.38892 12.6394 3.01222 14.4091 4.06613 15.8491L2.96701 19.0929L6.34924 18.0181C7.74053 18.9308 9.40521 19.4623 11.193 19.4623C16.0479 19.4623 19.9985 15.5437 19.9985 10.7256C19.9999 5.90968 16.0486 1.9904 11.193 1.9904ZM16.4827 13.1194C16.4173 13.0143 16.2462 12.9503 15.9902 12.8223C15.7349 12.6943 14.4709 12.0787 14.2365 11.9952C14 11.9096 13.8288 11.8665 13.6577 12.1218C13.4887 12.3771 12.9961 12.9503 12.8452 13.1214C12.6956 13.2919 12.5461 13.3134 12.2894 13.1875C12.0327 13.0581 11.2049 12.791 10.224 11.9235C9.46086 11.2474 8.94539 10.4147 8.79652 10.1594C8.64557 9.90477 8.78122 9.76703 8.90852 9.64043C9.0233 9.52564 9.16521 9.34269 9.29391 9.19313C9.4226 9.04495 9.46504 8.93991 9.5506 8.76948C9.63478 8.59904 9.59234 8.45087 9.52904 8.32218C9.46504 8.19418 8.95235 6.94201 8.73739 6.43211C8.52383 5.92289 8.31027 6.00707 8.16001 6.00707C8.01044 6.00707 7.83931 5.9862 7.66818 5.9862C7.49706 5.9862 7.2188 6.04811 6.98436 6.30341C6.74993 6.55871 6.08628 7.17436 6.08628 8.42791C6.08628 9.68286 7.00523 10.8926 7.13393 11.0623C7.26332 11.2314 8.91061 13.888 11.52 14.9079C14.1307 15.927 14.1307 15.5868 14.601 15.5437C15.0726 15.5006 16.1203 14.928 16.3332 14.334C16.5474 13.7371 16.5474 13.2258 16.4827 13.1194Z" fill="#1A1A1A"/>
</svg>
