<svg width="11" height="8" viewBox="0 0 11 8" fill="none" xmlns="http://www.w3.org/2000/svg">
<path fill-rule="evenodd" clip-rule="evenodd" d="M9.26846 0.232459C9.71234 0.357673 10.0624 0.724208 10.1818 1.18921C10.4039 2.03855 10.3953 3.80894 10.3953 3.80894C10.3953 3.80894 10.3953 5.57031 10.1819 6.41973C10.0624 6.88465 9.71242 7.25127 9.26846 7.3764C8.45746 7.6 5.21353 7.6 5.21353 7.6C5.21353 7.6 1.97807 7.6 1.15861 7.36754C0.714648 7.24233 0.364693 6.87571 0.245143 6.41079C0.0317383 5.57031 0.0317383 3.8 0.0317383 3.8C0.0317383 3.8 0.0317383 2.03855 0.245143 1.18921C0.364614 0.72429 0.723187 0.348729 1.15854 0.223598C1.96954 0 5.21346 0 5.21346 0C5.21346 0 8.45746 0 9.26846 0.232459ZM6.8782 3.80004L4.18062 5.42734V2.17274L6.8782 3.80004Z" fill="#FFD700"/>
</svg>
